<svg data-name="レイヤー 1" xmlns="http://www.w3.org/2000/svg" viewBox="0 0 60 60"><circle cx="30" cy="30" r="30" fill="#888"/><path d="M41.93 23.17a21 21 0 003.93-.25v4.76c-.78-.07-2-.11-3.93-.11h-2.65v1.18c0 8.87-2.15 14.28-10.77 18.07l-3.83-3.61c6.91-2.4 10-5.51 10-14.28v-1.36h-8.53v4.87c0 1.57.1 3 .14 3.75h-5a28.06 28.06 0 00.22-3.75v-4.87h-3.06c-1.79 0-3.07.07-3.86.14v-4.86a24.48 24.48 0 003.86.32h3.05v-3.54a29.18 29.18 0 00-.22-3.22h5.08a21.74 21.74 0 00-.21 3.25v3.51h8.48v-3.76a23.15 23.15 0 00-.22-3.33h5.08a31.61 31.61 0 00-.21 3.33v3.76z" fill="#fff"/></svg>