<svg xmlns="http://www.w3.org/2000/svg" width="113.543" height="83.237" viewBox="0 0 113.543 83.237">
  <g id="Union_14" data-name="Union 14" transform="translate(0 0)" fill="#fec20d">
    <path d="M 66.40432739257812 81.73709106445312 L 66.40431213378906 81.73709106445312 C 65.45159149169922 81.73712158203125 64.53885650634766 81.43983459472656 63.76477432250977 80.87734222412109 L 57.42411422729492 76.27103424072266 C 56.77771377563477 75.80130767822266 56.26765441894531 75.16889190673828 55.94923782348633 74.4422607421875 L 54.89936065673828 72.04640197753906 L 53.36183929443359 74.16263580322266 L 51.70917510986328 76.43732452392578 C 50.86520767211914 77.59913635253906 49.50249862670898 78.29273986816406 48.06386947631836 78.29280090332031 C 47.1109619140625 78.29283142089844 46.19794464111328 77.99547576904297 45.42348480224609 77.43289184570312 L 39.07682037353516 72.82141876220703 C 38.94399261474609 72.72492218017578 38.81554412841797 72.62066650390625 38.69491577148438 72.51139831542969 L 37.4565315246582 71.38975524902344 L 36.47443771362305 72.74149322509766 L 33.21057510375977 77.23383331298828 C 32.36660766601562 78.39564514160156 31.00389862060547 79.08924865722656 29.56526756286621 79.08929443359375 C 28.61237525939941 79.08932495117188 27.6993293762207 78.79198455810547 26.92488288879395 78.22940063476562 L 20.95174598693848 73.88931274414062 L 19.73819160461426 73.00753784179688 L 18.85648345947266 74.22113800048828 L 17.24636077880859 76.43733978271484 C 16.40208435058594 77.59904479980469 15.0390682220459 78.29273986816406 13.60042190551758 78.29280090332031 C 12.64768409729004 78.29283142089844 11.73494529724121 77.99552154541016 10.96088409423828 77.43304443359375 L 4.613052845001221 72.82135772705078 C 3.640883684158325 72.11492156982422 3.001883745193481 71.07204437255859 2.813883781433105 69.88494110107422 C 2.625852823257446 68.69770812988281 2.9114990234375 67.50835418701172 3.618206739425659 66.53594207763672 L 10.01154518127441 57.7360954284668 L 10.89322185516357 56.52255630493164 L 9.679653167724609 55.64089584350586 L 3.354852914810181 51.04586410522461 C 1.347745299339294 49.58735656738281 0.9010837078094482 46.76758575439453 2.359299182891846 44.76018524169922 L 26.10660743713379 12.07589435577393 C 26.95062255859375 10.91400146484375 28.31331443786621 10.22040176391602 29.75188446044922 10.22040176391602 C 30.70486831665039 10.22040176391602 31.6179141998291 10.51775550842285 32.39233016967773 11.08029365539551 L 38.71586990356445 15.67506313323975 L 39.92942047119141 16.55684852600098 L 40.8111457824707 15.34324741363525 L 49.52103805541992 3.354863166809082 C 50.36514663696289 2.193232536315918 51.72823715209961 1.499663233757019 53.167236328125 1.499663233757019 C 54.12008285522461 1.499663233757019 55.03274536132812 1.796878576278687 55.8065299987793 2.359155416488647 L 61.78083801269531 6.700093746185303 L 62.99437713623047 7.581847667694092 L 63.87608337402344 6.368278503417969 L 65.48611450195312 4.152278423309326 C 66.33013153076172 2.990401744842529 67.69282531738281 2.296801567077637 69.13139343261719 2.296801567077637 C 70.08435821533203 2.296801567077637 70.99742126464844 2.594155550003052 71.77182006835938 3.156709432601929 L 78.11859130859375 7.767370700836182 C 78.25106811523438 7.863647937774658 78.37953186035156 7.967970848083496 78.50019073486328 8.077278137207031 L 79.73859405517578 9.19917106628418 L 80.72079467773438 7.847293853759766 L 83.98473358154297 3.354878664016724 C 84.82884979248047 2.193232536315918 86.19180297851562 1.499663233757019 87.63056182861328 1.499663233757019 C 88.58338928222656 1.499663233757019 89.49625396728516 1.796924710273743 90.27043914794922 2.359293937683105 L 96.61708068847656 6.970801830291748 C 97.58968353271484 7.677309513092041 98.22877502441406 8.720125198364258 98.41677856445312 9.907262802124023 C 98.60478973388672 11.09444808959961 98.31923675537109 12.28389358520508 97.61270141601562 13.25650978088379 L 95.23117828369141 16.53441619873047 L 93.69346618652344 18.65089416503906 L 96.29682159423828 18.90878677368164 C 97.08617401123047 18.98698616027832 97.84522247314453 19.2766170501709 98.49191284179688 19.74638557434082 L 104.8313903808594 24.35250854492188 C 106.8387603759766 25.81137084960938 107.285514831543 28.63109397888184 105.8271484375 30.63803291320801 L 103.0717468261719 34.43058776855469 L 102.1073913574219 35.75793838500977 L 103.5156555175781 36.59975433349609 C 103.6321640014648 36.66940307617188 103.7471466064453 36.74535369873047 103.8574371337891 36.82550811767578 L 110.1874237060547 41.42378616333008 C 111.1598510742188 42.13018798828125 111.798942565918 43.17312622070312 111.9869766235352 44.36049270629883 C 112.1749877929688 45.54778671264648 111.8894805908203 46.73706436157227 111.1830368041992 47.70923233032227 L 90.18598937988281 76.60921478271484 C 89.34201049804688 77.77104949951172 87.97930145263672 78.46464538574219 86.54066467285156 78.46469116210938 C 85.58776092529297 78.4647216796875 84.67472839355469 78.16738891601562 83.90028381347656 77.60480499267578 L 77.57071685791016 73.00589752197266 C 77.46051788330078 72.92583465576172 77.35288238525391 72.84003448486328 77.25083923339844 72.75090789794922 L 76.01502227783203 71.67169189453125 L 75.05063629150391 72.99907684326172 L 70.05027008056641 79.88164520263672 C 69.20599365234375 81.04335784912109 67.84297943115234 81.73704528808594 66.40432739257812 81.73709106445312 Z" stroke="none"/>
    <path d="M 66.40428161621094 80.23709106445312 C 67.37879180908203 80.23705291748047 68.26548004150391 79.78601837158203 68.83673858642578 78.99997711181641 L 75.76580810546875 69.46272277832031 L 78.2374267578125 71.62103271484375 C 78.30590057373047 71.68083190917969 78.37826538085938 71.73851013183594 78.45240783691406 71.79238128662109 L 84.7818603515625 76.39122009277344 C 85.29837036132812 76.76641845703125 85.90653228759766 76.96472930908203 86.54062652587891 76.96469116210938 C 87.51496887207031 76.96465301513672 88.40129852294922 76.51381683349609 88.97244262695312 75.72754669189453 L 109.9695892333984 46.82745361328125 C 110.4404830932617 46.17943572998047 110.6307907104492 45.38663482666016 110.5054473876953 44.59510803222656 C 110.3800811767578 43.80352783203125 109.9540634155273 43.10827255249023 109.3058242797852 42.63738250732422 L 102.9755706787109 38.03889083862305 C 102.9014053344727 37.98498153686523 102.8241500854492 37.93394470214844 102.7459564208984 37.88719940185547 L 99.92953491210938 36.20352554321289 L 104.6137008666992 29.75625419616699 C 105.5858840942383 28.41838073730469 105.2878799438477 26.53854370117188 103.9496994018555 25.56601715087891 L 97.61032104492188 20.95998001098633 C 97.17273712158203 20.6421070098877 96.68104553222656 20.45419883728027 96.14891815185547 20.4014720916748 L 90.94228363037109 19.88561630249023 L 96.39910125732422 12.37496280670166 C 97.37144470214844 11.03639888763428 97.07382965087891 9.156580924987793 95.7353515625 8.184289932250977 L 89.38886260986328 3.5729079246521 C 88.87260437011719 3.197889804840088 88.26458740234375 2.999671697616577 87.63053894042969 2.999671697616577 C 86.65599060058594 2.999671697616577 85.7694091796875 3.450562477111816 85.19826507568359 4.236544132232666 L 79.969970703125 11.43268966674805 L 77.49315643310547 9.188962936401367 C 77.41224670410156 9.115671157836914 77.32585906982422 9.045544624328613 77.23699188232422 8.980944633483887 L 70.89024353027344 4.37028980255127 C 70.37377166748047 3.995126008987427 69.76557159423828 3.796817064285278 69.13139343261719 3.796817064285278 C 68.15711975097656 3.796817064285278 67.27082824707031 4.247671604156494 66.69962310791016 5.033962726593018 L 63.326171875 9.677089691162109 L 54.92475509643555 3.572617053985596 C 54.408935546875 3.19779896736145 53.80118942260742 2.999671697616577 53.1672248840332 2.999671697616577 C 52.19242477416992 2.999671697616577 51.30569839477539 3.450562477111816 50.73457336425781 4.236526012420654 L 40.26124572753906 18.65210723876953 L 31.51073455810547 12.29388999938965 C 30.9942626953125 11.91872596740723 30.38606262207031 11.72041702270508 29.75188064575195 11.72041702270508 C 28.77760887145996 11.72041702270508 27.89131736755371 12.17127132415771 27.32011795043945 12.95759868621826 L 3.572899103164673 45.64174270629883 C 2.600717306137085 46.9800910949707 2.898517370223999 48.86003494262695 4.236517429351807 49.83230972290039 L 12.98842620849609 56.19067001342773 L 4.831608295440674 67.41781616210938 C 4.360498905181885 68.06603240966797 4.17008113861084 68.85888671875 4.295408248901367 69.65030670166016 C 4.420753479003906 70.44172668457031 4.846753597259521 71.13697814941406 5.494699001312256 71.60781860351562 L 11.8426628112793 76.21959686279297 C 12.35873508453369 76.59461975097656 12.96651744842529 76.79283142089844 13.6003532409668 76.79280090332031 C 14.57486248016357 76.79276275634766 15.46157169342041 76.34170532226562 16.0328254699707 75.55567169189453 L 19.4063720703125 70.91226959228516 L 27.80646324157715 77.01581573486328 C 28.32297134399414 77.39101409912109 28.9311351776123 77.58932495117188 29.56522560119629 77.58928680419922 C 30.53957176208496 77.58925628662109 31.42589950561523 77.13842010498047 31.99704360961914 76.35214233398438 L 37.22515487670898 69.15631103515625 L 39.70193481445312 71.39967346191406 C 39.78273391723633 71.47286987304688 39.86897277832031 71.54285430908203 39.95855331420898 71.60792541503906 L 46.30506134033203 76.21932983398438 C 46.82157135009766 76.59452819824219 47.42973709106445 76.79283142089844 48.06380844116211 76.79280090332031 C 49.03817367553711 76.79276275634766 49.92449951171875 76.34191131591797 50.49566268920898 75.55563354492188 L 55.22342681884766 69.04846954345703 L 57.32315444946289 73.84025573730469 C 57.5347900390625 74.32323455810547 57.87466430664062 74.74421691894531 58.30573654174805 75.05747222900391 L 64.64656829833984 79.66388702392578 C 65.16264343261719 80.03890991210938 65.77042388916016 80.23712921142578 66.40424346923828 80.23709106445312 L 66.40428161621094 80.23709106445312 M 66.40437316894531 83.23709106445312 C 65.18153381347656 83.23714447021484 63.94778823852539 82.86454772949219 62.88300704956055 82.09079742431641 L 56.54249954223633 77.48459625244141 C 55.64980697631836 76.83590698242188 54.98849868774414 75.98710632324219 54.57537078857422 75.0443115234375 L 52.92269897460938 77.31900024414062 C 50.97509384155273 80.00009918212891 47.22299957275391 80.5941162109375 44.54190063476562 78.64650726318359 L 38.19509887695312 74.03490447998047 C 38.0167350769043 73.90534210205078 37.84771728515625 73.76786804199219 37.68797302246094 73.62318420410156 L 34.42409896850586 78.11550903320312 C 32.47649765014648 80.79658508300781 28.72440910339355 81.39058685302734 26.04329872131348 79.44300079345703 L 20.07002639770508 75.10279846191406 L 18.45989990234375 77.31900024414062 C 16.51140594482422 80.00009918212891 12.75929927825928 80.5941162109375 10.07909870147705 78.64650726318359 L 3.73140811920166 74.03490447998047 C 1.051208138465881 72.08731079101562 0.4562990963459015 68.33519744873047 2.404808282852173 65.65410614013672 L 8.798007965087891 56.85443496704102 L 2.47320818901062 52.2593994140625 C -0.2069918215274811 50.31179809570312 -0.8019009232521057 46.55970764160156 1.145699143409729 43.87859725952148 L 24.89309883117676 11.19419860839844 C 26.8406982421875 8.51310920715332 30.59280014038086 7.919106483459473 33.27389907836914 9.866707801818848 L 39.59760665893555 14.46158027648926 L 48.30749893188477 2.473198890686035 C 50.25510025024414 -0.2069976627826691 54.00811004638672 -0.8018959164619446 56.68829727172852 1.145707964897156 L 62.66255187988281 5.486598968505859 L 64.27259063720703 3.270598888397217 C 66.22019958496094 0.5895155072212219 69.97228240966797 -0.00450039841234684 72.65341186523438 1.943107962608337 L 79.00020599365234 6.553798675537109 C 79.17857360839844 6.683435440063477 79.34749603271484 6.820871353149414 79.50727844238281 6.965617179870605 L 82.77120971679688 2.473198890686035 C 84.71880340576172 -0.2069961577653885 88.47089385986328 -0.8018976449966431 91.15200805664062 1.145707964897156 L 97.49880981445312 5.757308006286621 C 100.1799011230469 7.704907894134521 100.7739028930664 11.45699882507324 98.82630157470703 14.138108253479 L 96.4447021484375 17.41609001159668 C 97.46906280517578 17.51758003234863 98.48051452636719 17.88410758972168 99.37349700927734 18.53279876708984 L 105.7130966186523 23.13899803161621 C 108.3942108154297 25.0875072479248 108.9882049560547 28.839599609375 107.0406112670898 31.51979827880859 L 104.2852783203125 35.31223678588867 C 104.4395751953125 35.40447235107422 104.5911026000977 35.50439834594727 104.7392959594727 35.61210632324219 L 111.0690078735352 40.21019744873047 C 113.7500991821289 42.15779876708984 114.3441009521484 45.91079711914062 112.3964996337891 48.59099960327148 L 91.39949798583984 77.49090576171875 C 89.45189666748047 80.1719970703125 85.69979858398438 80.76599884033203 83.01869964599609 78.81839752197266 L 76.68901062011719 74.21939849853516 C 76.54095458984375 74.11181640625 76.39942932128906 73.99885559082031 76.26417541503906 73.88074493408203 L 71.26380920410156 80.7633056640625 C 70.08940887451172 82.37925720214844 68.25959014892578 83.23703765869141 66.40437316894531 83.23709106445312 Z" stroke="none" fill="#000"/>
  </g>
</svg>
