<svg xmlns="http://www.w3.org/2000/svg" width="420.625" height="415.69"><path id="シェイプ_1" data-name="シェイプ 1" d="M609.834 1102.37c.231.64.113 1.08.354 1.58 1.821 3.78 8.25 4.17 9.692-.25a5.04 5.04 0 00.19-2.32c-.3-1.79-1.31-2.22-2.18-3.81-.973-1.77-.425-3.94-.865-5.48-.083-.29-.408-.6-.589-1.03a9.6 9.6 0 00-.362-1.23 10.273 10.273 0 00-5.33-3.07.958.958 0 00-.162-.04 8.283 8.283 0 00-5.224 1.69 7.538 7.538 0 00-1.586 6.85c1.102 3.02 4.928 4 6.062 7.11zm8.734 10.7c-1.494 3.92.414 8.59 4.7 8.95a7.726 7.726 0 002.046-.51c2.056-.51 3.114-1.46 3.927-3.96a6.714 6.714 0 00.47-2.07 9.038 9.038 0 00-1.01-2.36c-.8-1.52-2.106-3.33-4.138-3.63a5.334 5.334 0 00-5.995 3.58zm-356.98-36.87a9.755 9.755 0 002.093.86 9.035 9.035 0 002.278.84c1.242.14 2.558-1.18 4.012-.37.555-.56.455-1.4.887-1.85.633-.66 1.772-.08 2.605-.39a3.732 3.732 0 01-.124-1.47c.2-.52.9-.63 1.175-1.13.6-1.1.034-2.39.686-3.88a6.259 6.259 0 01-.937-3.25c-1.631-.66-2.036-2.44-3.7-2.91-1.017-.28-1.917.2-3.131-.4-.989.24-1.9.66-2.926.82-.649 1.16-2.114 1.15-2.933 2.16-.695.85-.761 2.39-1.8 3.24a11.378 11.378 0 00.161 4.24c.271 1.11.827 2.86 1.654 3.49zm351.7 243.36a59.5 59.5 0 005.916-12.59.253.253 0 00-.1-.21c-1.704 4.68-4.121 8.12-5.821 12.8zm-88.825 9.51a4.951 4.951 0 00-3.829.88c-1.438 1.23-2.039 4.01-3.485 5.63-.541.61-1.382.87-1.76 1.3-2.457 2.78-1.138 7.26 2.189 7.14a3.836 3.836 0 002.049-.84c.656-.53.963-1.42 1.686-2.13.945-.93 2.588-.96 3.807-1.87.189-.13.325-.42.562-.61a7.471 7.471 0 00.666-.41c1.1-1.2.968-2.75 1.515-4.76-.693-1.68-1.063-3.82-3.405-4.33zm69.116 32.53c.9-.18 1.832-1.17 2.747-2.13.9-.95 2.328-2.54 2.038-3.44-1.417 2.23-3.424 3.25-4.79 5.57zm-91.787-10.49c.955-1.01 2.322-1.57 2.676-3.49a2.661 2.661 0 00-3.54-3.12c-3.206 1.14-3.372 7.29.859 6.61zm-41.724 56.39c.109-.06.642-.38.427-.48-.97.11-2.062.21-3.108.32-1 .1-2.3-.08-2.873.93.763.04 1.769-.1 2.789-.16a6.777 6.777 0 002.76-.61zm79.232-11.18a43.177 43.177 0 0010.376-6.86c.014-.06.067-.12.01-.16a49.882 49.882 0 00-10.391 7.02zm44.492-157.12v-.15c-.054.05-.092.13-.005.15zm56.191-50.54a43.116 43.116 0 00.629 8.17 34.475 34.475 0 00-.634-8.17zm-79.644 194.83a34.829 34.829 0 00-6.523 4.68 38.374 38.374 0 006.518-4.68zm-4.129 1.14a5.813 5.813 0 002.132-2.23c-1.826 0-3.249 1.55-4.6 3.37a3.859 3.859 0 002.463-1.14zm70.02-94.76a15.741 15.741 0 00-1.66 5.19 23.682 23.682 0 001.8-5.02.568.568 0 00-.145-.17zm-101.192 127.51a33.064 33.064 0 005.481-2.12c.031-.08.108-.16.043-.22a16.351 16.351 0 00-5.524 2.34zm-32.775-7.02a311.48 311.48 0 01-30.939 7.87 279.784 279.784 0 01-42.51 5.17 195.9 195.9 0 0045.644-4.54 38.115 38.115 0 016.44-1.15c-.178.57-.959.58-.832 1.06a247.723 247.723 0 0024.546-7.51 39.708 39.708 0 007.883-3.71 59.659 59.659 0 00-10.232 2.81zm31.757-25.5a25.5 25.5 0 00-6.834 3.68 18.4 18.4 0 006.978-3.52.511.511 0 00-.144-.16zm-18.649 9.85a15.826 15.826 0 00-4.3 2.41c3.328-.43 6.428-1.91 9.518-3.22 3.108-1.32 6.236-2.69 9.24-4.29 6.026-3.22 12.259-6.56 17.837-11.23.064.04.091-.05-.025-.09-8.121 5.16-16.663 9.67-24.9 14.04a11.843 11.843 0 01-3.7 1.63 9.391 9.391 0 00.773-1.09 21.489 21.489 0 00-4.443 1.84zm103.3-69.07a14.07 14.07 0 00-2.74 4.71c.932-1.24 2.389-3.14 2.743-4.71zm16.007-39.36c3.088-11.58 6.258-23.18 6.83-34.07a.314.314 0 01-.085-.13c.033-.06-.049-.09-.093.03-.039-.02-.077-.03-.095.03a56.669 56.669 0 00-1.436 5.08c-1.139 4.87-2.143 9.97-3.458 14.85-5.427 20.12-12.189 40.36-23.4 62.04a204.672 204.672 0 0017.165-37.05c1.415-4.03 2.445-8.1 4.058-11.98.454.26.023 1.29.517 1.2zm8.774-16.83c-.556 2.44-1.207 4.88-1.812 7.29-1.232 4.92-2.649 9.76-3.661 14.66a93.514 93.514 0 004.377-14.8 132.3 132.3 0 003.064-14.44 1.434 1.434 0 01-.11-.23c-.738 2.44-1.275 4.98-1.855 7.52zm-2.953 3.13a47.124 47.124 0 001.838-9.31 67.706 67.706 0 00-1.837 9.31zm-4.12-134.52c-1.588-3.23-3.15-6.73-4.816-9.75a33.5 33.5 0 004.819 9.75zm-54.123 237.38a8.663 8.663 0 002.473-2.28c2.4-2.6 5.023-5.32 7.127-8.13-3.242 3.29-6.688 5.82-9.597 10.41zm18.762-6.54a17.06 17.06 0 00-3.863 4.45 35.54 35.54 0 003.742-3.96l.207-.36a.415.415 0 00-.083-.13zm-29.687 15.92a21.764 21.764 0 006.982-6.19c-1.775 1.37-3.742 2.79-5.456 4.33a4.892 4.892 0 00-1.523 1.86zm37.058-42.92c-2.606 3.01-4.29 6.66-6.759 9.73-.715.89-1.635 1.67-2.4 2.56-2.368 2.77-4.83 5.58-6.933 8.5 1.588-1.37 3.08-3.1 4.64-4.57-.516.94-1.547 1.87-1.733 2.79a107.94 107.94 0 0011.3-15.25.406.406 0 00-.087.43c1.878-3.07 4.051-6.04 5.767-9.1a35.294 35.294 0 00-3.875 5.19c.046-.1.153-.22.083-.28zm-183.986 77.92a.738.738 0 00-.119-.07 29.82 29.82 0 00-2.962-.94c-.946-.25-2.016-.59-2.761-.17a6.342 6.342 0 003.354 1.09 5.3 5.3 0 002.491.09zm-8.063-407.52a.194.194 0 00-.016-.25 13.576 13.576 0 00-3.709.24c-1.155.16-2.462.18-3.379.93a15.107 15.107 0 007.107-.92zm25.862 3.1c-.367.01-.935-.17-1.058.19a14.88 14.88 0 004.918.14c.034-.07.063-.15-.05-.19a25.667 25.667 0 00-3.807-.14zm-24.874-1.05c1.5-.11 3.126-.03 4.453-.87a.891.891 0 00-.595-.35c-1.086-.43-3.4-1-3.615.22-1.5.81-3.208.81-4.812 1.22a34.818 34.818 0 004.572-.22zm2.1.35a1.728 1.728 0 00-.179-.11c-1.475.26-3.261.35-4.437 1.11a11.543 11.543 0 004.623-1zm156.859 50.8c2.083 1.86 4.292 3.55 6.463 5.28a19.494 19.494 0 003.4 2.42c-1.772-2.16-4.037-3.89-5.3-6.22-.292-.54-.3-1.24-.607-1.74a7.277 7.277 0 00-2.378-1.98c-.937-.54-3-1.6-3.466-.75-.463.87 1.284 2.44 1.895 2.99zm-149.611-51.56c6.394-.3 12.712-.88 19.021-1.51-6.621-.59-12.84.37-19.014 1.51zm164.529 57.04a56.075 56.075 0 00-5.926-5.53c-.055-.04-1.341-1.04-.833-.49a62.466 62.466 0 006.766 6.02zm34 45.94a13.977 13.977 0 002.612 4.79 15.293 15.293 0 00-2.602-4.79zm13.456 27.77a16.852 16.852 0 00.991 3.59c.395 1.23.811 2.46 1.177 3.54a48.677 48.677 0 002.519 6.93c-1.233-4.85-2.094-9.79-4.642-14.28-.022.08-.099.17-.035.22zm-31.361-57.21a16.219 16.219 0 00-3.579-4.07 13.374 13.374 0 003.579 4.07zM418.531 1427.7a31.046 31.046 0 00-7.572-1.06 36.559 36.559 0 007.572 1.06zm-196.624-189.09c-1.14.62-.93 4.73.395 3.24.747-.84.709-3.26-.395-3.24zm17.533 68.53c-1.181-3.93-4.269-7.29-7.071-10.68.019-.03-.009-.1-.059-.04a33.053 33.053 0 002.916 7.5 42.078 42.078 0 005.229 6.9c.273.02.027-.28.018-.31-.323-1.17-.697-2.25-1.033-3.37zm144.683-196.77a23.628 23.628 0 005.572-1.58c1.787-.61 3.785-1.08 5.371-2.35a.784.784 0 01-.119-.07 29.229 29.229 0 00-10.824 4zM245.445 1319.7c-.8.89.748 2.33 1.734 2.98a3.255 3.255 0 00-1.734-2.98zm-25.184-102.37a.541.541 0 00-.144-.17c-.031.08-.108.17-.044.22a21.028 21.028 0 00.118 4.29 9.644 9.644 0 00.963 4.07c.355-2.98-.368-5.67-.893-8.41zm170.654-197.09c-2.769.89-5.489 1.74-7.626 3.53 1.065.3 2.058-.37 2.969-.76 1.957-.83 3.763-1.66 5.713-2.39a17.412 17.412 0 012.953-1.02c1.491-.24 3.051-.15 4.334-.93-.884-.28-3 .23-4.341.52-1.408.32-2.77.65-4.002 1.05zm-110.739 54.69a200.084 200.084 0 0120.59-19.35 184.844 184.844 0 0129.139-19.17 171.606 171.606 0 0138.718-15.05 59.939 59.939 0 007.953-2.29c2.749-1.08 5.092-2.26 7.954-2.28a48.942 48.942 0 007.4-.18c.242-.03.741.1.82-.33-1.221-.24-2.3.06-3.527-.21 2.247-1.03 4.78-.96 7.014-2.03a.192.192 0 00-.016-.25c-2.419-.21-4.539.72-6.906.71.833-.66 2.094-.71 2.759-1.37-32.214 7.49-63.358 18.89-91.532 41.58-4.687 3.78-9.247 7.95-13.836 12.3a95.194 95.194 0 00-13.24 14.75c2.409-2.14 4.534-4.53 6.71-6.83zm105.117-55.41c-2.41.41-5.7 1.86-8.248 1.54-.385-.05-.787-.27-1.183-.29a6.086 6.086 0 00-3.057 1.19c-.914.55-2.228 1.27-2.4 2.57 1.241.82 2.75.23 3.922-.2 3.744-1.38 7.417-3.11 11.015-4.62.037-.08.065-.16-.049-.19zm-41.493 13.49c-3.226 1.32-6.557 2.24-9.506 4.62a18.323 18.323 0 004.789-1.88 43.123 43.123 0 004.648-2.62c.069.04.14-.06.069-.12zm-5.5 7.64c1.912-.77 3.912-1.55 5.747-2.46.546-.27 1.522-.63 1.473-1.48a.784.784 0 00-.119-.07 10.754 10.754 0 00-4.268 1.37c-3.552 1.74-7.438 3.63-10.685 5.3 2.652-.35 5.282-1.63 7.859-2.66zm215.755 278.13a.109.109 0 00-.085-.13 24.036 24.036 0 00-5.553 7.04c2.074-1.59 3.86-4.25 5.645-6.91zm-.029-24.71c.547-.76 1.643-2.17 1.658-3.08a5.756 5.756 0 00-1.651 3.08zm-2.224-55.01a50.714 50.714 0 001.157-13.45 73.3 73.3 0 00-1.069-12.74 177.915 177.915 0 01-.211 23.03 7.184 7.184 0 00.13 3.16zm-2.233 82.19c.823-.77 2.128-1.73 2.485-3a7.608 7.608 0 00-2.478 3zm18.624-23.6a15.755 15.755 0 002.634-6.08c-1.627 1.25-2.917 4.4-2.627 6.08zm-15.236 8.87c.81.07 1.991-1.53 1.775-2.45-.877-.36-2.265 1.62-1.768 2.45zm-122.887 72.44a7.927 7.927 0 00-3.484-.44 7.8 7.8 0 00-3.1.29 22.776 22.776 0 005.171.53c.517-.01 1.205.06 1.413-.38zm104.53-43.25a8.48 8.48 0 003.225-2.48c-.2-.25-.718.27-.46-.03a29.12 29.12 0 003.176-3.24 232.884 232.884 0 01-19.565 15 57.506 57.506 0 0013.624-9.25zm32.242-50.56c-.06-.04-.119-.07-.178-.11-.923.68-2.135 2.42-1.652 3.49.932-.49 1.617-2.43 1.827-3.38zm-1.026 14.34a10.574 10.574 0 00-2.489 4.13 16.086 16.086 0 002.486-4.13zm-49.208 55.88a16.057 16.057 0 00-4.416 2.35 11.485 11.485 0 004.413-2.35zm44.91-49.24a11.685 11.685 0 00-2.728 3.99 14.138 14.138 0 002.725-3.99zm-25.127 37.38a13.371 13.371 0 003.7-3.34 13.964 13.964 0 00-3.703 3.34zm97.536-148.19c-1.926-17.05-6.771-32.99-12.94-48.67a8.355 8.355 0 01-.982-3.75 15.555 15.555 0 012.47 4.62c2.038 4.8 3.583 9.7 5.212 14.54 2.039 6.06 3.5 12.43 5.1 18.53a1.107 1.107 0 00.465 1c.582-1.5-.574-3.05.377-4.32 1.308 1.77.715 4.06 1.653 5.93.105-.19 0-.61.309-.55 1.259 1.34 1.152 3.33 2.1 4.58-1.084-5.1-2.364-10.24-3.906-15.31-1.533-5.04-2.769-10.2-4.34-15.24a185.319 185.319 0 00-12.375-29.41 156.15 156.15 0 00-33.936-43.94c-3.156-2.88-6.395-7.15-10.527-9.47-.366-.21-.822-.25-1.174-.45a23.543 23.543 0 01-2.149-1.68c-3.816-2.86-7.849-5.68-12.076-8.27-1.739-1.07-3.606-2.02-5.262-3.19-1.619-1.15-3.122-2.52-4.705-3.76-4.872-3.8-10.079-7.38-15.609-11.01a180.9 180.9 0 00-23.069-12.42c-15.014-7-29.489-10.98-43.459-13.83.1-.15-.124-.25-.348-.37a11.951 11.951 0 00-2.971-.78c-2.948-.53-5.981-.75-8.655-.97-2-.16-3.962-.7-5.826-.93-1.434-.17-2.9-.27-4.26-.32-.426-.02-1.1-.08-1.152.21a20.263 20.263 0 002.758.74 156.239 156.239 0 00-21.075 1.35c-2.307.31-4.611.67-6.916.87a152.174 152.174 0 00-27.387 4.52c-16.619 4.56-32.7 11.44-48.889 17.9a15.239 15.239 0 01-3.27 1.15c-.289.03-.727-.1-.98-.09a12.149 12.149 0 00-3.7 1.22c-3.736 1.62-7.219 3.83-10.8 5.23a28.659 28.659 0 006.821-6.61c.529-.7 1.943-2.57 1.352-3.1-.367-.32-1.5.29-2.065.57-9.9 4.94-19.481 12.12-28.56 19.27-10.066 7.92-19.894 16.35-28.823 26.91a9.264 9.264 0 001.134-2.01c-.821 1.07-2.513 2.53-3.094 3.93a.626.626 0 00-.062.54 174.784 174.784 0 00-17.073 23.94c-1.329 2.36-2.657 4.71-3.986 7.07a249.182 249.182 0 00-23.006 63.16c-1.092 4.87-2.224 10.08-2.818 14.99-.116.96-.622 4.4.125 4.71.367.15.715-.53 1.126-.31.778.41.117 2.42.413 2.92 1.971-8.93 3.343-17.5 5.238-26.31a36.58 36.58 0 012.681-8.97c.827.76-.04 2 .26 2.91.157.39.633.18.773.46a117.782 117.782 0 01-1.53 18.75 179.905 179.905 0 00-1.719 18.81 262.719 262.719 0 001.311 31.72 21.818 21.818 0 01.2 4.43c-1.455-1.34-1.637-3.02-2.631-4.48.031 3.95 1.2 7.75 2.345 11.45.571 1.86 1.139 3.72 1.706 5.56a20.273 20.273 0 01.789 2.82 11.049 11.049 0 00.576 2.78 7.83 7.83 0 01-.021-1.23c.3 1.52 1.135 2.88.654 4.61-1.949-.99-2.592-3.06-3.877-4.24 1.087 2.59 2.249 5 3.283 7.55 1 2.47 1.288 5.42 3.658 7.44a124.561 124.561 0 004.011 12.44 1.852 1.852 0 00-.978 1.45c-.223-.17-.123-.44-.364-.61.771 4.18 3.281 8.82 4.87 13.03-.105-.97-.758-2.06-.848-2.86 1.991 4.08 4.179 8.33 6.286 12.49a63.765 63.765 0 012.956 6.3c.845 2.24.6 4.4.516 6.96 2.955 3.07 7.041 5.73 9.513 9.44 1.084 1.63 1.484 3.44 2.551 5.33a17.79 17.79 0 001.727 2.56c.625.76 1.823 1.88 1.446 2.64a1.69 1.69 0 01-1.179.69 5.652 5.652 0 01-3.321-.58c-1.17-.58-2.257-1.62-3.47-1.73a6.131 6.131 0 001.846 2.63c1.576 1.69 3.3 3.32 4.726 4.99.709.83 1.6 1.66 1.624 2.75-.9.42-2.32-1.18-3.243-.86 1.1 1.93 3.139 2.82 5.062 3.96 6.888 4.09 13.259 8.97 20.642 12.15 2.824 1.22 5.788 2.05 8.6 3.27a8.257 8.257 0 013.435 2.17c.832 1.06.868 2.57 1.779 3.6 1.09-1.11 1.327-2.61 3.076-2.84 1.413-.19 3.442 1.04 4.53 1.83-1.385 2.61-2.027 5.56.245 7.93 1.729 1.79 3.49 1.07 5.6.71 2.832-.48 2.977.65 5.108 2.21 2.94 2.15 16.024 1.33 15.624.42-.864-1.96 2.969-4.81 3.159-6.9a6.834 6.834 0 012.571-5.21c1.254-1.06.2-2.52 1.09-3.68 1.05-1.36 2.918-.62 4.349-.52a3.875 3.875 0 00-.9-1.88c4.094-.95 2.223-17.07 3.488-18.74 2.292-3.04 4.845-12.81 1.958-14.51a28.216 28.216 0 01-3.834-2.35 3.854 3.854 0 01-.963-1.95c-.115-.61.092-1.27-.068-1.99-.338-1.54-1.995-2.36-2.345-3.58a9.849 9.849 0 01-.105-1.36 13.491 13.491 0 00-4.583-8.48c-2.916-2.74-7.519-5.12-10.191-8.38 2.409-2.25-.2-5.54-1.68-7.57a89.3 89.3 0 01-8.891-15.33c-.375-.81-1.357-2.67-.915-3.3.325-.47 1.208-.09 1.511-.57a3.362 3.362 0 00-.086-1.68 11.89 11.89 0 00-1.974-4.66c-.53.61-.028 1.34-.461 2.09a7.571 7.571 0 01-2.808-3.04c-1.1-2.25 1.247-6.06 1.408-8.27a20.162 20.162 0 00-.717-5.62c-.549-2.59-1.209-5.55-2.019-8.1-.294-.93-.855-1.71-1.139-2.62-.319-1.03.063-1.88.534-3.34.749-2.33.165-4.44-.057-6.37a19.267 19.267 0 01.006-3.25 41.7 41.7 0 00-.379-5.1 129.409 129.409 0 01-.657-15.58.55.55 0 00.886.12c1.454-.96.985-4.66-.616-5.24.354-2.45 1.242-4.75 1.8-7.14 1.113-4.73 1.7-9.33 3.83-14.38 1.038-2.47 2.562-4.92 3.245-7.59-1.167.85-1.993 3.02-3.278 3.42 0-1.01 1.039-2.26.994-3.31-.027-.62-.468-1.08-.3-1.72a6.663 6.663 0 01.79-1.4c1-1.82 1.425-4.23 2.381-6.47.935-2.2 2.235-4.39 3.344-6.64 2.263-4.6 4.561-9.25 7.107-13.58 1.666-.21 2.911-2.62 4.212-4.1a47.618 47.618 0 012.885-3c2.035-1.94 4.306-3.64 5.652-6.09-.926.01-1.617.86-2.334 1.47-2.175 1.85-4.476 4.4-6.613 5.68.879-1.32 1.76-2.63 2.634-3.97 1.483-.74 2.65-2.69 3.939-4.17-.67-.24-1.653.98-2.271.93 1.849-1.94 3.822-3.7 5.777-5.6a7.982 7.982 0 001.876-2.06 4.831 4.831 0 01.055-.94 9.8 9.8 0 011.795-1.22c3.269-2.23 6.037-4.48 9.072-6.66a15.558 15.558 0 013.641-2.23c-.721.9-1.563 1.33-2.261 2.32a43.814 43.814 0 005.844-3.05c5.861-3.24 12.054-6.1 17.641-9.47-3.334.87-6.68 2.6-10.09 3.54a10.018 10.018 0 00-3.347 1.43c-.837.66-1.447 1.82-2.608 1.95-.228-1.76 1.954-2.56 3.236-3.2 1.25-.63 2.539-1.14 3.18-2.26-.758-.53-1.426.31-1.893.26 1.206-1.44 2.984-2.06 4.478-2.88 1.566-.85 3.059-1.75 4.614-2.55a74.126 74.126 0 009.227-5.11c-.05-.36-.612-.05-.655-.38 3.135-2.57 6.932-2.61 10.365-4.03a13.538 13.538 0 00-2.225.14 122.879 122.879 0 0114.506-4.34 23.183 23.183 0 015.158-.28 10.924 10.924 0 00-1.362-.4c3.869-.81 8.029-1.28 12.076-1.71a18.175 18.175 0 014.084-.35c2.3.31 4.543 1.35 6.94 1.34-1.519-.75-2.866-.83-4.374-1.53 1.826-.32 3.879.22 5.988.78 1.429.37 3.166.65 4.2 1.83.024.36-.6.89-.44 1.2a5.756 5.756 0 002.809.93 6.65 6.65 0 002.751.33c-.641-.61-1.971-1.04-2.456-1.69a7.227 7.227 0 013.1.12 23.358 23.358 0 016.616 1.64c1.195.53 2.3 1.33 3.638 1.99 4.636 2.27 9.629 4.16 14.069 6.85-1.013-.02-2.241-.87-3.219-.77 7.543 4.8 14.889 9.93 22.421 14.55-3.55-3.07-7.094-6.99-11.993-9.68-.633-.35-1.47-.43-1.845-1.09 2.1-1.62 5.252 2.78 7.735 3.03.281-.73-.681-1.12-1.135-1.65 3.951.99 8.877 2.3 12.563 5.72 1.072 1 1.775 2.34 2.893 3.17a8.015 8.015 0 002.646 1.08 7.64 7.64 0 011.547.91c2.728 1.96 4.667 4.59 7.072 6.46a43.768 43.768 0 00-5.131-5.96c.8.34 1.45 1.21 2.151 1.11a22.7 22.7 0 00-4.78-4.04c-1.874-1.3-3.695-2.7-5.378-3.83a3.687 3.687 0 011.1 1.14c-4.142-2.17-7.892-5.07-11.866-7.67a133.056 133.056 0 00-36.807-16.47 83.46 83.46 0 0110.12 1.19 24.288 24.288 0 013.44.65 38.631 38.631 0 014.407 2.03c7.717 3.82 15.135 8.14 22.719 12.62a124.641 124.641 0 0123.012 17.58c3.23 3.11 6.1 6.42 9.019 9.48a43.39 43.39 0 013.14 3.15 1.879 1.879 0 001.054 2.5c.441-.02.322-.97.788-.84 2.278 1.13 3.248 3.33 4.932 4.62-.521-1.31-1.892-2.4-2.055-3.81 2.244.77 3.209 2.28 4.211 3.79 1.994 3.01 3.427 6.3 5.228 9.02a41.636 41.636 0 01-1.6-4.2 206.544 206.544 0 0111.8 25.09c3.219 8.59 5.5 17.36 7.949 26.14a42.137 42.137 0 00-1.3-7.26 176.2 176.2 0 00-6.241-21.16c7.612 14.87 11.01 31.05 11.7 47.78a142.367 142.367 0 01-1.144 25.81 137.294 137.294 0 01-4.521 20.39 50.721 50.721 0 00-2.007 6.94c1.223-2.02 1.721-4.28 2.746-6.42.12 1.62-.783 3.51-.482 5.08a24.388 24.388 0 001.765-5.94c1.455-6.06 2.839-11.89 3.716-17.71 1.166-7.74 1.45-15.33 1.889-22.76 1.229 8.48.358 17.54-.389 26.57 3.477-18.74 2.121-36.51-1.267-53.47a157.24 157.24 0 00-14.932-43.02c-.784-1.48-1.714-2.92-2.454-4.38a1.865 1.865 0 01-.342-1.5c1.736 1.8 2.77 4.13 3.91 6.29 2.847 5.4 5.779 10.73 8.094 16.32a13.506 13.506 0 001.469 3.31c.165.18.511.34.7.57a12.015 12.015 0 011.147 3.04c.952 2.83 1.946 5.65 2.89 8.32l.336.21c.106.54.2 1.07.3 1.59a97.64 97.64 0 004.382 11.45 6.879 6.879 0 00-.734-3.76c-.457-1.26-1.227-2.35-1.638-3.57-.816-2.42-1.353-4.96-2.09-7.41-1.291-4.3-2.585-8.73-3.7-12.99a2.881 2.881 0 01-.231-1.85c2.626 3.96 4.144 8.46 5.621 12.83a152.571 152.571 0 014.523 16.61c-.163-2.06-.369-4.12-.638-6.18a26.157 26.157 0 01.866 4.19c.1.36-.028-.32.279-.34a7.612 7.612 0 01.224 3.82c.179 1.41.317 2.81.412 4.19.718 3.85 1.338 7.71 1.892 11.58a44.718 44.718 0 001.1 6.91c.061-6.4-.958-12.47-1.931-18.52a23.232 23.232 0 01-.621-6.22c1.869 2.66 1.917 6.06 2.6 9.17.348 1.58.974 3.03 1.395 4.57 2.082 7.62 2.566 15.73 2.538 23.77.055-.07.127-.1.068.03v.4c.069-.22.134-.44.2-.66.042-.02.083-.03.124-.05a14.338 14.338 0 01-.418 4.83 130.918 130.918 0 01-4.288 26.03 28.633 28.633 0 00-1.128 4.53c-.021.33.089.67.064 1.02a17.4 17.4 0 01-.9 3.28c-2.066 6.86-5.5 13.77-8.9 20.98-.526 1.12-1.32 2.41-.841 3.32.934-.23 1.6-1.28 2.191-2.2a32.47 32.47 0 001.8-3.32c3.217-6.57 4.818-12.95 7.361-18.96a60.554 60.554 0 01-3.271 11.14 109.184 109.184 0 01-4.993 11.67c-2.009 3.97-4.472 7.84-6.869 11.62a145.2 145.2 0 01-15.016 19.31c-2.626 2.95-5.206 5.85-7.828 8.54-5.263 5.38-11.212 9.24-16.651 13.06 1.319-.34 3.5-1.76 4.936-2.28a72.773 72.773 0 01-17.953 10.59 1.221 1.221 0 00.964-.16c1.11-.4 2.413-1.14 3.388-1.09-6.335 4.43-13.212 7.82-19.677 11.12 17.543-4.35 32.544-18.4 48.46-28.95-1.958 2.38-4.267 4.45-6.088 6.71 1.983-1.75 4.2-3.63 6.271-5.63 1.545-1.49 3.024-3.2 4.605-4.51.479-.39 1.009-1.09 1.743-.84-.584 2.46-2.717 3.79-3.912 5.81a14.176 14.176 0 003.43-2.84c2.2-2.22 4.308-5.14 6.577-7.16a6.822 6.822 0 011.846-1.02 6.333 6.333 0 001.719-1.5 85.389 85.389 0 006.19-8.45q3.066-4.32 6.2-8.6a82.987 82.987 0 01-11.293 19.32 169.435 169.435 0 01-27.174 28.21c-3.551 2.92-7.329 5.57-10.851 8.13a30.951 30.951 0 00-3.533 3.03 21.866 21.866 0 01-3.24 2.22c-1.119.72-2.267 1.47-3.325 2.1a190.775 190.775 0 01-34.6 15.77c-4.742 1.66-9.516 3.03-14.355 4.35a209.894 209.894 0 01-52.253 7.54 68.206 68.206 0 00-7.612.13c14.543 1.16 28.8-.38 42.645-2.73a213.475 213.475 0 0040.456-11.1 189.2 189.2 0 0038.268-19.46c9.213-6.2 18.034-14.35 26.555-22.89 2.488-2.49 4.918-5.46 7.575-7.38a1.976 1.976 0 01.812-.44 68.878 68.878 0 014.036-5.87 196.788 196.788 0 0022.888-44.82c1.607-4.48 3.147-8.94 4.436-13.51a174.1 174.1 0 006.4-35.36c.079-1.16.1-2.46.143-3.71a19.143 19.143 0 00-.009-3.7 28.345 28.345 0 01-.5-4.36c-.116-4.1-.177-8.45-.574-12.76a184.785 184.785 0 01-.226-19.62c-.116-.76-.237-1.51-.36-2.26a59.488 59.488 0 01-1.582-8.44 128.687 128.687 0 00-10.2-30.54c-.483-.98-1.2-1.92-1.577-2.92-.348-.94-.478-1.91-.833-2.77-2.491-6.05-6.92-11.23-10.335-17.05a83.381 83.381 0 00-6.21-9.62 108.944 108.944 0 00-7.942-8.67c-11.334-11.44-23.159-22.18-38.131-31.53a141.163 141.163 0 00-53.574-19.75c-17.261-2.9-33.363-2.98-48.793-1.95-1.017.06-2.03.3-3 .26-1.838-.08-4.034-.94-5.656.01 6.434-3.66 16.154-1.82 24.258-2.55-2.021-.85-3.633.29-5.944-.7a2.014 2.014 0 011.463-.41 20.456 20.456 0 015.389.25c2.469.39 5.088 1.16 7.351.72.543-.1 1.2-.56 1.7-.6a15.819 15.819 0 011.778.23c2.663.18 5.688.16 8.364.08 1.152-.04 2.335-.26 3.24-.19a51.889 51.889 0 015.41 1.25c11.538 2.36 23.856 4.27 35.208 9.25 1.231.54 2.861 1.5 3.765.88a169.012 169.012 0 0174.574 61.26c1.16 1.7 2.383 3.52 3.5 5.34a50.2 50.2 0 013.207 5.43c.432.98.386 2.15.8 3.12a17.575 17.575 0 001.581 2.12 37.762 37.762 0 016.54 16.77c-.472.33-.333-.74-.978-.76a13.8 13.8 0 002.3 6.82c.409-.91-.223-1.77-.57-2.51a6.036 6.036 0 01-.835-2.5c.194-.4.323.81.845.9.157-.73.05-1.31.251-2.06.292-.18.3.53.42.85 2.013 5.27 4.408 10.92 4.013 17.46-.046.09-.1.02-.079-.02-1.042-4.33-1.827-8.79-3.031-13.04-.538 3.22.671 6.28 1.141 9.2.166 1.03.062 2.13.274 3.13.264 1.24 1.3 2.31 1.972 3.32a28.325 28.325 0 00.278 4.91 6.379 6.379 0 00.307.64c.041-.56.062-.59.047.09-.017-.03-.031-.06-.047-.09-.018.24-.039.57-.062.98.658 3.97 1.618 7.79 1.075 12.36a142.979 142.979 0 012.352 24.74 171.591 171.591 0 01-5.448 40.17 196.9 196.9 0 01-13.447 37.47c-5.747 12-12.371 23.91-21.323 34.62a.571.571 0 01.306.08c-.941 2.3-2.778 2.84-3.9 5.08 4.211-2.74 7.88-7.56 11.811-11.37a9.328 9.328 0 00-.834 1.62c-.142.4.528.03.348.36-1.634 2.28-3.534 3.54-5.249 5.51.643.09 1.4-1.07 2.212-.96a19.646 19.646 0 01-5.78 6.07c-.029.3.421-.15.391.15a101.151 101.151 0 01-12.794 13.96 153.791 153.791 0 01-13.523 11.18 211.058 211.058 0 01-21.062 13.71c-2.384 1.38-4.894 2.55-7.168 4.13a4.838 4.838 0 002.262-.78 88.094 88.094 0 006.909-3.39c8.15-4.41 16.206-9.74 24.082-15.03 2.474-1.91 4.973-3.88 7.333-5.97 4.165-3.68 8.237-7.7 12.442-11.78 16.462-15.98 30.515-37.6 41-64.1 5.252-13.28 8.614-27.68 11.34-41.04a162.522 162.522 0 01-10.2 41.59 184.44 184.44 0 01-59.865 80.01.921.921 0 01.65.07 16.389 16.389 0 01-3.707 3.9 89.925 89.925 0 01-7.978 5.84 21.967 21.967 0 00-3.874 3.07 36.728 36.728 0 007.238-4.25c4.658-3.34 9.574-6.79 13.864-11.22 2.14-2.2 4.494-4.2 6.744-6.33 4.424-4.19 9.016-8.43 13.361-13.14 3.8-4.12 7.651-8.49 11.315-12.89a3.787 3.787 0 011.695-1.6 61.623 61.623 0 01-7.91 12.06c-2.847 3.65-5.741 7.12-8.73 10.28-5.938 6.26-12.441 11.36-18.566 16.32-3.23 2.61-6.148 5.37-9.35 7.71-9.605 7.02-19.607 12.26-29.659 17.56a10.675 10.675 0 003.046-1.04c1-.45 1.984-.94 2.947-1.43 5.952-2.99 11.714-6.27 17.532-9.7a232.387 232.387 0 0019.874-13.43c.841-.62 1.808-1.56 2.982-1.49a7.507 7.507 0 01-2.417 2.88 104.555 104.555 0 01-8.467 6.85c-3.793 2.82-7.863 5.16-11.534 8.21.38.28 1.172-.49 1.6-.02a13.657 13.657 0 01-4.064 3.68c-1.45 1.03-2.97 1.94-4.445 2.82a75 75 0 00-8.913 5.54c-.065.18.486.03.194.35-2.918 2.63-6.338 3.34-9.4 5.42 6.557-2.15 12.919-5.47 19.351-8.71.582-.29 1.16-.6 1.737-.9-8.841 4.89-18.259 8.48-26.861 13.91a204.431 204.431 0 0040.758-21.73 33.755 33.755 0 013.384-1.65c.332-.02.391.51.748.36 3.372-4.17 7.619-6.62 11.506-9.85a196.521 196.521 0 0026.837-27.82c-.6.61-1.216 1.23-1.839 1.83q.945-1.17 1.879-2.37.908-.9 1.828-1.8c.534-.68 1.068-1.36 1.6-2.05.828-1.07 1.475-2.5 2.791-2.98-1.516 3.45-3.945 6.2-6.123 8.89a264.8 264.8 0 01-20.168 22.12c1.362.27 2.483-2.04 4.013-1.77-1.007 2.18-2.892 2.66-4.195 4.34.049.32.66-.29.6.19-.615 1.76-2.16 2.64-2.856 4.08 5.391-4.83 10.281-10.36 15.427-15.82 2.535-2.68 5.143-5.31 7.621-8.16a190.774 190.774 0 0021.3-30.87 147.3 147.3 0 0010.114-22.86 170.012 170.012 0 005.95-21.67 185.379 185.379 0 004.108-41.19c-.029-3.32-.434-6.72-.152-10 .291-3.39.326-6.75.411-10.16a9.488 9.488 0 00.809 1.94c.015 6.69-.234 13.74-.617 20.52-.026.45-.259 1.07.054 1.17a89.044 89.044 0 001.152-13.86c.154-4.63.266-9.2.221-13.77-.077-7.97-.629-15.86-1.389-23.56-.106-1.08-.406-2.36.168-3.4a7.277 7.277 0 011.281 3.36c1.276 5.98 1.515 12.14 2.01 18.25a49.647 49.647 0 00.8 7.3c.283-.46.124-1.28.671-1.48a12.231 12.231 0 011.086 5.11c.46 5.37-.1 10.97.338 16.29.247.3.247-.34.5-.03.719 3.52-.348 7.54-.135 11.21 1.235-5.52 1.5-11.23 1.957-16.56.707-8.19.714-16.19.837-24.28a8.13 8.13 0 01.192-2.73c.207-.32.526-.21.71-.55a4.686 4.686 0 00-.657-1.93c-.789-2.25-.919-5.14-1.208-7.7zm.884-18.35c.061.12.121.23.182.35a33.053 33.053 0 011.139 5.01 15.371 15.371 0 01-1.475-5.36.4.4 0 01.151 0zm-55.57 121.96a41.634 41.634 0 01-3.754 6.72 4.6 4.6 0 01.563-1.71c.167-.54.283-1.17.44-1.8.574-2.29.234-4.65 3.471-5.65.222.89-.384 1.7-.723 2.44zm9.517-109.82c.459 1.69.975 3.39 1.3 5.01a13.087 13.087 0 01.407 4.18 51.312 51.312 0 01-2.023-7.4zm-1.715 3.72h.5a5.049 5.049 0 00.094 1.15c.184 1.93.749 3.98 1.1 5.98.475 2.67.77 5.39 1.092 7.87-.589-1.86-.961-3.86-1.43-5.86a29.723 29.723 0 00-.579-3.37c-.168-.87-.564-1.6-.73-2.49-.1-.51-.031-1.77-.5-2.28.153-.34.303-.67.45-1zm-2.953 2.3c.021.15 6.1 42.5.265 57.53.913-6.79 1.98-13.95 1.9-21.24-.582.74-.7 2.15-1 3.22a1.108 1.108 0 01-.4.84 65.71 65.71 0 001.37-19.61c-.373 1.4-.436 3.85-.889 5.06-.092-6.26-2.394-23.15-1.249-25.8zm-.366 11.18a12.568 12.568 0 01-.65-4.65 12.108 12.108 0 01.647 4.65zm-107.04-138.63c-.6.8-1.933.31-2.842.05-.957-.28-1.7-.7-2.569-1.03 1.632-.3 3.479.67 5.411.98zm-50.9-4.87a29.384 29.384 0 018.1.07l.08.03c.16.26-.47.13-.851.17-2.5.2-5.544.55-8.284-.05a1.212 1.212 0 01.955-.22zM576.5 1343.75a6.235 6.235 0 01-2.745 2.05c.068-.8.943-1.46 1.669-2.07a31.71 31.71 0 012.407-1.82l.123-.06a4.992 4.992 0 01-1.454 1.9zm5.013-221.28a3.276 3.276 0 01-1.6-2.57 2.674 2.674 0 011.599 2.57zm-32.777-34.32a30.486 30.486 0 0112.939 12.2c-3.806-3.18-7.428-7.22-11.542-10.58-.501-.4-1.528-.72-1.398-1.62zm-39.982-23.93c-1.5.43-3.038-.56-4.506-1.3s-2.982-1.78-4.42-2.35c-1.657-.65-3.561-1-5.381-1.59-5.166-1.65-10.767-3.19-16.3-4.55 10.184 1.23 21.284 5.5 30.606 9.79zm-147.218 1.63a25.8 25.8 0 012.66-.82c.15.02.138.13.052.11a12.568 12.568 0 01-2.8 1.49 11.272 11.272 0 01-2.98.98c0-1.22 2.057-1.39 3.067-1.76zm36.265 1.13c-2.791 1.28-6.069 1.57-8.99 2.58a13.4 13.4 0 014.285-1.72c1.533-.43 3.154-.76 4.679-1.04.203.06.076.09.025.18zm39.887-9.89c-1.292-.13-2.628-.31-3.821-.45 2.294-.22 4.869.14 7.222.05-.802.82-2.21.52-3.402.4zm36.724 4.22c-.859-.22-2.194-.49-3-.8.86-.73 2.4-.02 3.61.29 1.377.36 3.052.8 4.322 1.07-1.022.76-3.099-.08-4.933-.56zm126.821 144.25a11.117 11.117 0 01.275-1.6c.473-5.99-2.106-11.63-2.581-17.26a15.324 15.324 0 00-.379-3.34c-.28-.89-1.259-1.83-.755-2.47.079.02.159.05.238.07 1.845 6.48 3.718 12.78 4.159 19.92.062 1-.1 2.07.008 3.12.151 1.47.687 3 .956 4.51a44.49 44.49 0 01.445 14.68c-1.183-5 .19-11.01-1.5-15.74a11.519 11.519 0 01-.867-1.89zm1.327 40.92c.065-.3.182-.06.053.11-.415 2.47-.335 5.58-1.719 7.73-.458-2.25 1.006-5.06 1.665-7.84zm-3.8 19.17c.187-1.74-.09-3.36.616-5.5.445-1.35 1.084-2.36 1.722-3.81-.674 5.62-2.789 12.26-4.541 18.22-.643-2.59 1.896-6.08 2.199-8.91zm-3.356 10.76c.5 1.4-.29 3.51-1.144 4.97-.26-1.66.976-3.45 1.14-4.97zm10.756-23.48a4.5 4.5 0 01-.627 2.18c-.017-2.61.429-5.19.628-7.78.25-3.26.453-6.58.581-9.92a193.832 193.832 0 01-5.482 32.1 182.359 182.359 0 01-25.447 55.93 199.443 199.443 0 0019.586-39.05 182.143 182.143 0 0011.338-62.38c-.006-.12-.008-.24-.014-.37-.106-2.21-.289-8.05-.627-14.54a165.72 165.72 0 00-25.209-74.53c-1.036-1.62-2-3.52-3.8-4.46-8.41-13.05-19.614-24.68-32.159-35.63.426 1.21 2.361 1.64 2.532 2.98-4.879-2.71-5.845-7.62-12.213-9.37-1.4-1.26-2.292-2.78-3.987-3.89-.523-.06.028.79-.4.66-1.287-1.09-2.682-2.04-3.964-3.17-1.214-1.07-2.5-2.34-4.206-2.72-.54-.06.227.73-.323.7a7.407 7.407 0 01-2.4-2.31c-12.673-5.18-24.961-11.04-38.681-14.68 1.805-.53 4.89 1.54 6.869 1.37-6.895-3.19-14.192-4.49-21.237-5.38-7.064-.89-13.9-2.08-20.51-2.55a168.345 168.345 0 00-55 5.46c-16.885 4.43-32.5 12.15-47.071 21.54-.1-.08.032-.07.054-.17.17-.22 16.47-11.13 25.659-15.1a7.462 7.462 0 001.865-1.08 11.725 11.725 0 011.68-1.32 22.711 22.711 0 012.927-1.09 173.659 173.659 0 0146.5-9.86c17.911-1.29 36.989.63 57.376 5.3a162.5 162.5 0 0154.981 24.5 168.472 168.472 0 0137.336 35.73 166.5 166.5 0 0127.889 55.26c7.291 14.86 6.523 18.74 7.838 26.62.483 2.88.793 5.77 1.4 8.6 1.209 5.69 1.281 11.35 1.411 16.75a33.625 33.625 0 01-.566 7.9 19.471 19.471 0 01-.343-4.65 82.066 82.066 0 00-.317-9.31 14.771 14.771 0 00-1.108-4.96c-.732.4-.5 1.51-.5 2.27-.072 9.1-.208 18.38-1.165 27.23-.276 2.42-.624 4.82-1.098 7.19zm3.454-7.9a23.452 23.452 0 01.808-7.28.854.854 0 01.215-.03 16.634 16.634 0 01-1.027 7.31zm.691 7.98c-.654 3.1-1.17 6.31-2.661 9.14a14.281 14.281 0 01.425-4.63 19.6 19.6 0 01.977-4.45 8.013 8.013 0 01.454 1.18 10.752 10.752 0 00.727-3.75c1.023-8.74 2.1-17.8 2.424-26.86.1-.07.155 0 .092.03.693 6.82-.054 13.45-.788 19.86-.369 3.19-.996 6.35-1.655 9.48zm3.254-27.02c-.121-3.73-.741-7.47-1.073-11.37a9.074 9.074 0 012.032-6.01l.188.12a8.025 8.025 0 00-.05 2.28 208.627 208.627 0 01-.126 22.62c-.446 6.35-.986 12.58-1.857 18.81a76.245 76.245 0 01-.477 3.06 9.747 9.747 0 01-.846 2.93c1.268-10.66 2.571-21.23 2.205-32.44zm-31.982 122.15a29.83 29.83 0 015.066-5.36 35.208 35.208 0 01-5.07 5.36zm33.951-73.5a224.862 224.862 0 01-7.532 23.14c-.458-.15-.033-.77-.392-1.2a34.485 34.485 0 00-2.643 5.64 183.846 183.846 0 01-21.652 38.07c4.356-6.92 8.5-13.94 12.273-21.1a5.987 5.987 0 00.81-1.55c2.263-4.37 4.383-8.8 6.315-13.31.039-.08.077-.18.116-.27a18.548 18.548 0 002.919-6.42c-.246.39-.483.8-.716 1.21 2.193-5.25 4.284-10.53 6.165-15.89a30.741 30.741 0 001.7-5.08c.2-.63.407-1.25.6-1.88a55.557 55.557 0 013.4-9.47 36.034 36.034 0 01-1.367 8.11zm6.986-40.72c-.336 3.4-.6 6.81-1.072 10.17-.94 6.73-1.778 13.45-3.673 19.71.013-3.49 1.337-6.53.825-10.2-.1-.4-.285.11-.4-.03-.255-3.39 4.014-48.5 4.014-48.5.179 1.38.34 2.75.473 4.11.462 4.74.163 21.35-.171 24.74zm.55-32.26c0-.02-.01-.05-.015-.08a4.371 4.371 0 00-.582.27l-.79-.52a199.685 199.685 0 00-8.317-32.8c-.409-1.21-1.21-2.47-.869-3.75 1.955 3 8.822 27.71 10.558 36.8.075-.01.089.01.011.08zm1.716-21.15c-1.2-3.18-2.115-6.58-3.046-9.89-.3-1.07-.425-2.2-.751-3.22-1.122-3.55-3.149-6.79-4.149-10.41.093-.02.127.12.184.21a43.885 43.885 0 01-1.936-5.16l.105-.15c1.418 2.83 2.578 5.92 3.96 8.85a.4.4 0 01-.306-.3 97.649 97.649 0 016.109 16.87c-.641-.63-.828-1.93-1.3-2.83.321 1.99.897 4.07 1.126 6.03zm1.649 1.58a97.5 97.5 0 012.648 9.85 7.7 7.7 0 01.473 3.14c-2.11-4.69-2.25-8.72-3.125-12.99zm3.218 34.11a31.314 31.314 0 01-.173-7.56 34.623 34.623 0 01.169 7.56zm1.454-7.64a4.491 4.491 0 01-.663-2.18c-.295-2.14-.359-4.43-.485-6.54a19.677 19.677 0 011.147 8.72zm-128.048 144.81c-4.476 1.91-9.274 3.58-13.532 5.57a90.31 90.31 0 0013.532-5.57zm-.355-231.8a19.8 19.8 0 004.74 3.69c-.492-1.32-2.062-2.66-3.613-4a29.861 29.861 0 00-5.106-3.75c-.039-.02-.076-.03-.095.02a32.651 32.651 0 004.076 4.04zm-14.124 249.32a2.118 2.118 0 001.341-.83 63.291 63.291 0 00-13.01 2.95 27.8 27.8 0 0011.669-2.12zm-57.7-272.93a4.347 4.347 0 003.076.03 5.129 5.129 0 00-3.075-.03zm72.366 263.24a9.406 9.406 0 00-3.732 1.69 9.867 9.867 0 003.723-1.53c.014-.06.069-.12.01-.16zm35.982-199.44a5.5 5.5 0 00-1.5-2.83 4.69 4.69 0 001.501 2.83zM533.8 1329.7c5.47-3.65 5.535-4.69 10.567-9.91a103.028 103.028 0 0014.4-18.21 56.605 56.605 0 01-5.232 6.64 1.834 1.834 0 01-.52 1.18 22.338 22.338 0 01-3.307 3.76 4.535 4.535 0 01.956-1.83c-.979 1.05-1.954 2.09-2.9 3.15-1.244 1.39-2.5 2.79-3.751 4.12-5.013 5.32-5.155 6.46-10.213 11.1zm-93.711-234.01a21.356 21.356 0 00-6.091-.6 4 4 0 011.437.69c.35.35.272.82.584 1.08.979.82 2.947.71 4.223.95a81.806 81.806 0 018.691 2.46c1.411.43 2.862 1.05 4.207.7-3.364-2.34-6.976-2.32-10.558-4.21-.409-.79-1.544-.87-2.493-1.07zm61.1 271.12a21.015 21.015 0 007.039-3.47.784.784 0 00-.119-.07 130.5 130.5 0 00-14.335 5.58 40.629 40.629 0 007.414-2.04zm-54.664 28.7a4.851 4.851 0 00-1.817.55 43.81 43.81 0 008.023-.87c.842-.15 1.89-.13 2.544-.85-2.713-2.13-4.592-.43-6.923.46-.634.24-1.252.52-1.828.71zm26.677-21.28a16.932 16.932 0 00-4.966 1.21 21.251 21.251 0 005.015-1.02c.035-.07.063-.15-.051-.19zm-30.721 4.67a.961.961 0 00.82-.33 7.491 7.491 0 00-4.06.45 13.406 13.406 0 003.239-.12zm160.9-192.66q.984 4.485 1.73 9.08a44.72 44.72 0 00-1.566-9.18c-.11-.09-.145 0-.167.1zM330.3 1170.35a2.179 2.179 0 01-.222.12 4.985 4.985 0 00-1.576 1.67c-.616.94-1.291 2.29-.694 2.92 1.285-.65 2.155-3.17 2.636-4.54a.554.554 0 00-.144-.17zm4.912-12.36a8.866 8.866 0 00-1.572 2.64c.71-.12 1.632-1.94 1.575-2.64zM564.944 1182c-.209 1.4.5 2.69 1.031 3.94a14 14 0 001.462 2.89c-.573-2.36-.8-4.82-2.271-6.94a.51.51 0 01-.222.11zm73.056 7.92c-.641.87-.365 2.14-.184 3.14s.277 2.11.926 2.58a8.761 8.761 0 00-.623-5.65.7.7 0 01-.119-.07zm-298-38.86c-.409.35-1.343 1.15-1.184 1.82a1.92 1.92 0 001.176-1.82zm234.955 121.82a8.151 8.151 0 001.082-3.74 7.162 7.162 0 00-1.09 3.74zm-5.437-15.97c-.7 1.45-1.086 3.25-.479 4.51a11.8 11.8 0 00.471-4.51zm9.852-12.51c-.072.22-.154.44-.244.65a6.839 6.839 0 00-.168 3.15 8.185 8.185 0 00.404-3.8zm22.175-65.73q.873 3.27 1.622 6.6a16.243 16.243 0 00-1.424-6.98.949.949 0 00-.206.38zm38.344 32.11a8.348 8.348 0 00.534 2.99 50.855 50.855 0 00-.789-12.81 44.525 44.525 0 00.247 9.82zm-37.194 127.15c2.589-3.89 5.667-7.51 7.377-12.74-2.4 4.37-5 8.34-7.429 12.63-.138.17-.021.41.044.11zm-105.224 58.15a213.174 213.174 0 01-30.7 9.35c-1.41.33-3.091.5-4.046 1.79 24.158-5.36 47.144-13.82 66.68-28.11a185.116 185.116 0 01-31.942 16.97zm20.7 1.99c-5.717 3.22-13.049 5.06-18.454 8.91 3.183-1.22 6.408-2.4 9.5-3.83s6.383-2.64 8.946-5.08zm-173.497-235.32a2.292 2.292 0 00-1.169.06c-1.638.6-3.959 3.67-4.9 6.42-.7 2.05-.843 5.09.843 5.62s4.061-2.44 4.862-5c.5-1.58.029-3.3.292-4.54.224-1.04 1.106-2.27.072-2.56zm-3.538 14.71a1.62 1.62 0 00-1.421-2.07 2.37 2.37 0 00-2.031 2.09c-.123 1.8 3.021 1.78 3.452-.02zm-10.765-2.65c.011-.36-.686-.6-.822-.18a1.024 1.024 0 00.555.45c.055-.16.251-.03.267-.27zm8.283 4.78c-1.433 0-1.984 2.63-.628 2.91 1.208.25 1.691-2.41.628-2.91zm-8.418 13.73c.691.46.456 1.41 1.024 1.94 1.693-.09 3.447-3.23 2.924-5.01-.921-3.15-4.184.71-3.948 3.07zm-1.444 15.31a1.67 1.67 0 002.532-1.49c-.689-1.88-3.465-.17-2.532 1.49zm-1.187 21.36c.965 1.68 4.121 1.19 4.729-.4.568-1.5-.354-2.77-2.239-3.06a2.073 2.073 0 00-1.541.12 2.962 2.962 0 00-.949 3.34zm14.435 6.18c-.472-.22-1.216-1.07-1.46-.13.664.12 1.131.68 1.46.13zm-12.923 25.8c1.4.35 1.263 1.72 2.3 2.09 1.5.55 2.578-1.41 3.81-2.13-.049-1.81 1.023-3.14.823-4.55a13.935 13.935 0 01-.576-1.44c-.017-.72.408-1.58.332-2.29-.221-2.08-3.21-6.3-6.315-5.38-1.264.38-3.34 3.11-3.057 5.15.068.48.566.82.63 1.28.083.58-.254 1.24-.224 1.97.08 2 1.92 3.39 2.277 5.3zm5.7-93.81c.9-3.3 3.629-5.96 4.038-9.37-1.301 2.92-4.042 6.61-4.037 9.37zm-16.013 41.02c-.443 7.68-2.866 16.36-1.3 23.02-.213-6.82 1.924-16.03 1.301-23.02zm-66.092-109.85c1.069-.31 2.078.02 3.254-.66a10.94 10.94 0 003.592-4.12c.056-1.88.179-4.3-1.428-5.48-5.478-2.27-11.571 8.33-5.417 10.26zm-7.614 10.05a6.964 6.964 0 001.948-.65 8.868 8.868 0 002.314-2.77c.125-1.15.313-2.62-.576-3.21-3.117-.95-7.216 5.94-3.684 6.63z" transform="translate(-220 -1012)" fill="#ddd7c9" fill-rule="evenodd"/></svg>