<svg xmlns="http://www.w3.org/2000/svg" width="238.316" height="58.894" viewBox="0 0 238.316 58.894">
  <path id="Path_378" data-name="Path 378" d="M-106.392-20.592c.182-.078.442-.182.442-.416,0-.39-.52-.364-1.326-.442-.52-.052-2.236-.182-2.7-.182-.6,0-.806.234-.806.806,0,.884.1,2.054.1,3.094A17.2,17.2,0,0,1-113.62-7.358a19.351,19.351,0,0,1-6.24,5.564c-.286.156-.546.312-.546.6,0,.858,1.638,2.886,2.548,2.886.7,0,3.016-1.9,3.64-2.444a19.694,19.694,0,0,0,5.3-6.994c.052-.182.156-.416.364-.416.234,0,.364.234.442.416a19.649,19.649,0,0,0,3.926,5.824c.676.7,3.8,3.64,4.654,3.64.91,0,2.574-1.95,2.574-2.964,0-.26-.234-.416-.468-.546-5.746-3.354-9.256-8.684-9.256-15.678V-20.1A.664.664,0,0,1-106.392-20.592Zm17.654,3.9c-.364-.026-.728-.1-.728-.546a6.113,6.113,0,0,1,.208-1.04c.13-.52.156-.676.624-.884.234-.1.52-.286.52-.546s-.208-.338-.7-.468c-.676-.182-2.964-.806-3.354-.806-.364,0-.39.286-.442.65A19.67,19.67,0,0,1-96.2-11.388a1.508,1.508,0,0,0-.39.754c0,.546,1.274,1.118,1.742,1.3.6.234.962.442.962.962v.884c0,.884.078,1.144.806,1.144,1.066,0,2.158-.052,3.224-.052h2.444a.727.727,0,0,1,.728.728v2.262a.744.744,0,0,1-.728.728h-4.5c-1.17,0-2.34-.078-3.51-.078-.7,0-.754.286-.754,1.17V-.13c0,.884.052,1.17.754,1.17,1.17,0,2.34-.052,3.51-.052H-77.3c1.17,0,2.34.052,3.51.052.7,0,.754-.286.754-1.17V-1.586c0-.884-.052-1.17-.754-1.17-1.17,0-2.34.078-3.51.078h-4.55a.744.744,0,0,1-.728-.728V-5.668a.727.727,0,0,1,.728-.728h2.5c1.092,0,2.158.052,3.25.052.728,0,.806-.286.806-1.144v-1.4c0-.832-.052-1.144-.78-1.144-1.092,0-2.184.078-3.276.078h-2.5a.744.744,0,0,1-.728-.728v-1.638a.744.744,0,0,1,.728-.728h3.64c1.118,0,2.262.078,3.38.078.624,0,.7-.286.7-1.274v-1.144c0-1.04-.026-1.378-.7-1.378-1.118,0-2.262.078-3.38.078h-3.64a.767.767,0,0,1-.728-.754v-1.716c0-.988.052-1.352.26-1.534s.286-.286.286-.416c0-.234-.156-.312-.546-.364-1.3-.156-3.3-.338-3.666-.338-.286,0-.546.052-.546.416a.8.8,0,0,0,.026.234,20.467,20.467,0,0,1,.078,2.288v1.482a.722.722,0,0,1-.728.7Zm-1.118,6.734c-1.924,0-2.418,0-2.418-.364a.988.988,0,0,1,.208-.468c.13-.208.416-.754.6-1.144.286-.572.52-1.118,1.43-1.118h2.626a.744.744,0,0,1,.728.728v1.638a.744.744,0,0,1-.728.728Zm30.134-9.074A11.016,11.016,0,0,0-70.8-7.826a8.8,8.8,0,0,0,.858,3.9,4.631,4.631,0,0,0,3.952,2.678,5.038,5.038,0,0,0,3.77-2.158c2.392-2.86,3.432-7.28,3.718-10.894.026-.468.078-.936.52-.936.78,0,3.9,1.612,3.9,5.694,0,3.328-2.47,5.226-5.486,6.006-.754.182-.988.286-.988.52,0,.728,1.378,3.12,2.288,3.12a9.977,9.977,0,0,0,3.094-1.17A9.744,9.744,0,0,0-49.946-9.7,9.149,9.149,0,0,0-52.7-16.38,9.641,9.641,0,0,0-59.722-19.032Zm-3.068,4.368c.234,0,.338.182.338.39A23.5,23.5,0,0,1-64.09-7.618c-.26.546-1.144,2.262-1.768,2.262-.91,0-1.066-1.9-1.066-2.522C-66.924-12.272-63.544-14.664-62.79-14.664Zm26.962,1.352a.615.615,0,0,1,.234-.572,1.056,1.056,0,0,0,.39-.364c.208-.39.286-.52.806-.52h5.824c1.04,0,2.08.052,3.12.052.624,0,.676-.286.676-1.066V-17.42c0-.78-.078-1.04-.7-1.04-1.04,0-2.054.078-3.094.078h-5.044c-.546,0-.78-.338-.78-.858,0-1.274.026-1.3.338-1.456.156-.078.416-.234.416-.442,0-.312-.286-.338-.728-.39-.208-.026-.208-.026-.468-.052-.546-.052-2.626-.208-3.068-.208-.286,0-.546.052-.546.39a.8.8,0,0,0,.026.234,12.669,12.669,0,0,1,.1,1.716c0,.52-.13,1.066-.754,1.066h-4.888c-1.04,0-2.054-.078-3.094-.078-.624,0-.7.26-.7,1.04v1.638c0,.78.052,1.066.676,1.066,1.04,0,2.08-.052,3.12-.052h3.406c.7,0,.884.364.884,1.014a18.186,18.186,0,0,1-.182,2.652A11.7,11.7,0,0,1-42.2-5.46a19.456,19.456,0,0,1-4.576,3.8c-.364.208-.676.39-.676.832a3.189,3.189,0,0,0,2.262,2.5,1.557,1.557,0,0,0,.806-.26,19.8,19.8,0,0,0,6.89-6.942,12.47,12.47,0,0,0,.858-2.028c.156-.572.338-.78,1.014-.78h3.328c1.326,0,1.638.026,1.638.91a13.951,13.951,0,0,1-.806,4.55A1.691,1.691,0,0,1-33.1-1.846a6.52,6.52,0,0,1-.806-.078A8.306,8.306,0,0,0-35-2.054c-.624,0-.65.728-.65,1.326,0,2.522.91,2.522,3.406,2.522a4.514,4.514,0,0,0,2.184-.364,4.439,4.439,0,0,0,1.9-2.34,27.591,27.591,0,0,0,1.482-9.1c0-.962-.026-1.9-1.56-1.9-.676,0-1.378.026-2.08.026h-4.55c-.6,0-.962-.208-.962-.858ZM-11.8-19.526a1.668,1.668,0,0,0,.156-.26c.182-.26.26-.286.65-.312.26-.026.39-.13.39-.39,0-.286-.39-.364-.7-.442-.7-.182-3.328-1.014-3.8-1.014-.286,0-.39.286-.468.52-.026.052-.7,2.132-.858,2.574-.182.52-.338.884-.962.884h-1.2c-.884,0-1.794-.078-2.7-.078-.962,0-1.508.26-1.508,1.326,0,.884.052,1.768.052,2.652v11.83c0,1.092-.052,2.184-.052,3.276,0,.624.312.676,1.118.676h1.638c.936,0,1.222-.052,1.222-.7,0-1.092-.078-2.158-.078-3.25V-13.7a.727.727,0,0,1,.728-.728h12.22a.711.711,0,0,1,.728.728V-3.38c0,.884,0,1.274-.91,1.274-.52,0-1.04-.1-1.326-.1-.572,0-.6.832-.6,1.248a5.362,5.362,0,0,0,.39,2.08c.312.6.91.65,1.82.65a8.8,8.8,0,0,0,3.692-.676c.806-.52.832-1.612.832-2.47,0-.832-.052-1.638-.052-2.444V-14.066c0-.884.078-1.768.078-2.652,0-1.092-.572-1.326-1.534-1.326-.884,0-1.794.078-2.7.078h-6.24c-.338,0-.676-.026-.676-.312A8.44,8.44,0,0,1-11.8-19.526Zm.572,16.172c.234.026.468.156.468.416.026.6.156.624,1.456.624.39,0,.754-.026,1.144-.026.13,0,.26.026.39.026.494,0,.858-.052.858-.572,0-.936-.078-1.872-.078-2.782V-9.074c0-.832.078-1.612.078-2.262,0-.988-.65-1.118-1.456-1.118-.6,0-1.17.052-1.742.052h-3.874c-.6,0-1.17-.052-1.742-.052-.858,0-1.456.13-1.456,1.118,0,.754.052,1.508.052,2.262v3.64c0,1.014-.078,2.054-.078,3.094,0,.494.286.6.832.6h2.106c.65,0,.936-.052.936-.65,0-.1-.026-.234-.026-.338a.633.633,0,0,1,.624-.624ZM-13.416-8.32a.711.711,0,0,1,.728-.728h1.248a.711.711,0,0,1,.728.728v.884a.727.727,0,0,1-.728.728h-1.248a.727.727,0,0,1-.728-.728Zm27.924-8.346a.411.411,0,0,1-.416.416h-.13a.4.4,0,0,1-.416-.442c0-.052.078-.52.13-.988.052-.624.078-.884.416-1.144.1-.1.208-.156.208-.338,0-.286-.286-.39-.546-.442S11.128-20.1,10.92-20.1c-.442,0-.416.338-.442.676-.052.728-.182,2.938-.416,2.938-.13,0-.208-.234-.26-.338-.26-.754-.364-1.04-.728-1.04a3.108,3.108,0,0,0-.962.26,1.49,1.49,0,0,1-.364.1c-.338,0-.338-.416-.338-.52v-.416c0-1.716.026-1.846.468-2.288a.5.5,0,0,0,.182-.364c0-.442-.546-.442-.988-.494-.65-.078-1.768-.156-2.392-.156s-.806.1-.806.572v3.874c0,.338,0,.624-.39.624H3.3c-.338-.052-2-.312-2.236-.312-.364,0-.416.26-.416.572v.1a34.777,34.777,0,0,1-.7,5.694,2.973,2.973,0,0,0-.13.624c0,.338.208.468.832.7A4.058,4.058,0,0,0,2-9c.52,0,.572-.286.728-.988a38.921,38.921,0,0,0,.676-4.94c0-.156,0-.884.26-.884.208,0,.208.338.208.494v13c0,1.066-.052,2.106-.052,3.172,0,.65.182.936,1.56.936h.572c1.248,0,1.508-.208,1.508-.832,0-1.092-.052-2.184-.052-3.276v-12.61c0-.156,0-.442.182-.442s.26.312.286.468c.156.6.26,1.144.39,1.742.078.364.1.65.494.65.156.026.39,0,.39.208a6.684,6.684,0,0,1-.364.988,2.561,2.561,0,0,0-.208.728c0,.6.858.91,1.352,1.04.312.078.39.208.39.546v1.872c0,.78.052,1.066.832,1.066.728,0,1.482-.052,2.21-.052h.364a.729.729,0,0,1,.78.832V-2.99a.744.744,0,0,1-.728.728H12.324c-.962,0-1.924-.078-2.886-.078-.728,0-.78.312-.78,1.222V0c0,.858.052,1.2.754,1.2.988,0,1.95-.052,2.912-.052h7.54c.962,0,1.924.052,2.886.052.728,0,.78-.286.78-1.2V-1.118c0-.858-.052-1.222-.728-1.222-.988,0-1.976.078-2.938.078h-.676c-.6,0-.884-.234-.884-.858V-5.174c0-.52.234-.936.806-.936.78,0,1.586.052,2.392.052.754,0,.832-.286.832-1.17V-8.32c0-.91-.052-1.248-.832-1.248-.806,0-1.638.052-2.47.052-.546,0-.728-.39-.728-.884v-1.612a.777.777,0,0,1,.858-.884h.182c1.014,0,2.028.078,3.042.078.6,0,.65-.26.65-1.014v-1.482c0-.754-.052-.988-.65-.988-.962,0-1.9.052-2.834.052h-.39c-.6,0-.858-.312-.858-.884v-2.08c0-.806.026-1.3.312-1.534.234-.182.364-.234.364-.416,0-.312-.52-.338-.806-.364-.52-.052-2.912-.234-3.25-.234-.286,0-.52.052-.52.39a12.946,12.946,0,0,1,.1,1.716Zm0,6.318c0,.546-.286.832-.754.832h-.39c-.338,0-.676-.026-.936-.026h-.052a.4.4,0,0,1-.442-.39.759.759,0,0,1,.052-.234,11.779,11.779,0,0,0,.676-1.976.812.812,0,0,1,.858-.754h.364a.633.633,0,0,1,.624.624Zm20.254-11.6c-.26,0-.312.182-.39.572a12.831,12.831,0,0,1-1.222,3.224c-.208.364-.442.468-1.716.468-.858,0-1.794-.052-2.366-.052-.832,0-.936.026-.936,1.638,0,1.95.078,2.028.962,2.028.338,0,.7-.026,1.014-.026a.378.378,0,0,1,.39.364.576.576,0,0,1-.156.364c-.832,1.17-2.522,3.874-3.588,5.1-.312.338-.468.494-.468.7,0,.624,2.652,2.08,3.224,2.08a.423.423,0,0,0,.39-.286,11.745,11.745,0,0,1,2.756-3.692,8.012,8.012,0,0,1,3.562-1.508.742.742,0,0,1,.806.676c0,.286-.208.416-.442.52-.468.234-.988.52-1.43.78-1.9,1.118-3.744,2.522-3.744,4.966A4.221,4.221,0,0,0,34.06,0a9.745,9.745,0,0,0,4.55.832A35.514,35.514,0,0,0,43.654.52c.754-.156.806-.416.806-1.4,0-1.664-.026-2.6-.65-2.6a3.139,3.139,0,0,0-.65.078,21.858,21.858,0,0,1-4.836.65c-.91,0-3.12,0-3.12-1.3,0-.91,1.3-1.742,1.56-1.742a.329.329,0,0,1,.312.364v.13a6.375,6.375,0,0,0-.052.7c0,.806.546.884,2.34.884,1.456,0,1.482-.026,1.482-1.69,0-.572-.026-1.2-.026-1.508,0-.7.1-.936.728-1.2,1.2-.494,1.976-.832,3.224-1.3.52-.182.78-.26.78-.6,0-.6-.91-3.588-1.56-3.588a.908.908,0,0,0-.338.13c-.1.052-.286.156-.52.286a14.813,14.813,0,0,1-2.418,1.222.467.467,0,0,1-.442-.312,2.6,2.6,0,0,0-1.248-1.482,3.808,3.808,0,0,0-1.872-.416,6.491,6.491,0,0,0-2.21.39.826.826,0,0,1-.234.078c-.1,0-.234-.052-.234-.182,0-.026.052-.6.884-.7,1.612-.182,3.38-.494,4.81-.754s1.664-.364,1.664-.754a11.435,11.435,0,0,0-.312-2.106c-.1-.468-.234-1.014-.806-1.014a2.305,2.305,0,0,0-.728.182,11.752,11.752,0,0,1-2.106.572c-.182,0-.312-.078-.312-.286a1.683,1.683,0,0,1,.7-.988c.182-.052.468-.13.468-.338,0-.234-.338-.416-.806-.624A31.776,31.776,0,0,0,34.762-21.944ZM68.016-8.918c-.546,0-2.86,1.066-2.86,1.534a.667.667,0,0,0,.13.312A40.268,40.268,0,0,1,68.51-.416c.1.286.234.676.624.676a4.439,4.439,0,0,0,1.118-.39c.078-.026.156-.078.234-.1,1.248-.6,1.612-.78,1.612-1.352a.855.855,0,0,0-.1-.442,43.039,43.039,0,0,0-2.418-4.914C68.614-8.58,68.406-8.918,68.016-8.918Zm-15.21.026c-.234,0-.286.234-.364.416A25.367,25.367,0,0,1,49.14-2a.58.58,0,0,0-.156.338c0,.6,2.418,1.794,2.99,1.794.234,0,.416-.26.546-.416a24.087,24.087,0,0,0,3.068-5.98c.1-.26.182-.494.364-.572.208-.078.52-.13.52-.442a.261.261,0,0,0-.156-.26,15.215,15.215,0,0,0-1.586-.7A15.272,15.272,0,0,0,52.806-8.892Zm2.7-11.726c-.988,0-1.976-.078-2.964-.078-.728,0-.884.182-.884,1.612v.936c0,.884.078,1.222.832,1.222,1.014,0,2.028-.078,3.016-.078h9.984c1.014,0,2.028.078,3.042.078.728,0,.806-.338.806-1.2V-19.5c0-.91-.078-1.2-.858-1.2-.988,0-2,.078-2.99.078ZM67.834-10.53c1.17,0,2.34.052,3.51.052.676,0,.728-.26.728-1.04V-13c0-.884-.052-1.17-.7-1.17-1.2,0-2.366.078-3.536.078H53.17c-1.17,0-2.34-.078-3.51-.078-.624,0-.754.182-.754,1.56v.988c0,.858.052,1.144.754,1.144,1.17,0,2.34-.052,3.51-.052h4.524a.727.727,0,0,1,.728.728v5.954c0,1.534-.026,1.768-.728,1.768-.312,0-.7-.026-.988-.052a4.642,4.642,0,0,0-.6-.052c-.494,0-.65.39-.65.832a6.876,6.876,0,0,0,.572,2.6,1.424,1.424,0,0,0,1.4.6c2.444,0,5.174-.26,5.174-3.38,0-.832-.052-1.664-.052-2.5V-9.8a.7.7,0,0,1,.728-.728Zm10.842-7.982c-.312,0-.52.13-.52.468,0,.13.026.312.026.442a33.779,33.779,0,0,1,.208,3.64c0,.7-.286.884-.962.988-.572.078-2.652.364-3.146.364-.572,0-.858.026-.858.676,0,.494.052,1.17.1,1.794.156,1.9.26,2.054.624,2.054a1.522,1.522,0,0,0,.338-.052C75.062-8.294,77.61-9,77.922-9c.52,0,.6.442.6.832a18.413,18.413,0,0,0,.468,4.836,4.658,4.658,0,0,0,2.86,2.86,16.129,16.129,0,0,0,4.628.546c.728,0,4.654-.1,5.044-.468a5.819,5.819,0,0,0,.338-2.574c0-.962-.1-1.3-.494-1.3-.182,0-.728.078-.91.1a30.594,30.594,0,0,1-4.628.39c-1.638,0-2.938-.052-3.328-1.508a23.474,23.474,0,0,1-.208-3.354v-.312c0-.91.026-1.04,1.82-1.326,1.43-.234,1.924-.312,2.08-.312a.367.367,0,0,1,.39.364,3.491,3.491,0,0,1-.182.7,1.235,1.235,0,0,1-1.378.806c-.26,0-.52-.026-.78-.026-.338,0-.468.26-.468.546a9.919,9.919,0,0,0,.494,2.782c.208.39.52.416.936.416,3.77,0,4.784-1.9,5.148-5.3.052-.494.182-.806.624-.91.364-.078,2.548-.156,3.042-.156h.572c.884,0,.91,0,.91-2.132,0-1.95-.156-2.106-.65-2.106a19.244,19.244,0,0,0-1.95.26c-.494.078-1.508.208-1.794.208-.442,0-.6-.312-.6-.7,0-.13.026-.26.026-.364V-17a3.821,3.821,0,0,1,.234-1.716c.156-.156.286-.26.286-.364,0-.156-.156-.26-.416-.312-1.014-.234-3.692-.65-4-.65a.375.375,0,0,0-.416.39,2.93,2.93,0,0,0,.078.468,31.09,31.09,0,0,1,.442,4.082c0,.494-.26.676-.728.754-.494.078-2.756.468-3.016.468-.546,0-.546-.572-.546-.832a4.4,4.4,0,0,1,.416-2.548c.1-.13.286-.338.286-.494,0-.182-.26-.286-.416-.312C82.238-18.174,79.2-18.512,78.676-18.512Zm32.6-1.742a4.031,4.031,0,0,0-1.118.416c-1.482.624-5.2.91-6.89.936h-.6c-.754,0-.832,0-.832.39v.26c0,.494.156,3.432.754,3.432a1.266,1.266,0,0,0,.312-.026c.676-.1,3.51-.624,3.588-.624.1,0,.52.052.52.364,0,.26-.182.416-.364.6-.442.494-.832.962-1.326,1.456-.91.884-5.226,5.174-5.876,5.694-.546.416-.806.65-.806.962,0,.494,2.028,2.626,2.626,2.626.1,0,.312-.182.676-.65a34.549,34.549,0,0,1,3.2-3.276,7.425,7.425,0,0,1,5.018-2c2,0,3.8.988,3.8,3.2,0,1.716-1.248,3.016-1.872,3.016a.726.726,0,0,1-.624-.494,4.521,4.521,0,0,0-.7-1.3,4.584,4.584,0,0,0-3.51-1.664,3.806,3.806,0,0,0-3.9,3.614c0,2.99,3.3,3.978,5.746,3.978,4.524,0,8.814-2.47,8.814-7.436a6.131,6.131,0,0,0-4.55-6.058,8.615,8.615,0,0,0-1.82-.312c-.1,0-.208.026-.286.026a.578.578,0,0,1-.6-.546.68.68,0,0,1,.234-.468,22.023,22.023,0,0,1,3.2-2.626c.13-.078.286-.208.286-.364C114.374-17.706,112.4-20.254,111.28-20.254Zm-2.7,17.368a.613.613,0,0,1-.65.572c-.6,0-1.482-.338-1.482-1.04a.748.748,0,0,1,.832-.7A1.3,1.3,0,0,1,108.576-2.886ZM-60.892,29.54c.182-.338.234-.416.572-.468.26-.052.39-.1.442-.312.052-.234.13-.234.416-.234h3.25c.26,0,.338.026.338.13,0,.13-.182.234-.286.26-.494.234-1.456.728-1.456,1.066a.956.956,0,0,0,.208.39,4.147,4.147,0,0,1,.754,1.3c0,.364-.338.416-1.222.494-.7.052-3.016.156-3.614.156-.286,0-.572-.078-.572-.416A14.177,14.177,0,0,1-60.892,29.54ZM-67.886,36.2c2-.1,12.3-.91,12.428-.91a1.338,1.338,0,0,1,1.3.676c.364.78.468.988.858.988.494,0,3.25-.91,3.25-1.534,0-.7-3.016-5.46-3.614-6.292a.473.473,0,0,1-.1-.286c0-.26.312-.312.806-.312.52,0,1.248.078,1.976.078.546,0,.676-.26.676-1.014V25.952c0-.7-.1-1.014-.65-1.014-1.144,0-2.288.078-3.432.078H-66.586c-1.144,0-2.288-.078-3.432-.078-.572,0-.624.338-.624,1.144v1.4c0,.78.052,1.118.624,1.118,1.144,0,2.288-.078,3.432-.078h.858c.286,0,.7.052.7.416a15.661,15.661,0,0,1-1.3,2.6c-.1.208-.182.364-.234.442-.338.572-.962.572-1.586.572h-.39c-1.144,0-1.274.052-1.274.416a11.994,11.994,0,0,0,.416,2.054c.26,1.04.442,1.742.78,1.742.182,0,.286-.13.364-.286A.449.449,0,0,1-67.886,36.2Zm5.408-15.86c-.234,0-.572,0-.572-.338a.913.913,0,0,1,.312-.546c.39-.364.754-.728,1.04-1.014.572-.624,1.014-1.066,1.3-1.066.364,0,.676.364.884.624.338.39.676.728.962,1.014.468.442.78.754.78.988,0,.338-.364.338-.572.338Zm4.238,3.354c.78,0,1.586.052,2.366.052.39,0,.546-.13.546-1.04v-.078c0-.208.052-.468.286-.468a.683.683,0,0,1,.39.182c.676.494,3.64,2.47,4.368,2.47.806,0,1.82-2.314,1.82-3.016,0-.286-.156-.39-.858-.676a21.405,21.405,0,0,1-7.722-5.434c-.156-.156-.728-.754-.728-.936a.252.252,0,0,1,.182-.208.516.516,0,0,0,.312-.416c0-.364-.364-.416-1.144-.572-.728-.156-2.964-.572-3.354-.572a.518.518,0,0,0-.468.286,23.514,23.514,0,0,1-9.568,8.164c-.182.1-.364.208-.364.442,0,.728,1.144,2.73,2.054,2.73.728,0,3.172-1.716,3.848-2.21a.48.48,0,0,1,.312-.13c.234,0,.312.26.312.442.026.832.1,1.04.546,1.04.728,0,1.586-.052,2.366-.052Zm28.6,1.3a.779.779,0,0,1,.806-.858c.884,0,1.742.052,2.626.052.65,0,.7-.286.7-1.118V21.61c0-.806-.052-1.092-.7-1.092-.884,0-1.768.078-2.626.078-.364,0-.806-.234-.806-.962V17.606c0-.78,0-1.586.026-2.366a.98.98,0,0,1,.208-.7c.156-.13.26-.234.26-.416,0-.286-.286-.338-.494-.364-.91-.1-1.82-.182-2.7-.26a6.878,6.878,0,0,0-.7-.052c-.26,0-.52.078-.52.39,0,.078.026.182.026.26.052.546.078,1.508.078,2.366v3.276c0,.468-.156.858-.7.858-.806,0-1.586-.078-2.366-.078-.65,0-.7.286-.7,1.092v1.456c0,.832.052,1.118.7,1.118.78,0,1.586-.052,2.392-.052.494,0,.676.39.676.832v6.552a.727.727,0,0,1-.728.728h-1.482c-.936,0-1.872-.078-2.782-.078-.676,0-.7.338-.7,1.3v1.222c0,.91.078,1.17.7,1.17.91,0,1.846-.078,2.782-.078h7.7c.936,0,1.846.078,2.782.078.6,0,.676-.26.676-1.014V33.128c0-.7-.078-.962-.676-.962-.91,0-1.846.078-2.782.078h-.78a.8.8,0,0,1-.884-.91Zm-11.154,4.55c0-.156.026-.442.234-.442.1,0,.208.1.286.182.286.312,1.248,1.274,1.638,1.274.7,0,2.21-1.846,2.21-2.366,0-.286-.468-.572-.728-.754-.546-.416-1.2-.936-1.69-1.4a3.116,3.116,0,0,0-.312-.286c-.442-.416-.7-.676-.7-.884a.641.641,0,0,1,.208-.442c.546-.728,2.756-4.134,2.756-4.914a2.39,2.39,0,0,0-.6-1.092c-.468-.6-.806-.988-1.612-.988-.312,0-.624.052-.936.052a.744.744,0,0,1-.754-.78v-.624c0-.91.026-1.222.26-1.43.208-.182.494-.312.494-.6,0-.442-.416-.442-1.014-.494-.624-.078-2.5-.26-3.042-.26-.26,0-.52.052-.52.364,0,.078.026.182.026.26a15.946,15.946,0,0,1,.078,1.612v1.066c0,.728-.442.884-1.04.884-.416,0-.91-.078-1.378-.078-.52,0-.572.26-.572,1.092v1.664c0,.624.052.91.572.91.416,0,1.222-.078,2-.078h2.47c.182,0,.624,0,.624.208A9.078,9.078,0,0,1-42.8,22.7a32.557,32.557,0,0,1-4.654,4.81c-.234.182-.676.494-.676.806s.364.728.78,1.222l.364.442c.26.312.676.78,1.092.78a1.134,1.134,0,0,0,.7-.286.693.693,0,0,1,.364-.182c.286,0,.312.312.312.52v1.534c0,1.274-.078,2.548-.078,3.822,0,.624.286.676,1.222.676h1.612c.78,0,1.04-.052,1.04-.728,0-1.248-.078-2.5-.078-3.77Zm27.2-16.484c-.26,0-.312.182-.39.572a12.831,12.831,0,0,1-1.222,3.224c-.208.364-.442.468-1.716.468-.858,0-1.794-.052-2.366-.052-.832,0-.936.026-.936,1.638,0,1.95.078,2.028.962,2.028.338,0,.7-.026,1.014-.026a.378.378,0,0,1,.39.364.576.576,0,0,1-.156.364c-.832,1.17-2.522,3.874-3.588,5.1-.312.338-.468.494-.468.7,0,.624,2.652,2.08,3.224,2.08a.423.423,0,0,0,.39-.286A11.745,11.745,0,0,1-15.7,25.536a8.012,8.012,0,0,1,3.562-1.508.742.742,0,0,1,.806.676c0,.286-.208.416-.442.52-.468.234-.988.52-1.43.78-1.9,1.118-3.744,2.522-3.744,4.966A4.221,4.221,0,0,0-14.3,35a9.745,9.745,0,0,0,4.55.832,35.514,35.514,0,0,0,5.044-.312c.754-.156.806-.416.806-1.4,0-1.664-.026-2.6-.65-2.6a3.139,3.139,0,0,0-.65.078,21.858,21.858,0,0,1-4.836.65c-.91,0-3.12,0-3.12-1.3,0-.91,1.3-1.742,1.56-1.742a.329.329,0,0,1,.312.364v.13a6.375,6.375,0,0,0-.052.7c0,.806.546.884,2.34.884,1.456,0,1.482-.026,1.482-1.69,0-.572-.026-1.2-.026-1.508,0-.7.1-.936.728-1.2,1.2-.494,1.976-.832,3.224-1.3.52-.182.78-.26.78-.6,0-.6-.91-3.588-1.56-3.588a.908.908,0,0,0-.338.13c-.1.052-.286.156-.52.286A14.813,14.813,0,0,1-7.644,23.04a.467.467,0,0,1-.442-.312,2.6,2.6,0,0,0-1.248-1.482,3.808,3.808,0,0,0-1.872-.416,6.491,6.491,0,0,0-2.21.39.826.826,0,0,1-.234.078c-.1,0-.234-.052-.234-.182,0-.026.052-.6.884-.7,1.612-.182,3.38-.494,4.81-.754s1.664-.364,1.664-.754A11.436,11.436,0,0,0-6.838,16.8c-.1-.468-.234-1.014-.806-1.014a2.305,2.305,0,0,0-.728.182,11.752,11.752,0,0,1-2.106.572c-.182,0-.312-.078-.312-.286a1.683,1.683,0,0,1,.7-.988c.182-.052.468-.13.468-.338,0-.234-.338-.416-.806-.624A31.776,31.776,0,0,0-13.6,13.056ZM8.58,20.544c.676,0,1.326.026,1.976.026.7,0,.624-.26.91-.26.182,0,.208.026.546.286a3.742,3.742,0,0,0,1.144.6c.572,0,1.118-.676,1.43-1.092.1-.13.26-.364.416-.364.182,0,.208.234.208.494v7.592c0,.832,0,1.456-.052,1.95-.026.286-.026.52-.026.7,0,.78.156.858.858.858H17.5c.7,0,.91-.052.91-.572,0-.988-.052-1.95-.052-2.938V18.178c0-.832.026-.936.26-1.04.182-.078.39-.208.39-.416,0-.286-.182-.312-.494-.338-.468-.052-2.574-.208-2.964-.208-.208,0-.416.026-.416.286a.586.586,0,0,0,.026.182c.026.26.052.6.052.858,0,.182-.078.364-.286.364-.494,0-4.446-2.418-4.446-2.886a.236.236,0,0,1,.1-.208c.156-.1.286-.208.286-.416,0-.338-.286-.39-1.014-.624-.156-.052-.234-.078-.416-.13a15.542,15.542,0,0,0-2.184-.624c-.312,0-.468.208-.65.442A20.828,20.828,0,0,1,.468,18.542C.286,18.62,0,18.75,0,19.01a4.739,4.739,0,0,0,1.69,2.5c.208.1.26.13.26.312A.508.508,0,0,1,1.924,22a1.968,1.968,0,0,0-.026.39c0,.572.052,1.2.052,1.82V25.3c0,2.522-.468,6.214-1.794,8.424a2.775,2.775,0,0,0-.416.832c0,.6,1.924,2.028,2.808,2.028.52,0,.754-.364,1.2-1.326.182-.39.26-.7.416-.7.1,0,.1.13.1.312,0,.234,0,.858-.026,1.066a2.571,2.571,0,0,0-.026.39c0,.364.39.39.754.39H6.474c.858,0,1.066-.026,1.092-.39.026-.312.234-.416.52-.416h1.9c.26,0,.494.1.52.39.026.39.208.416,1.144.416h1.768c.286,0,.7,0,.7-.39a2.977,2.977,0,0,0-.026-.39c-.026-.312-.052-.676-.052-.988v-2.86c0-.468.078-1.17.078-1.326,0-.754-1.092-.78-1.872-.78-.754,0-1.508.052-2.262.052H8.346c-.806,0-1.612-.052-2.444-.052H5.59a.308.308,0,0,1-.312-.338c0-.312.13-.442.442-.442h4.706c.7,0,1.4.052,2.08.052.754,0,1.664,0,1.664-.988,0-.494-.078-1.014-.078-1.508V24.21c0-.6.078-1.2.078-1.794,0-1.04-.728-1.144-1.586-1.144-.728,0-1.43.052-2.158.052H5.616c-1.508,0-2.288,0-2.288-.286,0-.13.078-.208.234-.312s.182-.13.286-.208a1.458,1.458,0,0,1,.624-.364.311.311,0,0,1,.208.13c.13.182.182.286.6.286.676,0,1.378-.026,2.054-.026Zm14.586-4.082c0-1.794,0-1.976.286-2.106.182-.078.364-.208.364-.416,0-.39-.546-.416-.832-.442-.858-.052-2.262-.182-3.042-.182-.208,0-.468.026-.468.312v.156a12.665,12.665,0,0,1,.078,1.82v15.99c0,1.274,0,1.456-.676,1.456-.572,0-1.274-.1-1.482-.1-.572,0-.624.6-.624,1.04a6.676,6.676,0,0,0,.39,2.262c.26.572.754.624,1.742.624,3.588,0,4.29-1.43,4.29-3.692,0-.494-.026-1.092-.026-1.716ZM8.112,33.7a.616.616,0,0,1-.624-.624v-.312a.633.633,0,0,1,.624-.624H9.958a.633.633,0,0,1,.624.624v.312a.633.633,0,0,1-.624.624Zm2.158-7.566a.314.314,0,0,1,.338.338v.13a.344.344,0,0,1-.338.338H5.954c-.26,0-.416-.1-.416-.39,0-.39.208-.416.494-.416ZM5.876,24.262a.314.314,0,0,1-.338-.338v-.078a.328.328,0,0,1,.338-.338H10.27a.328.328,0,0,1,.338.338v.078a.328.328,0,0,1-.338.338Zm1.456-5.876c-.286,0-.52,0-.52-.208,0-.1.182-.286.39-.494s.416-.416.624-.416a.823.823,0,0,1,.624.364c.182.208.468.416.468.572,0,.182-.156.182-.468.182Zm31.408-3.64a4.031,4.031,0,0,0-1.118.416c-1.482.624-5.2.91-6.89.936h-.6c-.754,0-.832,0-.832.39v.26c0,.494.156,3.432.754,3.432a1.266,1.266,0,0,0,.312-.026c.676-.1,3.51-.624,3.588-.624.1,0,.52.052.52.364,0,.26-.182.416-.364.6-.442.494-.832.962-1.326,1.456-.91.884-5.226,5.174-5.876,5.694-.546.416-.806.65-.806.962,0,.494,2.028,2.626,2.626,2.626.1,0,.312-.182.676-.65A34.549,34.549,0,0,1,32.6,27.3a7.425,7.425,0,0,1,5.018-2c2,0,3.8.988,3.8,3.2,0,1.716-1.248,3.016-1.872,3.016a.726.726,0,0,1-.624-.494,4.522,4.522,0,0,0-.7-1.3,4.584,4.584,0,0,0-3.51-1.664,3.806,3.806,0,0,0-3.9,3.614c0,2.99,3.3,3.978,5.746,3.978,4.524,0,8.814-2.47,8.814-7.436a6.131,6.131,0,0,0-4.55-6.058A8.615,8.615,0,0,0,39,21.844c-.1,0-.208.026-.286.026a.578.578,0,0,1-.6-.546.68.68,0,0,1,.234-.468,22.023,22.023,0,0,1,3.2-2.626c.13-.078.286-.208.286-.364C41.834,17.294,39.858,14.746,38.74,14.746Zm-2.7,17.368a.613.613,0,0,1-.65.572c-.6,0-1.482-.338-1.482-1.04a.748.748,0,0,1,.832-.7A1.3,1.3,0,0,1,36.036,32.114Zm17-3.64a3.718,3.718,0,1,0,3.718,3.718A3.7,3.7,0,0,0,53.04,28.474Zm0,1.534a2.184,2.184,0,1,1-2.184,2.184A2.186,2.186,0,0,1,53.04,30.008Z" transform="translate(120.406 21.944)"/>
</svg>
