<svg xmlns="http://www.w3.org/2000/svg" width="34.272" height="26.064" viewBox="0 0 34.272 26.064">
  <path id="Path_408" data-name="Path 408" d="M10.584-26.928c1.728,0,2.3-.288,3.024-1.872C15.768-32.976,18-39.744,18-45.072c0-5.76-3.672-7.92-6.912-7.92-5.04,0-7.632,3.24-7.632,7.344,0,3.1,1.872,5.4,5.184,6.336,1.08.288,1.872.72,1.872,1.872,0,1.584-1.8,5.616-3.528,8.64a2.424,2.424,0,0,0-.432,1.224c0,.5.432.648,1.512.648Zm19.728,0c1.728,0,2.3-.288,3.024-1.872,2.16-4.176,4.392-10.944,4.392-16.272,0-5.76-3.672-7.92-6.912-7.92-5.04,0-7.632,3.24-7.632,7.344,0,3.1,1.872,5.4,5.184,6.336,1.08.288,1.872.72,1.872,1.872,0,1.584-1.8,5.616-3.528,8.64a2.424,2.424,0,0,0-.432,1.224c0,.5.432.648,1.512.648Z" transform="translate(-3.456 52.992)" fill="#fec20d"/>
</svg>
