<svg xmlns="http://www.w3.org/2000/svg" width="660.312" height="162.168" viewBox="0 0 660.312 162.168">
  <path id="Path_321" data-name="Path 321" d="M42.7-57.024c.5-.216,1.224-.5,1.224-1.152,0-1.08-1.44-1.008-3.672-1.224-1.44-.144-6.192-.5-7.488-.5-1.656,0-2.232.648-2.232,2.232,0,2.448.288,5.688.288,8.568,0,10.224-2.016,20.376-8.136,28.728A53.588,53.588,0,0,1,5.4-4.968c-.792.432-1.512.864-1.512,1.656,0,2.376,4.536,7.992,7.056,7.992,1.944,0,8.352-5.256,10.08-6.768,5.9-5.112,11.736-12.1,14.688-19.368.144-.5.432-1.152,1.008-1.152.648,0,1.008.648,1.224,1.152A54.413,54.413,0,0,0,48.816-5.328C50.688-3.384,59.328,4.752,61.7,4.752c2.52,0,7.128-5.4,7.128-8.208,0-.72-.648-1.152-1.3-1.512C51.624-14.256,41.9-29.016,41.9-48.384v-7.272A1.839,1.839,0,0,1,42.7-57.024Zm48.888,10.8c-1.008-.072-2.016-.288-2.016-1.512a16.931,16.931,0,0,1,.576-2.88c.36-1.44.432-1.872,1.728-2.448.648-.288,1.44-.792,1.44-1.512s-.576-.936-1.944-1.3C89.5-56.376,83.16-58.1,82.08-58.1c-1.008,0-1.08.792-1.224,1.8A54.472,54.472,0,0,1,70.92-31.536a4.177,4.177,0,0,0-1.08,2.088c0,1.512,3.528,3.1,4.824,3.6,1.656.648,2.664,1.224,2.664,2.664v2.448c0,2.448.216,3.168,2.232,3.168,2.952,0,5.976-.144,8.928-.144h6.768A2.012,2.012,0,0,1,97.272-15.7v6.264a2.06,2.06,0,0,1-2.016,2.016H82.8c-3.24,0-6.48-.216-9.72-.216-1.944,0-2.088.792-2.088,3.24V-.36c0,2.448.144,3.24,2.088,3.24,3.24,0,6.48-.144,9.72-.144h40.464c3.24,0,6.48.144,9.72.144,1.944,0,2.088-.792,2.088-3.24V-4.392c0-2.448-.144-3.24-2.088-3.24-3.24,0-6.48.216-9.72.216h-12.6a2.06,2.06,0,0,1-2.016-2.016V-15.7a2.012,2.012,0,0,1,2.016-2.016h6.912c3.024,0,5.976.144,9,.144,2.016,0,2.232-.792,2.232-3.168v-3.888c0-2.3-.144-3.168-2.16-3.168-3.024,0-6.048.216-9.072.216h-6.912a2.06,2.06,0,0,1-2.016-2.016v-4.536a2.06,2.06,0,0,1,2.016-2.016h10.08c3.1,0,6.264.216,9.36.216,1.728,0,1.944-.792,1.944-3.528v-3.168c0-2.88-.072-3.816-1.944-3.816-3.1,0-6.264.216-9.36.216h-10.08a2.125,2.125,0,0,1-2.016-2.088v-4.752c0-2.736.144-3.744.72-4.248s.792-.792.792-1.152c0-.648-.432-.864-1.512-1.008-3.6-.432-9.144-.936-10.152-.936-.792,0-1.512.144-1.512,1.152a2.221,2.221,0,0,0,.072.648,56.675,56.675,0,0,1,.216,6.336v4.1a2,2,0,0,1-2.016,1.944Zm-3.1,18.648c-5.328,0-6.7,0-6.7-1.008a2.736,2.736,0,0,1,.576-1.3c.36-.576,1.152-2.088,1.656-3.168.792-1.584,1.44-3.1,3.96-3.1h7.272a2.06,2.06,0,0,1,2.016,2.016v4.536a2.06,2.06,0,0,1-2.016,2.016ZM171.936-52.7c-17.352,0-30.672,13.752-30.672,31.032a24.371,24.371,0,0,0,2.376,10.8c2.16,4.1,6.12,7.416,10.944,7.416,4.32,0,7.776-2.736,10.44-5.976,6.624-7.92,9.5-20.16,10.3-30.168.072-1.3.216-2.592,1.44-2.592,2.16,0,10.8,4.464,10.8,15.768,0,9.216-6.84,14.472-15.192,16.632-2.088.5-2.736.792-2.736,1.44,0,2.016,3.816,8.64,6.336,8.64,2.016,0,6.768-2.232,8.568-3.24a26.984,26.984,0,0,0,14.472-23.9,25.336,25.336,0,0,0-7.632-18.5C186.192-50.544,179.28-52.7,171.936-52.7Zm-8.5,12.1c.648,0,.936.5.936,1.08,0,2.592-2.016,13.248-4.536,18.432-.72,1.512-3.168,6.264-4.9,6.264-2.52,0-2.952-5.256-2.952-6.984C151.992-33.984,161.352-40.608,163.44-40.608ZM238.1-36.864a1.7,1.7,0,0,1,.648-1.584,2.924,2.924,0,0,0,1.08-1.008c.576-1.08.792-1.44,2.232-1.44h16.128c2.88,0,5.76.144,8.64.144,1.728,0,1.872-.792,1.872-2.952V-48.24c0-2.16-.216-2.88-1.944-2.88-2.88,0-5.688.216-8.568.216H244.224c-1.512,0-2.16-.936-2.16-2.376,0-3.528.072-3.6.936-4.032.432-.216,1.152-.648,1.152-1.224,0-.864-.792-.936-2.016-1.08-.576-.072-.576-.072-1.3-.144-1.512-.144-7.272-.576-8.5-.576-.792,0-1.512.144-1.512,1.08a2.221,2.221,0,0,0,.072.648,35.08,35.08,0,0,1,.288,4.752c0,1.44-.36,2.952-2.088,2.952H215.568c-2.88,0-5.688-.216-8.568-.216-1.728,0-1.944.72-1.944,2.88V-43.7c0,2.16.144,2.952,1.872,2.952,2.88,0,5.76-.144,8.64-.144H225c1.944,0,2.448,1.008,2.448,2.808a50.359,50.359,0,0,1-.5,7.344,32.391,32.391,0,0,1-6.48,15.624C217.44-11.3,211.9-7.128,207.792-4.608c-1.008.576-1.872,1.08-1.872,2.3,0,2.664,3.888,6.912,6.264,6.912a4.311,4.311,0,0,0,2.232-.72c7.2-4.248,15.12-11.808,19.08-19.224a34.532,34.532,0,0,0,2.376-5.616c.432-1.584.936-2.16,2.808-2.16H247.9c3.672,0,4.536.072,4.536,2.52,0,3.168-.864,9.864-2.232,12.6a4.684,4.684,0,0,1-4.536,2.88,18.056,18.056,0,0,1-2.232-.216,23,23,0,0,0-3.024-.36c-1.728,0-1.8,2.016-1.8,3.672,0,6.984,2.52,6.984,9.432,6.984,2.016,0,4.176,0,6.048-1.008,2.592-1.368,4.176-3.888,5.256-6.48,2.808-6.84,4.1-17.784,4.1-25.2,0-2.664-.072-5.256-4.32-5.256-1.872,0-3.816.072-5.76.072h-12.6c-1.656,0-2.664-.576-2.664-2.376Zm66.528-17.208a4.619,4.619,0,0,0,.432-.72c.5-.72.72-.792,1.8-.864.72-.072,1.08-.36,1.08-1.08,0-.792-1.08-1.008-1.944-1.224-1.944-.5-9.216-2.808-10.512-2.808-.792,0-1.08.792-1.3,1.44-.072.144-1.944,5.9-2.376,7.128-.5,1.44-.936,2.448-2.664,2.448H285.84c-2.448,0-4.968-.216-7.488-.216-2.664,0-4.176.72-4.176,3.672,0,2.448.144,4.9.144,7.344v32.76c0,3.024-.144,6.048-.144,9.072,0,1.728.864,1.872,3.1,1.872h4.536c2.592,0,3.384-.144,3.384-1.944,0-3.024-.216-5.976-.216-9V-37.944a2.012,2.012,0,0,1,2.016-2.016h33.84a1.969,1.969,0,0,1,2.016,2.016V-9.36c0,2.448,0,3.528-2.52,3.528-1.44,0-2.88-.288-3.672-.288-1.584,0-1.656,2.3-1.656,3.456a14.847,14.847,0,0,0,1.08,5.76c.864,1.656,2.52,1.8,5.04,1.8,2.736,0,7.92-.432,10.224-1.872,2.232-1.44,2.3-4.464,2.3-6.84,0-2.3-.144-4.536-.144-6.768V-38.952c0-2.448.216-4.9.216-7.344,0-3.024-1.584-3.672-4.248-3.672-2.448,0-4.968.216-7.488.216H304.7c-.936,0-1.872-.072-1.872-.864A23.375,23.375,0,0,1,304.632-54.072Zm1.584,44.784c.648.072,1.3.432,1.3,1.152.072,1.656.432,1.728,4.032,1.728,1.08,0,2.088-.072,3.168-.072.36,0,.72.072,1.08.072,1.368,0,2.376-.144,2.376-1.584,0-2.592-.216-5.184-.216-7.7v-9.432c0-2.3.216-4.464.216-6.264,0-2.736-1.8-3.1-4.032-3.1-1.656,0-3.24.144-4.824.144H298.584c-1.656,0-3.24-.144-4.824-.144-2.376,0-4.032.36-4.032,3.1,0,2.088.144,4.176.144,6.264v10.08c0,2.808-.216,5.688-.216,8.568,0,1.368.792,1.656,2.3,1.656h5.832c1.8,0,2.592-.144,2.592-1.8,0-.288-.072-.648-.072-.936a1.752,1.752,0,0,1,1.728-1.728ZM300.168-23.04a1.969,1.969,0,0,1,2.016-2.016h3.456a1.969,1.969,0,0,1,2.016,2.016v2.448a2.012,2.012,0,0,1-2.016,2.016h-3.456a2.012,2.012,0,0,1-2.016-2.016ZM377.5-46.152A1.137,1.137,0,0,1,376.344-45h-.36a1.113,1.113,0,0,1-1.152-1.224c0-.144.216-1.44.36-2.736.144-1.728.216-2.448,1.152-3.168.288-.288.576-.432.576-.936,0-.792-.792-1.08-1.512-1.224s-7.272-1.368-7.848-1.368c-1.224,0-1.152.936-1.224,1.872-.144,2.016-.5,8.136-1.152,8.136-.36,0-.576-.648-.72-.936-.72-2.088-1.008-2.88-2.016-2.88a8.608,8.608,0,0,0-2.664.72,4.127,4.127,0,0,1-1.008.288c-.936,0-.936-1.152-.936-1.44v-1.152c0-4.752.072-5.112,1.3-6.336a1.375,1.375,0,0,0,.5-1.008c0-1.224-1.512-1.224-2.736-1.368-1.8-.216-4.9-.432-6.624-.432s-2.232.288-2.232,1.584V-47.88c0,.936,0,1.728-1.08,1.728h-.5c-.936-.144-5.544-.864-6.192-.864-1.008,0-1.152.72-1.152,1.584v.288a96.307,96.307,0,0,1-1.944,15.768,8.232,8.232,0,0,0-.36,1.728c0,.936.576,1.3,2.3,1.944a11.238,11.238,0,0,0,3.744.792c1.44,0,1.584-.792,2.016-2.736a107.779,107.779,0,0,0,1.872-13.68c0-.432,0-2.448.72-2.448.576,0,.576.936.576,1.368v36c0,2.952-.144,5.832-.144,8.784,0,1.8.5,2.592,4.32,2.592h1.584c3.456,0,4.176-.576,4.176-2.3,0-3.024-.144-6.048-.144-9.072v-34.92c0-.432,0-1.224.5-1.224s.72.864.792,1.3c.432,1.656.72,3.168,1.08,4.824.216,1.008.288,1.8,1.368,1.8.432.072,1.08,0,1.08.576a18.512,18.512,0,0,1-1.008,2.736,7.091,7.091,0,0,0-.576,2.016c0,1.656,2.376,2.52,3.744,2.88.864.216,1.08.576,1.08,1.512v5.184c0,2.16.144,2.952,2.3,2.952,2.016,0,4.1-.144,6.12-.144h1.008a2.018,2.018,0,0,1,2.16,2.3V-8.28a2.06,2.06,0,0,1-2.016,2.016h-4.032c-2.664,0-5.328-.216-7.992-.216-2.016,0-2.16.864-2.16,3.384V0c0,2.376.144,3.312,2.088,3.312,2.736,0,5.4-.144,8.064-.144h20.88c2.664,0,5.328.144,7.992.144,2.016,0,2.16-.792,2.16-3.312V-3.1c0-2.376-.144-3.384-2.016-3.384-2.736,0-5.472.216-8.136.216h-1.872c-1.656,0-2.448-.648-2.448-2.376v-5.688c0-1.44.648-2.592,2.232-2.592,2.16,0,4.392.144,6.624.144,2.088,0,2.3-.792,2.3-3.24V-23.04c0-2.52-.144-3.456-2.3-3.456-2.232,0-4.536.144-6.84.144-1.512,0-2.016-1.08-2.016-2.448v-4.464a2.152,2.152,0,0,1,2.376-2.448h.5c2.808,0,5.616.216,8.424.216,1.656,0,1.8-.72,1.8-2.808v-4.1c0-2.088-.144-2.736-1.8-2.736-2.664,0-5.256.144-7.848.144h-1.08c-1.656,0-2.376-.864-2.376-2.448v-5.76c0-2.232.072-3.6.864-4.248.648-.5,1.008-.648,1.008-1.152,0-.864-1.44-.936-2.232-1.008-1.44-.144-8.064-.648-9-.648-.792,0-1.44.144-1.44,1.08a35.851,35.851,0,0,1,.288,4.752Zm0,17.5c0,1.512-.792,2.3-2.088,2.3h-1.08c-.936,0-1.872-.072-2.592-.072h-.144a1.1,1.1,0,0,1-1.224-1.08,2.1,2.1,0,0,1,.144-.648,32.618,32.618,0,0,0,1.872-5.472,2.248,2.248,0,0,1,2.376-2.088h1.008a1.752,1.752,0,0,1,1.728,1.728Zm56.088-32.112c-.72,0-.864.5-1.08,1.584a35.532,35.532,0,0,1-3.384,8.928c-.576,1.008-1.224,1.3-4.752,1.3-2.376,0-4.968-.144-6.552-.144-2.3,0-2.592.072-2.592,4.536,0,5.4.216,5.616,2.664,5.616.936,0,1.944-.072,2.808-.072a1.046,1.046,0,0,1,1.08,1.008,1.594,1.594,0,0,1-.432,1.008c-2.3,3.24-6.984,10.728-9.936,14.112-.864.936-1.3,1.368-1.3,1.944,0,1.728,7.344,5.76,8.928,5.76a1.17,1.17,0,0,0,1.08-.792c2.088-3.744,4.248-7.56,7.632-10.224,2.16-1.656,7.128-4.176,9.864-4.176a2.053,2.053,0,0,1,2.232,1.872c0,.792-.576,1.152-1.224,1.44-1.3.648-2.736,1.44-3.96,2.16-5.256,3.1-10.368,6.984-10.368,13.752A11.689,11.689,0,0,0,431.64,0c4.248,1.944,7.56,2.3,12.6,2.3,3.528,0,10.728-.216,13.968-.864,2.088-.432,2.232-1.152,2.232-3.888,0-4.608-.072-7.2-1.8-7.2a8.693,8.693,0,0,0-1.8.216,60.531,60.531,0,0,1-13.392,1.8c-2.52,0-8.64,0-8.64-3.6,0-2.52,3.6-4.824,4.32-4.824a.911.911,0,0,1,.864,1.008v.36a17.656,17.656,0,0,0-.144,1.944c0,2.232,1.512,2.448,6.48,2.448,4.032,0,4.1-.072,4.1-4.68,0-1.584-.072-3.312-.072-4.176,0-1.944.288-2.592,2.016-3.312,3.312-1.368,5.472-2.3,8.928-3.6,1.44-.5,2.16-.72,2.16-1.656,0-1.656-2.52-9.936-4.32-9.936a2.516,2.516,0,0,0-.936.36c-.288.144-.792.432-1.44.792-2.16,1.224-5.976,3.384-6.7,3.384a1.292,1.292,0,0,1-1.224-.864c-.936-2.016-1.44-2.952-3.456-4.1a10.545,10.545,0,0,0-5.184-1.152,17.976,17.976,0,0,0-6.12,1.08,2.288,2.288,0,0,1-.648.216c-.288,0-.648-.144-.648-.5,0-.072.144-1.656,2.448-1.944,4.464-.5,9.36-1.368,13.32-2.088s4.608-1.008,4.608-2.088A31.669,31.669,0,0,0,452.3-50.4c-.288-1.3-.648-2.808-2.232-2.808a6.383,6.383,0,0,0-2.016.5,32.543,32.543,0,0,1-5.832,1.584c-.5,0-.864-.216-.864-.792a4.66,4.66,0,0,1,1.944-2.736c.5-.144,1.3-.36,1.3-.936,0-.648-.936-1.152-2.232-1.728C441.216-57.816,434.376-60.768,433.584-60.768ZM525.672-24.7c-1.512,0-7.92,2.952-7.92,4.248a1.848,1.848,0,0,0,.36.864A111.507,111.507,0,0,1,527.04-1.152c.288.792.648,1.872,1.728,1.872a12.292,12.292,0,0,0,3.1-1.08c.216-.072.432-.216.648-.288,3.456-1.656,4.464-2.16,4.464-3.744a2.366,2.366,0,0,0-.288-1.224,119.182,119.182,0,0,0-6.7-13.608C527.328-23.76,526.752-24.7,525.672-24.7Zm-42.12.072c-.648,0-.792.648-1.008,1.152A70.246,70.246,0,0,1,473.4-5.544a1.607,1.607,0,0,0-.432.936c0,1.656,6.7,4.968,8.28,4.968.648,0,1.152-.72,1.512-1.152a66.7,66.7,0,0,0,8.5-16.56c.288-.72.5-1.368,1.008-1.584.576-.216,1.44-.36,1.44-1.224a.723.723,0,0,0-.432-.72,42.132,42.132,0,0,0-4.392-1.944A42.292,42.292,0,0,0,483.552-24.624ZM491.04-57.1c-2.736,0-5.472-.216-8.208-.216-2.016,0-2.448.5-2.448,4.464v2.592c0,2.448.216,3.384,2.3,3.384,2.808,0,5.616-.216,8.352-.216h27.648c2.808,0,5.616.216,8.424.216,2.016,0,2.232-.936,2.232-3.312V-54c0-2.52-.216-3.312-2.376-3.312-2.736,0-5.544.216-8.28.216ZM525.168-29.16c3.24,0,6.48.144,9.72.144,1.872,0,2.016-.72,2.016-2.88V-36c0-2.448-.144-3.24-1.944-3.24-3.312,0-6.552.216-9.792.216H484.56c-3.24,0-6.48-.216-9.72-.216-1.728,0-2.088.5-2.088,4.32v2.736c0,2.376.144,3.168,2.088,3.168,3.24,0,6.48-.144,9.72-.144h12.528a2.012,2.012,0,0,1,2.016,2.016v16.488c0,4.248-.072,4.9-2.016,4.9-.864,0-1.944-.072-2.736-.144a12.853,12.853,0,0,0-1.656-.144c-1.368,0-1.8,1.08-1.8,2.3a19.04,19.04,0,0,0,1.584,7.2c.792,1.44,2.3,1.656,3.888,1.656,6.768,0,14.328-.72,14.328-9.36,0-2.3-.144-4.608-.144-6.912V-27.144a1.928,1.928,0,0,1,2.016-2.016Zm30.024-22.1c-.864,0-1.44.36-1.44,1.3,0,.36.072.864.072,1.224a93.528,93.528,0,0,1,.576,10.08c0,1.944-.792,2.448-2.664,2.736-1.584.216-7.344,1.008-8.712,1.008-1.584,0-2.376.072-2.376,1.872,0,1.368.144,3.24.288,4.968.432,5.256.72,5.688,1.728,5.688a4.214,4.214,0,0,0,.936-.144c1.584-.432,8.64-2.376,9.5-2.376,1.44,0,1.656,1.224,1.656,2.3.072,4.176.072,9.648,1.3,13.392a12.9,12.9,0,0,0,7.92,7.92C567.648-.072,572.832.216,576.792.216c2.016,0,12.888-.288,13.968-1.3.72-.72.936-4.032.936-7.128,0-2.664-.288-3.6-1.368-3.6-.5,0-2.016.216-2.52.288a84.722,84.722,0,0,1-12.816,1.08c-4.536,0-8.136-.144-9.216-4.176A65,65,0,0,1,565.2-23.9v-.864c0-2.52.072-2.88,5.04-3.672,3.96-.648,5.328-.864,5.76-.864a1.015,1.015,0,0,1,1.08,1.008,9.67,9.67,0,0,1-.5,1.944c-.72,1.872-2.016,2.232-3.816,2.232-.72,0-1.44-.072-2.16-.072-.936,0-1.3.72-1.3,1.512,0,1.512.648,6.408,1.368,7.7.576,1.08,1.44,1.152,2.592,1.152,10.44,0,13.248-5.256,14.256-14.688.144-1.368.5-2.232,1.728-2.52,1.008-.216,7.056-.432,8.424-.432h1.584c2.448,0,2.52,0,2.52-5.9,0-5.4-.432-5.832-1.8-5.832a53.29,53.29,0,0,0-5.4.72c-1.368.216-4.176.576-4.968.576-1.224,0-1.656-.864-1.656-1.944,0-.36.072-.72.072-1.008v-2.232c0-1.728.072-4.1.648-4.752.432-.432.792-.72.792-1.008,0-.432-.432-.72-1.152-.864-2.808-.648-10.224-1.8-11.088-1.8a1.04,1.04,0,0,0-1.152,1.08,8.119,8.119,0,0,0,.216,1.3,86.09,86.09,0,0,1,1.224,11.3c0,1.368-.72,1.872-2.016,2.088-1.368.216-7.632,1.3-8.352,1.3-1.512,0-1.512-1.584-1.512-2.3,0-3.672.216-5.976,1.152-7.056.288-.36.792-.936.792-1.368,0-.5-.72-.792-1.152-.864C565.056-50.328,556.632-51.264,555.192-51.264Zm90.288-4.824a11.162,11.162,0,0,0-3.1,1.152c-4.1,1.728-14.4,2.52-19.08,2.592h-1.656c-2.088,0-2.3,0-2.3,1.08v.72c0,1.368.432,9.5,2.088,9.5a3.506,3.506,0,0,0,.864-.072c1.872-.288,9.72-1.728,9.936-1.728.288,0,1.44.144,1.44,1.008,0,.72-.5,1.152-1.008,1.656-1.224,1.368-2.3,2.664-3.672,4.032-2.52,2.448-14.472,14.328-16.272,15.768-1.512,1.152-2.232,1.8-2.232,2.664,0,1.368,5.616,7.272,7.272,7.272.288,0,.864-.5,1.872-1.8a95.666,95.666,0,0,1,8.856-9.072,20.563,20.563,0,0,1,13.9-5.544c5.544,0,10.512,2.736,10.512,8.856,0,4.752-3.456,8.352-5.184,8.352a2.01,2.01,0,0,1-1.728-1.368,12.522,12.522,0,0,0-1.944-3.6,12.7,12.7,0,0,0-9.72-4.608c-5.544,0-10.8,4.248-10.8,10.008,0,8.28,9.144,11.016,15.912,11.016,12.528,0,24.408-6.84,24.408-20.592,0-8.136-4.824-14.4-12.6-16.776a23.856,23.856,0,0,0-5.04-.864c-.288,0-.576.072-.792.072a1.6,1.6,0,0,1-1.656-1.512,1.883,1.883,0,0,1,.648-1.3,60.982,60.982,0,0,1,8.856-7.272c.36-.216.792-.576.792-1.008C654.048-49.032,648.576-56.088,645.48-56.088Zm-7.488,48.1a1.7,1.7,0,0,1-1.8,1.584c-1.656,0-4.1-.936-4.1-2.88a2.072,2.072,0,0,1,2.3-1.944A3.585,3.585,0,0,1,637.992-7.992ZM34.776,80.88c.5-.936.648-1.152,1.584-1.3.72-.144,1.08-.288,1.224-.864.144-.648.36-.648,1.152-.648h9c.72,0,.936.072.936.36,0,.36-.5.648-.792.72-1.368.648-4.032,2.016-4.032,2.952a2.646,2.646,0,0,0,.576,1.08c.864,1.152,2.088,2.952,2.088,3.6,0,1.008-.936,1.152-3.384,1.368-1.944.144-8.352.432-10.008.432-.792,0-1.584-.216-1.584-1.152C31.536,86.568,34.128,82.032,34.776,80.88ZM15.408,99.312c5.544-.288,34.056-2.52,34.416-2.52a3.7,3.7,0,0,1,3.6,1.872c1.008,2.16,1.3,2.736,2.376,2.736,1.368,0,9-2.52,9-4.248,0-1.944-8.352-15.12-10.008-17.424a1.31,1.31,0,0,1-.288-.792c0-.72.864-.864,2.232-.864,1.44,0,3.456.216,5.472.216,1.512,0,1.872-.72,1.872-2.808V70.944c0-1.944-.288-2.808-1.8-2.808-3.168,0-6.336.216-9.5.216H19.008c-3.168,0-6.336-.216-9.5-.216-1.584,0-1.728.936-1.728,3.168v3.888c0,2.16.144,3.1,1.728,3.1,3.168,0,6.336-.216,9.5-.216h2.376c.792,0,1.944.144,1.944,1.152,0,.72-2.3,4.968-3.6,7.2-.288.576-.5,1.008-.648,1.224-.936,1.584-2.664,1.584-4.392,1.584h-1.08c-3.168,0-3.528.144-3.528,1.152a33.214,33.214,0,0,0,1.152,5.688c.72,2.88,1.224,4.824,2.16,4.824.5,0,.792-.36,1.008-.792A1.243,1.243,0,0,1,15.408,99.312Zm14.976-43.92c-.648,0-1.584,0-1.584-.936a2.528,2.528,0,0,1,.864-1.512c1.08-1.008,2.088-2.016,2.88-2.808,1.584-1.728,2.808-2.952,3.6-2.952,1.008,0,1.872,1.008,2.448,1.728.936,1.08,1.872,2.016,2.664,2.808,1.3,1.224,2.16,2.088,2.16,2.736,0,.936-1.008.936-1.584.936ZM42.12,64.68c2.16,0,4.392.144,6.552.144,1.08,0,1.512-.36,1.512-2.88v-.216c0-.576.144-1.3.792-1.3a1.892,1.892,0,0,1,1.08.5c1.872,1.368,10.08,6.84,12.1,6.84,2.232,0,5.04-6.408,5.04-8.352,0-.792-.432-1.08-2.376-1.872A59.276,59.276,0,0,1,45.432,42.5c-.432-.432-2.016-2.088-2.016-2.592a.7.7,0,0,1,.5-.576,1.43,1.43,0,0,0,.864-1.152c0-1.008-1.008-1.152-3.168-1.584-2.016-.432-8.208-1.584-9.288-1.584a1.434,1.434,0,0,0-1.3.792c-6.12,9.864-16.2,17.5-26.5,22.608-.5.288-1.008.576-1.008,1.224,0,2.016,3.168,7.56,5.688,7.56,2.016,0,8.784-4.752,10.656-6.12a1.328,1.328,0,0,1,.864-.36c.648,0,.864.72.864,1.224.072,2.3.288,2.88,1.512,2.88,2.016,0,4.392-.144,6.552-.144Zm79.2,3.6a2.156,2.156,0,0,1,2.232-2.376c2.448,0,4.824.144,7.272.144,1.8,0,1.944-.792,1.944-3.1V58.92c0-2.232-.144-3.024-1.944-3.024-2.448,0-4.9.216-7.272.216-1.008,0-2.232-.648-2.232-2.664V47.832c0-2.16,0-4.392.072-6.552a2.713,2.713,0,0,1,.576-1.944c.432-.36.72-.648.72-1.152,0-.792-.792-.936-1.368-1.008-2.52-.288-5.04-.5-7.488-.72a19.047,19.047,0,0,0-1.944-.144c-.72,0-1.44.216-1.44,1.08,0,.216.072.5.072.72.144,1.512.216,4.176.216,6.552v9.072c0,1.3-.432,2.376-1.944,2.376-2.232,0-4.392-.216-6.552-.216-1.8,0-1.944.792-1.944,3.024v4.032c0,2.3.144,3.1,1.944,3.1,2.16,0,4.392-.144,6.624-.144,1.368,0,1.872,1.08,1.872,2.3V86.352a2.012,2.012,0,0,1-2.016,2.016h-4.1c-2.592,0-5.184-.216-7.7-.216-1.872,0-1.944.936-1.944,3.6v3.384c0,2.52.216,3.24,1.944,3.24,2.52,0,5.112-.216,7.7-.216h21.312c2.592,0,5.112.216,7.7.216,1.656,0,1.872-.72,1.872-2.808V90.816c0-1.944-.216-2.664-1.872-2.664-2.52,0-5.112.216-7.7.216h-2.16a2.226,2.226,0,0,1-2.448-2.52ZM90.432,80.88c0-.432.072-1.224.648-1.224.288,0,.576.288.792.5.792.864,3.456,3.528,4.536,3.528,1.944,0,6.12-5.112,6.12-6.552,0-.792-1.3-1.584-2.016-2.088C99,73.9,97.2,72.456,95.832,71.16a8.631,8.631,0,0,0-.864-.792c-1.224-1.152-1.944-1.872-1.944-2.448A1.775,1.775,0,0,1,93.6,66.7c1.512-2.016,7.632-11.448,7.632-13.608,0-.936-1.08-2.3-1.656-3.024-1.3-1.656-2.232-2.736-4.464-2.736-.864,0-1.728.144-2.592.144a2.062,2.062,0,0,1-2.088-2.16V43.584c0-2.52.072-3.384.72-3.96.576-.5,1.368-.864,1.368-1.656,0-1.224-1.152-1.224-2.808-1.368-1.728-.216-6.912-.72-8.424-.72-.72,0-1.44.144-1.44,1.008,0,.216.072.5.072.72a44.157,44.157,0,0,1,.216,4.464v2.952c0,2.016-1.224,2.448-2.88,2.448-1.152,0-2.52-.216-3.816-.216-1.44,0-1.584.72-1.584,3.024v4.608c0,1.728.144,2.52,1.584,2.52,1.152,0,3.384-.216,5.544-.216h6.84c.5,0,1.728,0,1.728.576,0,.5-2.232,3.6-2.664,4.176A90.157,90.157,0,0,1,72,75.264c-.648.5-1.872,1.368-1.872,2.232s1.008,2.016,2.16,3.384L73.3,82.1c.72.864,1.872,2.16,3.024,2.16a3.14,3.14,0,0,0,1.944-.792,1.92,1.92,0,0,1,1.008-.5c.792,0,.864.864.864,1.44v4.248c0,3.528-.216,7.056-.216,10.584,0,1.728.792,1.872,3.384,1.872h4.464c2.16,0,2.88-.144,2.88-2.016,0-3.456-.216-6.912-.216-10.44Zm75.312-45.648c-.72,0-.864.5-1.08,1.584a35.532,35.532,0,0,1-3.384,8.928c-.576,1.008-1.224,1.3-4.752,1.3-2.376,0-4.968-.144-6.552-.144-2.3,0-2.592.072-2.592,4.536,0,5.4.216,5.616,2.664,5.616.936,0,1.944-.072,2.808-.072a1.046,1.046,0,0,1,1.08,1.008,1.594,1.594,0,0,1-.432,1.008c-2.3,3.24-6.984,10.728-9.936,14.112-.864.936-1.3,1.368-1.3,1.944,0,1.728,7.344,5.76,8.928,5.76a1.17,1.17,0,0,0,1.08-.792c2.088-3.744,4.248-7.56,7.632-10.224,2.16-1.656,7.128-4.176,9.864-4.176a2.053,2.053,0,0,1,2.232,1.872c0,.792-.576,1.152-1.224,1.44-1.3.648-2.736,1.44-3.96,2.16-5.256,3.1-10.368,6.984-10.368,13.752A11.689,11.689,0,0,0,163.8,96c4.248,1.944,7.56,2.3,12.6,2.3,3.528,0,10.728-.216,13.968-.864,2.088-.432,2.232-1.152,2.232-3.888,0-4.608-.072-7.2-1.8-7.2a8.693,8.693,0,0,0-1.8.216,60.531,60.531,0,0,1-13.392,1.8c-2.52,0-8.64,0-8.64-3.6,0-2.52,3.6-4.824,4.32-4.824a.911.911,0,0,1,.864,1.008v.36a17.652,17.652,0,0,0-.144,1.944c0,2.232,1.512,2.448,6.48,2.448,4.032,0,4.1-.072,4.1-4.68,0-1.584-.072-3.312-.072-4.176,0-1.944.288-2.592,2.016-3.312,3.312-1.368,5.472-2.3,8.928-3.6,1.44-.5,2.16-.72,2.16-1.656,0-1.656-2.52-9.936-4.32-9.936a2.516,2.516,0,0,0-.936.36c-.288.144-.792.432-1.44.792-2.16,1.224-5.976,3.384-6.7,3.384a1.292,1.292,0,0,1-1.224-.864c-.936-2.016-1.44-2.952-3.456-4.1a10.545,10.545,0,0,0-5.184-1.152,17.976,17.976,0,0,0-6.12,1.08,2.288,2.288,0,0,1-.648.216c-.288,0-.648-.144-.648-.5,0-.072.144-1.656,2.448-1.944,4.464-.5,9.36-1.368,13.32-2.088s4.608-1.008,4.608-2.088a31.668,31.668,0,0,0-.864-5.832c-.288-1.3-.648-2.808-2.232-2.808a6.383,6.383,0,0,0-2.016.5,32.543,32.543,0,0,1-5.832,1.584c-.5,0-.864-.216-.864-.792a4.66,4.66,0,0,1,1.944-2.736c.5-.144,1.3-.36,1.3-.936,0-.648-.936-1.152-2.232-1.728C173.376,38.184,166.536,35.232,165.744,35.232ZM227.16,55.968c1.872,0,3.672.072,5.472.072,1.944,0,1.728-.72,2.52-.72.5,0,.576.072,1.512.792a10.361,10.361,0,0,0,3.168,1.656c1.584,0,3.1-1.872,3.96-3.024.288-.36.72-1.008,1.152-1.008.5,0,.576.648.576,1.368V76.128c0,2.3,0,4.032-.144,5.4-.072.792-.072,1.44-.072,1.944,0,2.16.432,2.376,2.376,2.376h4.176c1.944,0,2.52-.144,2.52-1.584,0-2.736-.144-5.4-.144-8.136V49.416c0-2.3.072-2.592.72-2.88.5-.216,1.08-.576,1.08-1.152,0-.792-.5-.864-1.368-.936-1.3-.144-7.128-.576-8.208-.576-.576,0-1.152.072-1.152.792a1.622,1.622,0,0,0,.072.5c.072.72.144,1.656.144,2.376,0,.5-.216,1.008-.792,1.008-1.368,0-12.312-6.7-12.312-7.992a.655.655,0,0,1,.288-.576c.432-.288.792-.576.792-1.152,0-.936-.792-1.08-2.808-1.728-.432-.144-.648-.216-1.152-.36-1.224-.36-4.968-1.728-6.048-1.728-.864,0-1.3.576-1.8,1.224A57.678,57.678,0,0,1,204.7,50.424c-.5.216-1.3.576-1.3,1.3,0,1.8,3.168,6.12,4.68,6.912.576.288.72.36.72.864a1.406,1.406,0,0,1-.072.5,5.449,5.449,0,0,0-.072,1.08c0,1.584.144,3.312.144,5.04v3.024c0,6.984-1.3,17.208-4.968,23.328a7.684,7.684,0,0,0-1.152,2.3c0,1.656,5.328,5.616,7.776,5.616,1.44,0,2.088-1.008,3.312-3.672.5-1.08.72-1.944,1.152-1.944.288,0,.288.36.288.864,0,.648,0,2.376-.072,2.952a7.121,7.121,0,0,0-.072,1.08c0,1.008,1.08,1.08,2.088,1.08h4.176c2.376,0,2.952-.072,3.024-1.08.072-.864.648-1.152,1.44-1.152h5.256c.72,0,1.368.288,1.44,1.08.072,1.08.576,1.152,3.168,1.152h4.9c.792,0,1.944,0,1.944-1.08a8.244,8.244,0,0,0-.072-1.08c-.072-.864-.144-1.872-.144-2.736v-7.92c0-1.3.216-3.24.216-3.672,0-2.088-3.024-2.16-5.184-2.16-2.088,0-4.176.144-6.264.144h-4.536c-2.232,0-4.464-.144-6.768-.144h-.864a.852.852,0,0,1-.864-.936c0-.864.36-1.224,1.224-1.224h13.032c1.944,0,3.888.144,5.76.144,2.088,0,4.608,0,4.608-2.736,0-1.368-.216-2.808-.216-4.176V66.12c0-1.656.216-3.312.216-4.968,0-2.88-2.016-3.168-4.392-3.168-2.016,0-3.96.144-5.976.144h-13.32c-4.176,0-6.336,0-6.336-.792,0-.36.216-.576.648-.864s.5-.36.792-.576a4.039,4.039,0,0,1,1.728-1.008.862.862,0,0,1,.576.36c.36.5.5.792,1.656.792,1.872,0,3.816-.072,5.688-.072Zm40.392-11.3c0-4.968,0-5.472.792-5.832.5-.216,1.008-.576,1.008-1.152,0-1.08-1.512-1.152-2.3-1.224-2.376-.144-6.264-.5-8.424-.5-.576,0-1.3.072-1.3.864v.432a35.072,35.072,0,0,1,.216,5.04v44.28c0,3.528,0,4.032-1.872,4.032-1.584,0-3.528-.288-4.1-.288-1.584,0-1.728,1.656-1.728,2.88a18.486,18.486,0,0,0,1.08,6.264c.72,1.584,2.088,1.728,4.824,1.728,9.936,0,11.88-3.96,11.88-10.224,0-1.368-.072-3.024-.072-4.752ZM225.864,92.4a1.706,1.706,0,0,1-1.728-1.728v-.864a1.752,1.752,0,0,1,1.728-1.728h5.112a1.752,1.752,0,0,1,1.728,1.728v.864a1.752,1.752,0,0,1-1.728,1.728Zm5.976-20.952a.87.87,0,0,1,.936.936v.36a.953.953,0,0,1-.936.936H219.888c-.72,0-1.152-.288-1.152-1.08,0-1.08.576-1.152,1.368-1.152Zm-12.168-5.184a.87.87,0,0,1-.936-.936v-.216a.908.908,0,0,1,.936-.936H231.84a.908.908,0,0,1,.936.936v.216a.908.908,0,0,1-.936.936ZM223.7,49.992c-.792,0-1.44,0-1.44-.576,0-.288.5-.792,1.08-1.368S224.5,46.9,225.072,46.9A2.278,2.278,0,0,1,226.8,47.9c.5.576,1.3,1.152,1.3,1.584,0,.5-.432.5-1.3.5Zm86.976-10.08a11.162,11.162,0,0,0-3.1,1.152c-4.1,1.728-14.4,2.52-19.08,2.592h-1.656c-2.088,0-2.3,0-2.3,1.08v.72c0,1.368.432,9.5,2.088,9.5a3.506,3.506,0,0,0,.864-.072c1.872-.288,9.72-1.728,9.936-1.728.288,0,1.44.144,1.44,1.008,0,.72-.5,1.152-1.008,1.656-1.224,1.368-2.3,2.664-3.672,4.032-2.52,2.448-14.472,14.328-16.272,15.768-1.512,1.152-2.232,1.8-2.232,2.664,0,1.368,5.616,7.272,7.272,7.272.288,0,.864-.5,1.872-1.8a95.677,95.677,0,0,1,8.856-9.072,20.563,20.563,0,0,1,13.9-5.544c5.544,0,10.512,2.736,10.512,8.856,0,4.752-3.456,8.352-5.184,8.352a2.01,2.01,0,0,1-1.728-1.368,12.52,12.52,0,0,0-1.944-3.6,12.7,12.7,0,0,0-9.72-4.608c-5.544,0-10.8,4.248-10.8,10.008,0,8.28,9.144,11.016,15.912,11.016,12.528,0,24.408-6.84,24.408-20.592,0-8.136-4.824-14.4-12.6-16.776a23.857,23.857,0,0,0-5.04-.864c-.288,0-.576.072-.792.072a1.6,1.6,0,0,1-1.656-1.512,1.883,1.883,0,0,1,.648-1.3,60.987,60.987,0,0,1,8.856-7.272c.36-.216.792-.576.792-1.008C319.248,46.968,313.776,39.912,310.68,39.912Zm-7.488,48.1a1.7,1.7,0,0,1-1.8,1.584c-1.656,0-4.1-.936-4.1-2.88a2.072,2.072,0,0,1,2.3-1.944A3.585,3.585,0,0,1,303.192,88.008Zm47.088-10.08a10.3,10.3,0,1,0,10.3,10.3A10.233,10.233,0,0,0,350.28,77.928Zm0,4.248a6.048,6.048,0,1,1-6.048,6.048A6.054,6.054,0,0,1,350.28,82.176Z" transform="translate(-3.528 60.768)"/>
</svg>
