<svg xmlns="http://www.w3.org/2000/svg" width="34.272" height="26.064" viewBox="0 0 34.272 26.064">
  <path id="Path_407" data-name="Path 407" d="M32.544-40.176c-1.08-.288-1.872-.72-1.872-1.872,0-1.584,1.8-5.616,3.528-8.64a2.424,2.424,0,0,0,.432-1.224c0-.5-.432-.648-1.512-.648H30.6c-1.728,0-2.3.288-3.024,1.872-2.16,4.176-4.392,10.944-4.392,16.272,0,5.76,3.672,7.92,6.912,7.92,5.04,0,7.632-3.24,7.632-7.344C37.728-36.936,35.856-39.24,32.544-40.176Zm-19.728,0c-1.08-.288-1.872-.72-1.872-1.872,0-1.584,1.8-5.616,3.528-8.64a2.424,2.424,0,0,0,.432-1.224c0-.5-.432-.648-1.512-.648h-2.52c-1.728,0-2.3.288-3.024,1.872-2.16,4.176-4.392,10.944-4.392,16.272,0,5.76,3.672,7.92,6.912,7.92,5.04,0,7.632-3.24,7.632-7.344C18-36.936,16.128-39.24,12.816-40.176Z" transform="translate(-3.456 52.56)" fill="#fec20d"/>
</svg>
