<svg xmlns="http://www.w3.org/2000/svg" width="315.02" height="84.075" viewBox="0 0 315.02 84.075">
  <path id="Path_325" data-name="Path 325" d="M57.475-46.075c0-2.09.665-3.23,2.185-4.845,7.125-7.22,11.305-12.445,13.585-14.725a6.045,6.045,0,0,1,3.42-1.615c.57-.19,1.235-.38,1.235-1.045,0-.57-.76-1.52-1.9-2.375-2.85-2.09-10.83-7.885-12.255-7.885-.665,0-1.045.665-1.235,1.14A97.985,97.985,0,0,1,53.77-65.55,113.763,113.763,0,0,1,29.545-45.03c-4.655,2.945-13.49,7.98-18.525,9.88-.855.285-1.995.665-1.995,1.71,0,2.47,8.93,11.21,11.115,11.21S35.435-30.97,38-32.775c.665-.475,1.9-1.425,2.755-1.425,1.235,0,1.71.95,1.71,2.375V-10.64c0,4.275-.19,8.55-.19,12.825,0,2.185.665,2.755,5.13,2.755h3.9c4.75,0,6.365-.095,6.365-3.04,0-1.805-.1-3.61-.1-5.32,0-2.565-.095-5.13-.095-7.7Zm64.22-12.54c-3.325,0-7.41,2-9.88,4.085-6.365,5.415-13.3,12.065-20.52,16.055-.76.38-2.945,1.425-2.945,2.375,0,1.235,3.61,5.605,4.56,6.745,1.235,1.425,4.845,5.7,6.555,5.7,1.235,0,2.375-1.235,3.61-2.565,2.755-2.755,12.635-12.35,15.3-14.535a6.326,6.326,0,0,1,3.135-1.425c1.425,0,2.66,1.425,3.515,2.47,6.84,7.505,17.29,18.24,24.795,24.8,1.52,1.33,5.13,4.56,6.935,4.56,3.325,0,10.26-8.835,10.26-11.59A2.769,2.769,0,0,0,165.4-24.13c-11.115-8.075-19.1-15.58-28.69-25.365C132.05-54.245,127.68-58.615,121.7-58.615Zm26.22.1c-.95,0-5.8,3.61-5.8,4.94,0,.57.57,1.14,1.045,1.52a65.975,65.975,0,0,1,7.125,7.41c.285.38.855,1.045,1.33,1.045,1.045,0,5.51-3.8,5.51-5.51C157.13-50.54,148.865-58.52,147.915-58.52Zm3.99-3.135c0,.475.665,1.045,1.14,1.425a80.472,80.472,0,0,1,6.365,6.365c.95.95,1.8,1.8,2.185,1.8,1.14,0,5.415-3.8,5.415-5.51,0-1.52-8.455-9.215-9.31-9.215C156.56-66.785,151.9-63.08,151.9-61.655Zm42.465-10.07c-2.755,0-8.455,9.025-8.455,10.925,0,.95.95,1.52,1.71,2a97.844,97.844,0,0,1,15.96,11.115,4.143,4.143,0,0,0,2.375,1.425c2.185,0,8.93-7.695,8.93-10.45a2.031,2.031,0,0,0-.855-1.71,108.478,108.478,0,0,0-16.72-11.97A9.632,9.632,0,0,0,194.37-71.725ZM248.8-57.665c-1.045,0-1.8,1.045-2.66,2.28-.19.285-.38.475-.57.76-7.98,10.925-22.61,22.8-34.295,29.735a100.034,100.034,0,0,1-24.32,10.45c-.76.19-1.8.665-1.8,1.52,0,1.045,2.09,4.56,2.755,5.7A83.676,83.676,0,0,0,192.375.1c.38.665.95,1.52,1.71,1.52a.828.828,0,0,0,.76-.57,4.121,4.121,0,0,1,2.565-2.47c19-9.12,34.295-17.67,49.59-32.585,1.995-1.9,9.69-9.215,9.69-11.5,0-1.045-.95-3.04-1.615-4.465-.285-.38-.38-.76-.57-1.045C253.65-52.535,250.7-57.665,248.8-57.665ZM300.2-31.73c0-.95.1-2.28,1.425-2.28,1.52,0,9.31,7.03,10.925,8.55.57.57,1.52,1.52,2.375,1.52,2.185,0,9.12-7.695,9.12-9.595a2.446,2.446,0,0,0-.665-1.52,112.451,112.451,0,0,0-8.74-7.695c-1.235-.95-5.13-3.99-8.17-5.89a9.8,9.8,0,0,0-3.515-1.52c-.475,0-1.045.38-1.615.38-1.045,0-1.14-.855-1.14-1.33V-69.54a4.948,4.948,0,0,1,1.045-3.42,1.656,1.656,0,0,0,.57-1.14c0-.57-.475-.95-1.045-1.14-2.28-.665-13.49-1.9-14.63-1.9-1.33,0-1.52.57-1.52,1.805,0,2.945.19,7.885.19,11.78V-8.74c0,3.8-.19,7.505-.19,11.305,0,2.47,1.14,2.945,4.94,2.945h4.275c6.175,0,6.46-.38,6.46-4.94,0-3.23-.1-6.365-.1-9.5Z" transform="translate(-9.025 78.565)"/>
</svg>
