<svg xmlns="http://www.w3.org/2000/svg" width="267.805" height="84.931" viewBox="0 0 267.805 84.931">
  <path id="Path_324" data-name="Path 324" d="M56.335-75.62a1.234,1.234,0,0,0,.76-1.14c0-1.045-1.52-1.33-2.375-1.425-3.23-.19-9.405-.76-12.35-.76-1.52,0-2.28.38-2.28,1.995,0,4.18.285,8.265.285,12.35,0,7.41-.095,9.12-3.42,9.12H18.24c-3.8,0-7.6-.285-11.3-.285-2.47,0-2.66,1.14-2.66,4.37V-45.6c0,3.135.19,4.18,2.565,4.18,3.8,0,7.6-.285,11.4-.285H34.865c1.045,0,2.47,0,2.47,1.52,0,.95-1.8,5.6-2.28,6.65C29.83-21.85,19.1-13.205,7.41-8.455,6.27-7.98,4.94-7.41,4.94-5.89,4.94-4.465,6.175-1.33,6.745,0,8.075,2.945,9.69,5.985,11.78,5.985A10.149,10.149,0,0,0,15.77,4.56c.19-.095.475-.19.665-.285,11.78-5.8,22.42-15.39,28.785-27.075.475-.95,1.14-2.66,2.47-2.66a2.454,2.454,0,0,1,1.9,1.425A80.677,80.677,0,0,0,59.755-10.07,77.332,77.332,0,0,0,78.375,5.035a5.151,5.151,0,0,0,2.28.855c3.135,0,8.265-7.98,8.265-10.925,0-1.52-.855-1.9-2.09-2.565C74.765-14.155,67.735-21.375,61.37-31.73c-1.425-2.28-4.18-7.22-4.18-8.55,0-1.425,1.52-1.425,2.375-1.425h17.29c3.8,0,7.6.285,11.305.285,2.28,0,2.565-1.045,2.565-3.9V-51.87c0-2.945-.285-3.9-2.565-3.9-3.8,0-7.6.285-11.305.285H58.235c-1.9,0-3.23-.76-3.23-2.85,0-4.75.19-9.405.19-14.155A3.637,3.637,0,0,1,56.335-75.62ZM107.16-21.375c-.19,3.895-1.14,4.18-6.555,5.225-1.235.19-2.755.285-2.755,1.9A21.312,21.312,0,0,0,98.895-9.5c.475,1.425.855,2.85,1.14,4.085C100.89-2.09,101.555.19,102.5.19c.57,0,.76-.38.95-.76.76-2.09.57-2.185,2.85-2.945,3.99-1.33,17.195-6.08,20.615-7.6,1.615-.76,1.995-1.71,1.995-3.7v-3.135c0-3.7-.19-5.795-1.9-5.795a7,7,0,0,0-1.33.38,8.422,8.422,0,0,1-2.66.665,2.224,2.224,0,0,1-2-2.375V-41.61a2.534,2.534,0,0,1,2.565-2.47c.665,0,1.33.095,2.09.095,1.9,0,2.09-.95,2.09-4.465v-5.415c0-2.66-.19-3.8-1.995-3.8H123.5a2.514,2.514,0,0,1-2.47-2.47V-70.68c0-1.235.1-1.805,1.14-2.47,1.14-.665,1.9-.95,1.9-1.9,0-1.045-1.235-1.235-2.09-1.33-1.33-.1-12.065-.665-13.3-.665-1.14,0-1.9.19-1.9,1.425,0,1.14.38,3.8.38,8.455v7.03A2.267,2.267,0,0,1,104.6-57.57c-1.235,0-2.47-.1-3.8-.1-1.9,0-2.09.855-2.09,3.8v5.795c0,2.945.19,4.085,1.995,4.085,1.235,0,2.66-.19,3.8-.19a2.637,2.637,0,0,1,2.66,2.565ZM161.215-40.09c.285-3.515,2.565-5.035,4.655-5.035,1.33,0,1.33,1.14,1.33,2.66,0,10.925-.57,10.925-1.9,10.925h-1.235c-1.14,0-1.14,1.52-1.14,2.375,0,2.47.475,6.935,1.425,9.12.665,1.615,2.565,1.71,4.085,1.71,5.51,0,10.925-1.425,11.685-7.79.38-3.705.475-21.85.475-26.6v-2c0-1.8-.1-3.9-.665-4.75a7.343,7.343,0,0,0-5.89-3.23,13.22,13.22,0,0,0-5.13,1.52c-.95.475-5.51,2.565-6.175,2.565-1.33,0-1.52-1.33-1.52-2.565v-4.275c0-1.615,0-6.84.1-8.075a3.236,3.236,0,0,1,.855-2.28c.475-.475.855-.665.855-1.235,0-1.235-1.52-1.33-2.945-1.425-3.135-.1-6.935-.285-10.07-.285-.855,0-1.71,0-1.71,1.14,0,.95.285,3.8.285,8.455v13.49c0,2.375-1.425,4.56-3.04,4.56-1.425,0-1.425-1.71-1.425-2.755V-61.18a2.642,2.642,0,0,1,.855-2.28c.57-.38,1.33-.665,1.33-1.425,0-1.235-1.805-1.235-3.135-1.33-3.04-.19-7.885-.475-10.83-.475-.95,0-1.8.1-1.8,1.33a3.272,3.272,0,0,0,.1.855,57.263,57.263,0,0,1,.285,7.22v9.215c0,2.47-1.14,3.705-3.42,4.655-2.565,1.045-4.75,1.71-4.75,3.42,0,.855,3.8,10.735,5.7,10.735,1.615,0,2.47.1,2.47,1.805v15.77c0,2.28-.1,4.56-.1,6.84,0,9.31,5.6,10.165,13.4,10.165h24.795c3.8,0,8.075-.665,10.45-3.9,2.09-2.945,4.37-8.55,4.37-12.16,0-2.565-1.615-3.42-3.99-4.18a25.734,25.734,0,0,0-7.505-1.52c-1.71,0-1.71.665-2.09,2.28-.95,5.035-1.805,6.27-5.985,6.27h-15.96c-4.085,0-4.18-1.045-4.18-4.655V-32.585c0-2.375,1.235-4.655,3.135-4.655a1.4,1.4,0,0,1,1.33,1.52v5.985c0,4.465-.285,8.93-.285,13.4,0,2.185,1.14,2.375,4.18,2.375h5.13c2.945,0,3.895-.19,3.895-2.47,0-4.465-.285-8.93-.285-13.3ZM236.36-69.54c-22.9,0-40.47,18.145-40.47,40.945a32.156,32.156,0,0,0,3.135,14.25c2.85,5.415,8.075,9.785,14.44,9.785,5.7,0,10.26-3.61,13.775-7.885,8.74-10.45,12.54-26.6,13.585-39.8.1-1.71.285-3.42,1.9-3.42,2.85,0,14.25,5.89,14.25,20.805,0,12.16-9.025,19.1-20.045,21.945-2.755.665-3.61,1.045-3.61,1.9,0,2.66,5.035,11.4,8.36,11.4,2.66,0,8.93-2.945,11.305-4.275a35.6,35.6,0,0,0,19.1-31.54A33.429,33.429,0,0,0,262.01-59.85C255.17-66.69,246.05-69.54,236.36-69.54ZM225.15-53.58c.855,0,1.235.665,1.235,1.425,0,3.42-2.66,17.48-5.985,24.32-.95,1.995-4.18,8.265-6.46,8.265-3.325,0-3.9-6.935-3.9-9.215C210.045-44.84,222.395-53.58,225.15-53.58Z" transform="translate(-4.275 78.945)"/>
</svg>
