<svg xmlns="http://www.w3.org/2000/svg" width="126.008" height="78.315" viewBox="0 0 126.008 78.315">
  <g id="Group_678" data-name="Group 678" transform="translate(-423.45 -10527.877)">
    <path id="Path_382" data-name="Path 382" d="M-46.17-18.43a2.5,2.5,0,0,1,.874-1.938c2.85-2.888,4.522-4.978,5.434-5.89a2.418,2.418,0,0,1,1.368-.646c.228-.076.494-.152.494-.418,0-.228-.3-.608-.76-.95-1.14-.836-4.332-3.154-4.9-3.154-.266,0-.418.266-.494.456a39.194,39.194,0,0,1-3.5,4.75,45.505,45.505,0,0,1-9.69,8.208,53.467,53.467,0,0,1-7.41,3.952c-.342.114-.8.266-.8.684,0,.988,3.572,4.484,4.446,4.484s6.118-3.5,7.144-4.218a2.557,2.557,0,0,1,1.1-.57c.494,0,.684.38.684.95v8.474c0,1.71-.076,3.42-.076,5.13,0,.874.266,1.1,2.052,1.1h1.558c1.9,0,2.546-.038,2.546-1.216,0-.722-.038-1.444-.038-2.128,0-1.026-.038-2.052-.038-3.078Zm25.688-5.016a6.918,6.918,0,0,0-3.952,1.634c-2.546,2.166-5.32,4.826-8.208,6.422-.3.152-1.178.57-1.178.95,0,.494,1.444,2.242,1.824,2.7.494.57,1.938,2.28,2.622,2.28.494,0,.95-.494,1.444-1.026,1.1-1.1,5.054-4.94,6.118-5.814a2.531,2.531,0,0,1,1.254-.57c.57,0,1.064.57,1.406.988,2.736,3,6.916,7.3,9.918,9.918.608.532,2.052,1.824,2.774,1.824,1.33,0,4.1-3.534,4.1-4.636A1.107,1.107,0,0,0-3-9.652,85.636,85.636,0,0,1-14.478-19.8C-16.34-21.7-18.088-23.446-20.482-23.446Zm10.488.038c-.38,0-2.318,1.444-2.318,1.976,0,.228.228.456.418.608a26.39,26.39,0,0,1,2.85,2.964c.114.152.342.418.532.418.418,0,2.2-1.52,2.2-2.2C-6.308-20.216-9.614-23.408-9.994-23.408Zm1.6-1.254c0,.19.266.418.456.57A32.189,32.189,0,0,1-5.4-21.546c.38.38.722.722.874.722.456,0,2.166-1.52,2.166-2.2,0-.608-3.382-3.686-3.724-3.686C-6.536-26.714-8.4-25.232-8.4-24.662ZM8.588-28.69c-1.1,0-3.382,3.61-3.382,4.37,0,.38.38.608.684.8a39.138,39.138,0,0,1,6.384,4.446,1.657,1.657,0,0,0,.95.57c.874,0,3.572-3.078,3.572-4.18a.813.813,0,0,0-.342-.684,43.391,43.391,0,0,0-6.688-4.788A3.853,3.853,0,0,0,8.588-28.69Zm21.774,5.624c-.418,0-.722.418-1.064.912-.076.114-.152.19-.228.3-3.192,4.37-9.044,9.12-13.718,11.894a40.013,40.013,0,0,1-9.728,4.18c-.3.076-.722.266-.722.608A9.611,9.611,0,0,0,6-2.888,33.471,33.471,0,0,0,7.79.038c.152.266.38.608.684.608a.331.331,0,0,0,.3-.228A1.648,1.648,0,0,1,9.8-.57C17.4-4.218,23.522-7.638,29.64-13.6c.8-.76,3.876-3.686,3.876-4.6a6.045,6.045,0,0,0-.646-1.786c-.114-.152-.152-.3-.228-.418C32.3-21.014,31.122-23.066,30.362-23.066ZM50.92-12.692c0-.38.038-.912.57-.912.608,0,3.724,2.812,4.37,3.42.228.228.608.608.95.608.874,0,3.648-3.078,3.648-3.838a.978.978,0,0,0-.266-.608A44.98,44.98,0,0,0,56.7-17.1c-.494-.38-2.052-1.6-3.268-2.356a3.92,3.92,0,0,0-1.406-.608c-.19,0-.418.152-.646.152-.418,0-.456-.342-.456-.532v-7.372a1.979,1.979,0,0,1,.418-1.368.662.662,0,0,0,.228-.456c0-.228-.19-.38-.418-.456a56.43,56.43,0,0,0-5.852-.76c-.532,0-.608.228-.608.722,0,1.178.076,3.154.076,4.712V-3.5c0,1.52-.076,3-.076,4.522,0,.988.456,1.178,1.976,1.178h1.71c2.47,0,2.584-.152,2.584-1.976,0-1.292-.038-2.546-.038-3.8Z" transform="translate(489 10603.988)"/>
    <path id="Path_381" data-name="Path 381" d="M-33.706-30.248a.494.494,0,0,0,.3-.456c0-.418-.608-.532-.95-.57-1.292-.076-3.762-.3-4.94-.3-.608,0-.912.152-.912.8,0,1.672.114,3.306.114,4.94,0,2.964-.038,3.648-1.368,3.648h-7.486c-1.52,0-3.04-.114-4.522-.114-.988,0-1.064.456-1.064,1.748v2.318c0,1.254.076,1.672,1.026,1.672,1.52,0,3.04-.114,4.56-.114h6.65c.418,0,.988,0,.988.608a15.765,15.765,0,0,1-.912,2.66C-44.308-8.74-48.6-5.282-53.276-3.382c-.456.19-.988.418-.988,1.026A8.876,8.876,0,0,0-53.542,0c.532,1.178,1.178,2.394,2.014,2.394a4.06,4.06,0,0,0,1.6-.57c.076-.038.19-.076.266-.114A26.626,26.626,0,0,0-38.152-9.12c.19-.38.456-1.064.988-1.064a.982.982,0,0,1,.76.57,32.271,32.271,0,0,0,4.066,5.586A30.933,30.933,0,0,0-24.89,2.014a2.06,2.06,0,0,0,.912.342c1.254,0,3.306-3.192,3.306-4.37,0-.608-.342-.76-.836-1.026a25.04,25.04,0,0,1-10.184-9.652,13.871,13.871,0,0,1-1.672-3.42c0-.57.608-.57.95-.57H-25.5c1.52,0,3.04.114,4.522.114.912,0,1.026-.418,1.026-1.558v-2.622c0-1.178-.114-1.558-1.026-1.558-1.52,0-3.04.114-4.522.114h-7.448c-.76,0-1.292-.3-1.292-1.14,0-1.9.076-3.762.076-5.662A1.455,1.455,0,0,1-33.706-30.248Zm20.33,21.7c-.076,1.558-.456,1.672-2.622,2.09-.494.076-1.1.114-1.1.76a8.525,8.525,0,0,0,.418,1.9c.19.57.342,1.14.456,1.634.342,1.33.608,2.242.988,2.242.228,0,.3-.152.38-.3.3-.836.228-.874,1.14-1.178,1.6-.532,6.878-2.432,8.246-3.04.646-.3.8-.684.8-1.482V-7.182c0-1.482-.076-2.318-.76-2.318a2.8,2.8,0,0,0-.532.152,3.369,3.369,0,0,1-1.064.266.89.89,0,0,1-.8-.95v-6.612A1.014,1.014,0,0,1-6.8-17.632c.266,0,.532.038.836.038.76,0,.836-.38.836-1.786v-2.166c0-1.064-.076-1.52-.8-1.52H-6.84a1.006,1.006,0,0,1-.988-.988v-4.218c0-.494.038-.722.456-.988.456-.266.76-.38.76-.76,0-.418-.494-.494-.836-.532-.532-.038-4.826-.266-5.32-.266-.456,0-.76.076-.76.57,0,.456.152,1.52.152,3.382v2.812A.907.907,0,0,1-14.4-23.028c-.494,0-.988-.038-1.52-.038-.76,0-.836.342-.836,1.52v2.318c0,1.178.076,1.634.8,1.634.494,0,1.064-.076,1.52-.076a1.055,1.055,0,0,1,1.064,1.026ZM8.246-16.036a1.941,1.941,0,0,1,1.862-2.014c.532,0,.532.456.532,1.064,0,4.37-.228,4.37-.76,4.37H9.386c-.456,0-.456.608-.456.95A11.634,11.634,0,0,0,9.5-8.018c.266.646,1.026.684,1.634.684,2.2,0,4.37-.57,4.674-3.116.152-1.482.19-8.74.19-10.64v-.8a4.38,4.38,0,0,0-.266-1.9,2.937,2.937,0,0,0-2.356-1.292,5.288,5.288,0,0,0-2.052.608,18.081,18.081,0,0,1-2.47,1.026c-.532,0-.608-.532-.608-1.026v-1.71c0-.646,0-2.736.038-3.23a1.294,1.294,0,0,1,.342-.912c.19-.19.342-.266.342-.494,0-.494-.608-.532-1.178-.57-1.254-.038-2.774-.114-4.028-.114-.342,0-.684,0-.684.456,0,.38.114,1.52.114,3.382v5.4c0,.95-.57,1.824-1.216,1.824-.57,0-.57-.684-.57-1.1v-2.926a1.057,1.057,0,0,1,.342-.912c.228-.152.532-.266.532-.57,0-.494-.722-.494-1.254-.532-1.216-.076-3.154-.19-4.332-.19-.38,0-.722.038-.722.532a1.309,1.309,0,0,0,.038.342,22.905,22.905,0,0,1,.114,2.888v3.686a1.83,1.83,0,0,1-1.368,1.862c-1.026.418-1.9.684-1.9,1.368,0,.342,1.52,4.294,2.28,4.294.646,0,.988.038.988.722v6.308c0,.912-.038,1.824-.038,2.736,0,3.724,2.242,4.066,5.358,4.066h9.918c1.52,0,3.23-.266,4.18-1.558A10.321,10.321,0,0,0,17.29-4.294c0-1.026-.646-1.368-1.6-1.672a10.294,10.294,0,0,0-3-.608c-.684,0-.684.266-.836.912-.38,2.014-.722,2.508-2.394,2.508H3.078c-1.634,0-1.672-.418-1.672-1.862v-8.018c0-.95.494-1.862,1.254-1.862a.561.561,0,0,1,.532.608v2.394c0,1.786-.114,3.572-.114,5.358,0,.874.456.95,1.672.95H6.8c1.178,0,1.558-.076,1.558-.988,0-1.786-.114-3.572-.114-5.32ZM38.3-27.816A16.1,16.1,0,0,0,22.116-11.438a12.862,12.862,0,0,0,1.254,5.7,6.769,6.769,0,0,0,5.776,3.914c2.28,0,4.1-1.444,5.51-3.154,3.5-4.18,5.016-10.64,5.434-15.922.038-.684.114-1.368.76-1.368,1.14,0,5.7,2.356,5.7,8.322,0,4.864-3.61,7.638-8.018,8.778-1.1.266-1.444.418-1.444.76,0,1.064,2.014,4.56,3.344,4.56a14.582,14.582,0,0,0,4.522-1.71,14.242,14.242,0,0,0,7.638-12.616,13.372,13.372,0,0,0-4.028-9.766A14.091,14.091,0,0,0,38.3-27.816ZM33.82-21.432c.342,0,.494.266.494.57a34.344,34.344,0,0,1-2.394,9.728c-.38.8-1.672,3.306-2.584,3.306-1.33,0-1.558-2.774-1.558-3.686C27.778-17.936,32.718-21.432,33.82-21.432Z" transform="translate(487.667 10559.455)"/>
  </g>
</svg>
