<svg xmlns="http://www.w3.org/2000/svg" width="105.37" height="77.158" viewBox="0 0 105.37 77.158">
  <g id="Union_4" data-name="Union 4" transform="translate(0 0)" fill="#f24387">
    <path d="M 61.56118011474609 75.65849304199219 L 61.56116485595703 75.65849304199219 C 60.60827255249023 75.65852355957031 59.69524383544922 75.36118316650391 58.9207649230957 74.79859924316406 L 53.69012069702148 70.99801635742188 C 52.99176788330078 70.49070739746094 52.45759582519531 69.80044555664062 52.14521408081055 69.00175476074219 L 51.14645767211914 66.44807434082031 L 49.53473663330078 68.66642761230469 L 48.1325798034668 70.59632110595703 C 47.28861236572266 71.75815582275391 45.9259033203125 72.45175170898438 44.48725891113281 72.45179748535156 C 43.53436660766602 72.45182800292969 42.62133407592773 72.15448760986328 41.84688949584961 71.59190368652344 L 36.60892105102539 67.78673553466797 C 36.40059661865234 67.63527679443359 36.20439529418945 67.46559906005859 36.02621078491211 67.28270721435547 L 34.78433609008789 66.00807952880859 L 33.73831939697266 67.44779968261719 L 30.9119815826416 71.33792114257812 C 30.06801223754883 72.499755859375 28.7053050994873 73.19335174560547 27.26665878295898 73.19339752197266 C 26.31376647949219 73.19342803955078 25.40073585510254 72.89608764648438 24.62628936767578 72.33350372314453 L 19.4003963470459 68.537109375 L 18.1868896484375 67.65554046630859 L 17.30525779724121 68.86899566650391 L 16.05027389526367 70.59632110595703 C 15.2063045501709 71.75815582275391 13.84359645843506 72.45175170898438 12.40496635437012 72.45179748535156 C 11.45205879211426 72.45182800292969 10.53902721405029 72.15448760986328 9.764581680297852 71.59190368652344 L 4.526612281799316 67.78673553466797 C 2.519658327102661 66.32767486572266 2.072827577590942 63.50790786743164 3.53096604347229 61.50127410888672 L 9.247197151184082 53.63355255126953 L 10.18982791900635 52.33613586425781 L 8.832381248474121 51.48220062255859 C 8.745704650878906 51.42767715454102 8.660258293151855 51.36987686157227 8.578412055969238 51.31042861938477 L 3.355904579162598 47.5152587890625 C 2.383227586746216 46.80870819091797 1.74413526058197 45.76587677001953 1.556119918823242 44.57873916625977 C 1.368104577064514 43.39155197143555 1.653658390045166 42.20210647583008 2.360196828842163 41.2294921875 L 23.97902679443359 11.47378349304199 C 24.82304382324219 10.3119068145752 26.18572044372559 9.618306159973145 27.62428855895996 9.618306159973145 C 28.5772590637207 9.618306159973145 29.49032020568848 9.915644645690918 30.26471900939941 10.47819900512695 L 35.48821258544922 14.27341461181641 C 35.57041168212891 14.33315277099609 35.651611328125 14.39639854431152 35.72947311401367 14.46133708953857 L 36.96110534667969 15.48864555358887 L 37.9037971496582 14.19112205505371 L 45.77611923217773 3.355783462524414 C 46.62044143676758 2.19399881362915 47.98345947265625 1.500306606292725 49.42202758789062 1.500306606292725 C 50.37484359741211 1.500306606292725 51.28759765625 1.797598958015442 52.06162643432617 2.360060453414917 L 57.28770446777344 6.156599044799805 L 58.50121307373047 7.038167953491211 L 59.38284301757812 5.824706554412842 L 60.6378288269043 4.097383499145508 C 61.48184204101562 2.935506582260132 62.84467315673828 2.241906642913818 64.28347015380859 2.241906642913818 C 65.23645782470703 2.241906642913818 66.14930725097656 2.539198875427246 66.92333221435547 3.101660490036011 L 72.16149139404297 6.906968116760254 C 72.37032318115234 7.058675765991211 72.56652069091797 7.228260517120361 72.74465942382812 7.410998821258545 L 73.98654937744141 8.684967994689941 L 75.03228759765625 7.245629787445068 L 77.85842895507812 3.355783462524414 C 78.70275115966797 2.19399881362915 80.06575012207031 1.500306606292725 81.50433349609375 1.500306606292725 C 82.4571533203125 1.500306606292725 83.36990356445312 1.797598958015442 84.14393615722656 2.360060453414917 L 89.38208770751953 6.16536808013916 C 90.35458374023438 6.871798992156982 90.99367523193359 7.914629459381104 91.18167114257812 9.101768493652344 C 91.36968994140625 10.28895282745361 91.08413696289062 11.4783992767334 90.37759399414062 12.45101451873779 L 88.29710388183594 15.31459903717041 L 86.68528747558594 17.5330753326416 L 89.42276763916016 17.69370651245117 C 90.27882385253906 17.74393653869629 91.10037994384766 18.03858375549316 91.79861450195312 18.54579925537109 L 97.02928924560547 22.34639930725098 C 99.03678131103516 23.8046760559082 99.48335266113281 26.62439918518066 98.02490234375 28.63212203979492 L 95.67611694335938 31.86495208740234 L 94.64836883544922 33.27952194213867 L 96.20281219482422 34.08013916015625 C 96.40719604492188 34.1854133605957 96.60588836669922 34.30787658691406 96.79336547851562 34.44412231445312 L 102.0152587890625 38.23856735229492 C 104.0227813720703 39.69687652587891 104.469352722168 42.51659774780273 103.0109024047852 44.52432250976562 L 83.95167541503906 70.75650787353516 C 83.10770416259766 71.91835021972656 81.7449951171875 72.61195373535156 80.30636596679688 72.61199951171875 C 79.35347747802734 72.61203002929688 78.4404296875 72.31468963623047 77.66598510742188 71.75210571289062 L 72.44422912597656 67.95863342285156 C 72.25662994384766 67.82231903076172 72.07868957519531 67.67110443115234 71.91551971435547 67.50929260253906 L 70.67372131347656 66.2779541015625 L 69.64582824707031 67.6927490234375 L 65.20647430419922 73.80303192138672 C 64.36250305175781 74.96484375 62.99979782104492 75.658447265625 61.56118011474609 75.65849304199219 Z" stroke="none"/>
    <path d="M 61.56113433837891 74.15850067138672 L 61.56108474731445 74.15850067138672 C 62.53546905517578 74.15845489501953 63.42180252075195 73.70760345458984 63.99295043945312 72.92134857177734 L 70.48825073242188 63.98126983642578 L 72.97184753417969 66.44429779052734 C 73.08080291748047 66.55235290527344 73.19999694824219 66.65361785888672 73.32585144042969 66.74507141113281 L 78.54756927490234 70.53849792480469 C 79.06406402587891 70.91370391845703 79.67223358154297 71.11201477050781 80.30632019042969 71.11199951171875 C 81.28067016601562 71.11196899414062 82.16698455810547 70.66111755371094 82.73816680908203 69.87481689453125 L 101.7973022460938 43.64273452758789 C 102.2683868408203 42.99423599243164 102.4587860107422 42.20120239257812 102.3334350585938 41.40970230102539 C 102.2081146240234 40.61835098266602 101.7820816040039 39.92320251464844 101.1334838867188 39.45203399658203 L 95.91162109375 35.65758514404297 C 95.78572082519531 35.56610107421875 95.65261840820312 35.48403549194336 95.51601409912109 35.41366958618164 L 92.4071044921875 33.81245040893555 L 96.81130218505859 27.75053405761719 C 97.28238677978516 27.10203552246094 97.47278594970703 26.30900192260742 97.34743499755859 25.51750183105469 C 97.22211456298828 24.72615242004395 96.79608154296875 24.03100204467773 96.14755249023438 23.55988502502441 L 90.91703033447266 19.75938415527344 C 90.45124816894531 19.42103576660156 89.90415191650391 19.22451782226562 89.33488464355469 19.19111824035645 L 83.8599853515625 18.86983489990234 L 89.16400146484375 11.56943511962891 C 89.63508605957031 10.92093467712402 89.82548522949219 10.12790107727051 89.70013427734375 9.33640193939209 C 89.57481384277344 8.545051574707031 89.14878082275391 7.849901676177979 88.50046539306641 7.378951549530029 L 83.26216888427734 3.5735182762146 C 82.74610137939453 3.1985182762146 82.13825225830078 3.000301599502563 81.50433349609375 3.000301599502563 C 80.52991485595703 3.000301599502563 79.64324951171875 3.451351404190063 79.07195281982422 4.237451553344727 L 74.154296875 11.00603485107422 L 71.6705322265625 8.45801830291748 C 71.55158233642578 8.33598518371582 71.420166015625 8.222451210021973 71.27986907958984 8.120551109313965 L 66.04156494140625 4.315118312835693 C 65.52549743652344 3.940118074417114 64.91754913330078 3.741901397705078 64.28347015380859 3.741901397705078 C 63.30895233154297 3.741901397705078 62.42253494262695 4.192751407623291 61.85136795043945 4.97905158996582 L 58.83313369750977 9.133317947387695 L 51.17986679077148 3.5735182762146 C 50.66379928588867 3.1985182762146 50.05595016479492 3.000301599502563 49.42203521728516 3.000301599502563 C 48.44761657714844 3.000301599502563 47.56095123291016 3.451351404190063 46.98965072631836 4.237451553344727 L 37.23186874389648 17.66788482666016 L 34.76861572265625 15.61318492889404 C 34.71638488769531 15.56960105895996 34.66180038452148 15.52710151672363 34.60650253295898 15.48691844940186 L 29.38313484191895 11.69180107116699 C 28.86665153503418 11.31661796569824 28.25845146179199 11.11830139160156 27.6242847442627 11.11830139160156 C 26.65001678466797 11.11830139160156 25.76373481750488 11.56915187835693 25.19255065917969 12.3554515838623 L 3.573800802230835 42.11106872558594 C 3.102717399597168 42.75956726074219 2.912317276000977 43.5526008605957 3.037667274475098 44.34410095214844 C 3.162984132766724 45.13545227050781 3.589017391204834 45.83060073852539 4.237700462341309 46.30181884765625 L 9.459783554077148 50.09668350219727 C 9.515050888061523 50.13681793212891 9.572600364685059 50.17573547363281 9.630800247192383 50.21235275268555 L 12.34618377685547 51.92010116577148 L 4.744417190551758 62.38305282592773 C 3.77238392829895 63.72071838378906 4.070550918579102 65.60066986083984 5.408234119415283 66.57315063476562 L 10.64616775512695 70.37830352783203 C 11.1626672744751 70.75350189208984 11.77083396911621 70.95182037353516 12.40491771697998 70.95180511474609 C 13.37926769256592 70.95176696777344 14.26558399200439 70.50091552734375 14.83675098419189 69.71465301513672 L 17.85500144958496 65.56038665771484 L 25.50786781311035 71.11990356445312 C 26.02436828613281 71.49510192871094 26.63253402709961 71.69342041015625 27.26661682128906 71.69340515136719 C 28.240966796875 71.69336700439453 29.12728309631348 71.24251556396484 29.69845008850098 70.45625305175781 L 34.61691665649414 63.68656921386719 L 37.10066604614258 66.23600006103516 C 37.21973419189453 66.35821533203125 37.35116577148438 66.47185516357422 37.49053573608398 66.57315063476562 L 42.72846603393555 70.37830352783203 C 43.24496841430664 70.75350189208984 43.85313415527344 70.95182037353516 44.48721694946289 70.95180511474609 C 45.46156692504883 70.95176696777344 46.34788513183594 70.50091552734375 46.91905212402344 69.71465301513672 L 51.5446662902832 63.34800338745117 L 53.54216766357422 68.45539855957031 C 53.7498664855957 68.98646545410156 54.10581588745117 69.44599914550781 54.57184982299805 69.78451538085938 L 59.8023681640625 73.58502197265625 C 60.31886672973633 73.960205078125 60.92703247070312 74.15851593017578 61.56113433837891 74.15850067138672 M 61.56121826171875 77.15850067138672 C 60.33831787109375 77.15853118896484 59.10435104370117 76.78594970703125 58.03919982910156 76.01219940185547 L 52.80839920043945 72.21150207519531 C 51.84553527832031 71.51206970214844 51.15180206298828 70.57993316650391 50.74824905395508 69.54810333251953 L 49.34609985351562 71.47800445556641 C 47.39849472045898 74.15911102294922 43.64638519287109 74.75308227539062 40.96530151367188 72.80550384521484 L 35.72730255126953 69.00030517578125 C 35.44560241699219 68.79551696777344 35.18693542480469 68.57077026367188 34.95185089111328 68.3294677734375 L 32.1254997253418 72.2196044921875 C 30.17790031433105 74.90070343017578 26.42580223083496 75.49468994140625 23.74470138549805 73.54710388183594 L 18.51878356933594 69.75067138671875 L 17.26380157470703 71.47800445556641 C 15.31619930267334 74.15910339355469 11.56409931182861 74.75309753417969 8.883000373840332 72.80550384521484 L 3.645000696182251 69.00030517578125 C 0.9648007154464722 67.05180358886719 0.3699007034301758 63.29970169067383 2.317500591278076 60.61950302124023 L 8.03366756439209 52.75186920166016 C 7.919767379760742 52.68023300170898 7.807267189025879 52.6042366027832 7.696800708770752 52.52400207519531 L 2.474100589752197 48.72870254516602 C -0.2069993168115616 46.78110122680664 -0.8009992837905884 43.02900314331055 1.146600723266602 40.347900390625 L 22.76550102233887 10.59210109710693 C 24.71309852600098 7.911001682281494 28.4651985168457 7.316998958587646 31.14630126953125 9.264601707458496 L 36.36989974975586 13.05990123748779 C 36.48031616210938 13.14013481140137 36.58696746826172 13.22326850891113 36.69026565551758 13.30943489074707 L 44.56259918212891 2.474101543426514 C 46.51110076904297 -0.2069990485906601 50.26319885253906 -0.800997793674469 52.94340133666992 1.146601438522339 L 58.16933441162109 4.943034648895264 L 59.42430114746094 3.215701580047607 C 61.37189865112305 0.534599781036377 65.12490844726562 -0.05939666554331779 67.80509948730469 1.888201475143433 L 73.04309844970703 5.693401336669922 C 73.32488250732422 5.898101329803467 73.5836181640625 6.122718334197998 73.81876373291016 6.363951683044434 L 76.6448974609375 2.474101543426514 C 78.59340667724609 -0.207001194357872 82.34549713134766 -0.8009954690933228 85.02570343017578 1.146601438522339 L 90.26370239257812 4.951801300048828 C 92.94480133056641 6.899401664733887 93.53880310058594 10.65150165557861 91.59120178222656 13.33260154724121 L 89.51063537597656 16.19626808166504 C 90.61656951904297 16.26116752624512 91.71733093261719 16.63275146484375 92.68019866943359 17.33220100402832 L 97.91100311279297 21.13290214538574 C 100.5921020507812 23.08050155639648 101.1861038208008 26.83260154724121 99.23850250244141 29.51370239257812 L 96.8896484375 32.74663543701172 C 97.15943145751953 32.88558578491211 97.42213439941406 33.04680252075195 97.67520141601562 33.2307014465332 L 102.8970031738281 37.02510070800781 C 105.5781021118164 38.97270202636719 106.1721038818359 42.72480010986328 104.2245025634766 45.40590286254883 L 85.16519927978516 71.63819885253906 C 83.21759796142578 74.31929779052734 79.46548461914062 74.91329193115234 76.78440093994141 72.9656982421875 L 71.56259918212891 69.17220306396484 C 71.30936431884766 68.98818206787109 71.07496643066406 68.78825378417969 70.85935211181641 68.57441711425781 L 66.41999816894531 74.68470001220703 C 65.24613189697266 76.30066680908203 63.41653442382812 77.15841674804688 61.56121826171875 77.15850067138672 Z" stroke="none" fill="#000"/>
  </g>
</svg>
