<svg xmlns="http://www.w3.org/2000/svg" width="305.171" height="135.146" viewBox="0 0 305.171 135.146">
  <g id="Message" transform="translate(-49.115 -1625.332)">
    <path id="Path_374" data-name="Path 374" d="M27.871-37.412a.611.611,0,0,0,.376-.564c0-.517-.752-.658-1.175-.7-1.6-.094-4.653-.376-6.11-.376-.752,0-1.128.188-1.128.987,0,2.068.141,4.089.141,6.11,0,3.666-.047,4.512-1.692,4.512H9.024c-1.88,0-3.76-.141-5.593-.141-1.222,0-1.316.564-1.316,2.162v2.867c0,1.551.094,2.068,1.269,2.068,1.88,0,3.76-.141,5.64-.141h8.225c.517,0,1.222,0,1.222.752a19.5,19.5,0,0,1-1.128,3.29C14.758-10.81,9.447-6.533,3.666-4.183c-.564.235-1.222.517-1.222,1.269A10.978,10.978,0,0,0,3.337,0C4,1.457,4.794,2.961,5.828,2.961a5.021,5.021,0,0,0,1.974-.7c.094-.047.235-.094.329-.141a32.932,32.932,0,0,0,14.241-13.4c.235-.47.564-1.316,1.222-1.316a1.214,1.214,0,0,1,.94.7,39.914,39.914,0,0,0,5.029,6.909,38.259,38.259,0,0,0,9.212,7.473,2.548,2.548,0,0,0,1.128.423c1.551,0,4.089-3.948,4.089-5.405,0-.752-.423-.94-1.034-1.269A30.97,30.97,0,0,1,30.362-15.7c-.7-1.128-2.068-3.572-2.068-4.23,0-.7.752-.7,1.175-.7h8.554c1.88,0,3.76.141,5.593.141,1.128,0,1.269-.517,1.269-1.927v-3.243c0-1.457-.141-1.927-1.269-1.927-1.88,0-3.76.141-5.593.141H28.811c-.94,0-1.6-.376-1.6-1.41,0-2.35.094-4.653.094-7A1.8,1.8,0,0,1,27.871-37.412ZM55.366-10.575c-.094,1.927-.564,2.068-3.243,2.585-.611.094-1.363.141-1.363.94a10.544,10.544,0,0,0,.517,2.35c.235.705.423,1.41.564,2.021.423,1.645.752,2.773,1.222,2.773.282,0,.376-.188.47-.376.376-1.034.282-1.081,1.41-1.457,1.974-.658,8.507-3.008,10.2-3.76.8-.376.987-.846.987-1.833V-8.883c0-1.833-.094-2.867-.94-2.867a3.462,3.462,0,0,0-.658.188,4.167,4.167,0,0,1-1.316.329,1.1,1.1,0,0,1-.987-1.175v-8.178A1.254,1.254,0,0,1,63.5-21.808c.329,0,.658.047,1.034.047.94,0,1.034-.47,1.034-2.209v-2.679c0-1.316-.094-1.88-.987-1.88H63.45a1.244,1.244,0,0,1-1.222-1.222v-5.217c0-.611.047-.893.564-1.222.564-.329.94-.47.94-.94,0-.517-.611-.611-1.034-.658-.658-.047-5.969-.329-6.58-.329-.564,0-.94.094-.94.7,0,.564.188,1.88.188,4.183v3.478A1.122,1.122,0,0,1,54.1-28.482c-.611,0-1.222-.047-1.88-.047-.94,0-1.034.423-1.034,1.88v2.867c0,1.457.094,2.021.987,2.021.611,0,1.316-.094,1.88-.094a1.3,1.3,0,0,1,1.316,1.269Zm26.743-9.259a2.4,2.4,0,0,1,2.3-2.491c.658,0,.658.564.658,1.316,0,5.4-.282,5.4-.94,5.4h-.611c-.564,0-.564.752-.564,1.175a14.389,14.389,0,0,0,.705,4.512c.329.8,1.269.846,2.021.846,2.726,0,5.4-.7,5.781-3.854.188-1.833.235-10.81.235-13.16v-.987a5.417,5.417,0,0,0-.329-2.35,3.633,3.633,0,0,0-2.914-1.6,6.541,6.541,0,0,0-2.538.752A22.363,22.363,0,0,1,82.861-29c-.658,0-.752-.658-.752-1.269v-2.115c0-.8,0-3.384.047-4a1.6,1.6,0,0,1,.423-1.128c.235-.235.423-.329.423-.611,0-.611-.752-.658-1.457-.705-1.551-.047-3.431-.141-4.982-.141-.423,0-.846,0-.846.564,0,.47.141,1.88.141,4.183v6.674c0,1.175-.705,2.256-1.5,2.256-.705,0-.705-.846-.705-1.363v-3.619a1.307,1.307,0,0,1,.423-1.128c.282-.188.658-.329.658-.7,0-.611-.893-.611-1.551-.658-1.5-.094-3.9-.235-5.358-.235-.47,0-.893.047-.893.658a1.619,1.619,0,0,0,.047.423,28.331,28.331,0,0,1,.141,3.572v4.559a2.264,2.264,0,0,1-1.692,2.3c-1.269.517-2.35.846-2.35,1.692,0,.423,1.88,5.311,2.82,5.311.8,0,1.222.047,1.222.893v7.8c0,1.128-.047,2.256-.047,3.384,0,4.606,2.773,5.029,6.627,5.029H85.963c1.88,0,4-.329,5.17-1.927a12.766,12.766,0,0,0,2.162-6.016c0-1.269-.8-1.692-1.974-2.068a12.731,12.731,0,0,0-3.713-.752c-.846,0-.846.329-1.034,1.128-.47,2.491-.893,3.1-2.961,3.1h-7.9c-2.021,0-2.068-.517-2.068-2.3v-9.917c0-1.175.611-2.3,1.551-2.3a.694.694,0,0,1,.658.752v2.961c0,2.209-.141,4.418-.141,6.627,0,1.081.564,1.175,2.068,1.175h2.538c1.457,0,1.927-.094,1.927-1.222,0-2.209-.141-4.418-.141-6.58Zm35.485-19.834c-.47,0-.564.329-.705,1.034a23.194,23.194,0,0,1-2.209,5.828c-.376.658-.8.846-3.1.846-1.551,0-3.243-.094-4.277-.094-1.5,0-1.692.047-1.692,2.961,0,3.525.141,3.666,1.739,3.666.611,0,1.269-.047,1.833-.047a.683.683,0,0,1,.705.658,1.04,1.04,0,0,1-.282.658c-1.5,2.115-4.559,7-6.486,9.212-.564.611-.846.893-.846,1.269,0,1.128,4.794,3.76,5.828,3.76a.764.764,0,0,0,.705-.517c1.363-2.444,2.773-4.935,4.982-6.674,1.41-1.081,4.653-2.726,6.439-2.726a1.34,1.34,0,0,1,1.457,1.222c0,.517-.376.752-.8.94-.846.423-1.786.94-2.585,1.41-3.431,2.021-6.768,4.559-6.768,8.977A7.63,7.63,0,0,0,116.325,0a17.615,17.615,0,0,0,8.225,1.5A64.2,64.2,0,0,0,133.668.94c1.363-.282,1.457-.752,1.457-2.538,0-3.008-.047-4.7-1.175-4.7a5.675,5.675,0,0,0-1.175.141,39.513,39.513,0,0,1-8.742,1.175c-1.645,0-5.64,0-5.64-2.35,0-1.645,2.35-3.149,2.82-3.149a.6.6,0,0,1,.564.658v.235a11.525,11.525,0,0,0-.094,1.269c0,1.457.987,1.6,4.23,1.6,2.632,0,2.679-.047,2.679-3.055,0-1.034-.047-2.162-.047-2.726,0-1.269.188-1.692,1.316-2.162,2.162-.893,3.572-1.5,5.828-2.35.94-.329,1.41-.47,1.41-1.081,0-1.081-1.645-6.486-2.82-6.486a1.642,1.642,0,0,0-.611.235c-.188.094-.517.282-.94.517a26.778,26.778,0,0,1-4.371,2.209.844.844,0,0,1-.8-.564,4.7,4.7,0,0,0-2.256-2.679,6.883,6.883,0,0,0-3.384-.752,11.734,11.734,0,0,0-3.995.7,1.494,1.494,0,0,1-.423.141c-.188,0-.423-.094-.423-.329,0-.047.094-1.081,1.6-1.269,2.914-.329,6.11-.893,8.695-1.363s3.008-.658,3.008-1.363a20.672,20.672,0,0,0-.564-3.807c-.188-.846-.423-1.833-1.457-1.833a4.167,4.167,0,0,0-1.316.329,21.244,21.244,0,0,1-3.807,1.034c-.329,0-.564-.141-.564-.517a3.042,3.042,0,0,1,1.269-1.786c.329-.094.846-.235.846-.611,0-.423-.611-.752-1.457-1.128A57.441,57.441,0,0,0,117.594-39.668ZM163.466-17.86c1.222,0,1.316,1.128,1.316,2.444v1.786c0,2.021-.047,2.3-1.786,2.3-.8,0-1.457-.094-1.692-.094-1.081,0-1.081.846-1.081,1.88a9.038,9.038,0,0,0,1.034,4.324,1.969,1.969,0,0,0,1.645.611c.235,0,.517.047.517.329s-.423.329-.705.376a50.639,50.639,0,0,1-8.836.8c-1.175,0-2.3-.047-3.431-.047-.564,0-.893,0-.893.846a14.041,14.041,0,0,0,.423,3.29c.47,1.833.893,2.4,2.068,2.4.8,0,1.692-.047,2.538-.094,5.076-.329,9.4-.7,14.241-2.491A40.1,40.1,0,0,0,180.48-5.922c.188-.188.611-.564.893-.564.047,0,.235.047.329.047a2.751,2.751,0,0,0,.611.094c.376,0,.705-.141.705-.517,0-.564-.846-.987-2.115-1.974a5.4,5.4,0,0,0-.47-.376c-1.034-.8-2.961-2.256-3.572-2.256-.329,0-.47.188-.658.423-.47.517-3.1,3.149-3.713,3.149-.282,0-.376-.188-.376-.47v-.141a12.386,12.386,0,0,0,.094-1.316c0-1.128-.141-2.256-.141-3.384v-1.6c0-1.222.047-1.363.752-1.833.329-.235.705-.423.705-.7v-.094c-.047-.094-.047-.094-.047-.141,0-.235.282-.282.47-.282h2.82c.376,0,.658,0,.658.47,0,.188-.235.376-.329.47-.376.282-1.692,1.41-1.692,1.833,0,.376.611.8.846.987a51.908,51.908,0,0,1,7.755,6.956c.282.376,1.034,1.222,1.5,1.222,1.081,0,4.277-2.961,4.277-4.136,0-.47-.846-1.222-1.363-1.739a1.6,1.6,0,0,0-.282-.282,59.752,59.752,0,0,0-4.465-4.042,2.607,2.607,0,0,0-.376-.282c-.517-.376-1.034-.752-1.034-1.034,0-.423.564-.423.846-.423,1.739,0,3.525.094,5.264.094,1.081,0,1.175-.564,1.175-1.88v-2.632c0-1.316-.094-1.88-1.175-1.88-2.068,0-4.136.141-6.2.141h-8.7a1.345,1.345,0,0,1-1.316-1.316v-1.833a1.314,1.314,0,0,1,1.316-1.316h5.029c2.538,0,4.089.141,5.076.141,1.551,0,1.6-.329,1.6-2.021v-2.726c0-1.316-.094-1.739-1.175-1.739-1.833,0-3.666.141-5.5.141h-4.7c-.893,0-1.6-.423-1.6-1.41a1.637,1.637,0,0,1,.47-1.316c.329-.329.517-.423.517-.752,0-.564-.658-.611-1.081-.658-1.692-.188-3.431-.329-5.17-.47a10.723,10.723,0,0,0-1.269-.094c-.47,0-.94.094-.94.705a2.158,2.158,0,0,0,.047.47,28.723,28.723,0,0,1,.141,3.619v9.259a1.345,1.345,0,0,1-1.316,1.316h-2.726a1.345,1.345,0,0,1-1.316-1.316v-6.956c0-1.222.047-2.3.47-2.679.329-.282.517-.423.517-.705,0-.611-.564-.658-1.41-.752-.8-.094-4.794-.47-5.452-.47-.517,0-.893.094-.893.7s.188,2.021.188,5.264v5.311a1.365,1.365,0,0,1-1.363,1.551c-.846,0-1.692-.094-2.538-.094-1.081,0-1.175.564-1.175,1.88v2.632c0,1.363.094,1.88,1.175,1.88,1.88,0,3.76-.094,5.64-.094.376,0,.8.094.8.564a8.462,8.462,0,0,1-1.316,2.021c-.094.094-.141.188-.188.235a28.93,28.93,0,0,1-5.546,4.888c-.329.235-.8.47-.8.94,0,.658,3.2,3.948,4.418,3.948a4.1,4.1,0,0,0,2.068-1.128,36.4,36.4,0,0,0,6.862-7.1c.423-.564.611-.846,1.363-.94.423-.094.893-.235.893-.752s-1.034-1.034-2.867-2.021c-.141-.047-.423-.188-.423-.376,0-.282.282-.282.611-.282Zm41.36-13.912a12.873,12.873,0,0,0,1.222,3.572c.47,1.034,1.269,2.726,2.585,2.726.893,0,3.478-1.222,4.371-1.645a2.744,2.744,0,0,1,1.034-.376.493.493,0,0,1,.517.517,38.593,38.593,0,0,1-1.786,3.9c-.329.705-.564,1.457-1.6,1.551a20.246,20.246,0,0,0-2.867.47c-4.794,1.175-9.494,4.982-9.494,10.293,0,3.76,2.585,7.144,6.533,7.144,5.217,0,7.661-5.828,9.588-9.823a1.462,1.462,0,0,1,1.316-.94,13.456,13.456,0,0,1,2.82.8c.94.329,1.786.611,1.786,1.457,0,1.034-3.572,5.781-7.943,8.084-.376.188-1.128.611-1.128,1.081,0,1.175,4.512,4.183,5.4,4.183.517,0,2.444-1.5,2.914-1.88a32.588,32.588,0,0,0,6.58-7.567c.329-.564.611-1.034,1.128-1.034.705,0,2.35,1.457,2.914,1.974a1.79,1.79,0,0,0,.282.235c.376.376,1.034.987,1.363.987,1.128,0,4.606-5.217,4.606-6.392,0-.611-.564-.987-1.034-1.222-1.363-.752-2.679-1.5-4.042-2.209a1.566,1.566,0,0,1-1.081-1.5,2.129,2.129,0,0,1,.141-.752c.329-1.222.752-3.1.94-4.277.094-.47.094-1.081.329-1.269.564-.517.8-.752.8-.987,0-.329-.564-.611-1.128-.7-2.35-.47-6.3-1.269-6.674-1.269a.857.857,0,0,0-.8.94c0,.376.047.705.047,1.081a36.26,36.26,0,0,1-.423,3.807c-.141.658-.376,1.034-1.081,1.034-.282,0-1.128-.329-2.162-.611-1.269-.376-1.833-.517-1.833-1.316a1.811,1.811,0,0,1,.282-.846c1.128-2.162,3.1-6.392,4.794-7.99.235-.235.564-.517.564-.846,0-1.316-3.807-4.935-5.123-4.935a4.047,4.047,0,0,0-1.927.611c-2.538,1.363-8.225,2.82-11.186,3.29C205.108-32.242,204.826-32.148,204.826-31.772Zm3.29,17.672c0,.47-1.833,4.042-2.914,4.042-.47,0-.705-.517-.705-.94,0-1.974,2.491-3.525,3.1-3.525C207.881-14.523,208.116-14.382,208.116-14.1ZM29.8,54.353c.235-.141.611-.376.611-.7,0-.705-.987-.658-2.35-.752-1.175-.094-3.713-.188-4.841-.188-.47,0-.611.141-.611.611,0,.282.094,1.316.094,2.068v.423a1.342,1.342,0,0,1-1.5,1.5c-1.269,0-2.585-.094-3.9-.094-.987,0-1.081.47-1.081,1.6v2.773c0,1.222.094,1.645,1.128,1.645.94,0,1.88-.094,2.773-.094.423,0,.893.094.893.611,0,1.269-3.478,4.982-5.969,6.439-.282.141-.658.376-.658.705,0,.893,3.055,4.23,4.465,4.23a.916.916,0,0,0,.376-.047.6.6,0,0,1,.282-.047c.47,0,.658.376.658.8a.533.533,0,0,1-.517.564H9.682C7.755,76.4,5.828,76.3,3.9,76.3c-.987,0-1.269.188-1.269,2.021v2.162c0,1.457.094,1.927,1.316,1.927,1.88,0,3.807-.094,5.734-.094h2.773c.846,0,1.222,0,1.222.517,0,.376-.611.658-1.128.987a32.859,32.859,0,0,1-8.93,4.136c-.564.141-1.363.282-1.363.893,0,1.034,2.444,5.358,3.948,5.358a8.454,8.454,0,0,0,2.021-.658,39.732,39.732,0,0,0,10.669-6.392,1.052,1.052,0,0,1,.7-.376c.423,0,.564.47.564.846v2.162c0,1.692-.141,3.29-.141,4.371,0,1.175.564,1.316,2.021,1.316h3.149c1.457,0,2.021-.141,2.021-1.316,0-1.269-.141-2.82-.141-4.371V87.817c0-.423.094-.987.611-.987a1.526,1.526,0,0,1,.846.47A44.261,44.261,0,0,0,34.4,91.248c1.175.705,5.264,2.773,6.486,2.773,1.034,0,1.88-1.175,2.444-1.927.517-.611,1.739-2.256,1.739-3.055,0-.564-.846-.8-1.316-.94a49.589,49.589,0,0,1-9.682-4.653c-.376-.235-.752-.376-.752-.705s.188-.423.658-.423h3.713c1.88,0,3.807.094,5.687.094,1.222,0,1.316-.282,1.316-2.209V78.182c0-1.457-.094-1.88-1.222-1.88-1.927,0-3.854.094-5.781.094H28.435a1.274,1.274,0,0,1-1.269-1.316,1.548,1.548,0,0,1,.376-1.034c.282-.282.47-.376.47-.7,0-.658-.611-.658-1.128-.705-3.055-.094-3.29-.282-3.29-.893a1.049,1.049,0,0,1,.282-.611,19.994,19.994,0,0,0,3.948-6.862c.094-.282.282-1.128,1.128-1.128h.423a.892.892,0,0,1,.893.893l-.094,3.619c-.047,1.034-.047,1.41-.047,2.115,0,4.277,2.021,4.371,5.64,4.371h2.35c1.974,0,3.995,0,5.123-1.974a16.938,16.938,0,0,0,1.692-6.3c0-.846-.564-1.222-1.316-1.5a9.683,9.683,0,0,0-3.666-.8c-1.034,0-1.222.329-1.269,1.316C38.54,67,38.4,68.5,37.647,68.5h-.611c-.611,0-.611-.423-.611-1.081V66.2l.188-4.183c.047-.893.094-1.786.094-2.679,0-1.927-.987-2.115-2.35-2.115-1.222,0-2.491.094-3.713.094A1.321,1.321,0,0,1,29.281,56C29.281,55.011,29.281,54.635,29.8,54.353ZM10.293,52.426c-.94,0-3.337,2.914-3.337,3.478a.624.624,0,0,0,.376.517c1.034.752,3.431,2.679,4.324,3.525a.763.763,0,0,0,.423.235c.752,0,3.337-2.867,3.337-3.431S13.63,54.776,13.16,54.4C12.643,53.977,10.81,52.426,10.293,52.426Zm2.82,10.763c-.282,0-.705.376-.893.564a58.793,58.793,0,0,1-9.165,5.969c-.329.094-.8.282-.8.658,0,.329.517.987.8,1.41.094.094.141.188.188.235.7.987,1.41,1.927,2.115,2.914.141.188.329.423.564.423.376,0,.564-.329.658-.611.094-.517.094-.611.47-.8a57.463,57.463,0,0,0,7.9-5.452c.376-.329.987-.752.987-1.269C15.933,66.479,13.959,63.189,13.113,63.189ZM2.491,61.121c0,.376.329.611.611.846.987.705,1.927,1.457,2.679,2.115A6.744,6.744,0,0,0,7.614,65.4c.611,0,3.243-2.867,3.243-3.478,0-.893-4.465-4.465-5.217-4.465S2.491,60.51,2.491,61.121Zm69.8-6.11c-.705,0-.8.47-.8,1.081,0,.517.047,1.034.047,1.551,0,3.431-.047,3.948-1.692,4.23a22.971,22.971,0,0,0-4.324,1.316,1.709,1.709,0,0,1-.893.282c-.705,0-.893-.564-.987-1.128-.141-.8-.235-1.457-.329-2.021-.282-1.6-.376-2.209-1.128-2.209a40.633,40.633,0,0,0-5.4,1.269c-.47.141-.94.423-.94.893a3.51,3.51,0,0,0,.141.94c.611,1.88,1.175,3.76,1.786,5.64a5.8,5.8,0,0,1,.376,1.222,1.65,1.65,0,0,1-.564,1.175,16.93,16.93,0,0,0-4.042,11.233c0,4.23,1.692,9.259,6.768,9.259,4.183,0,8.225-3.337,10.622-6.486a36.161,36.161,0,0,0,6.063-13.583c.141-.658.47-1.081,1.081-1.081.987,0,5.452,2.021,5.452,7.191,0,5.64-5.358,9.494-10.246,11-1.363.423-1.739.658-1.739,1.128,0,1.128,2.3,5.358,3.807,5.358a7.15,7.15,0,0,0,2.914-.94c6.815-3.29,12.126-8.272,12.126-16.309,0-6.815-3.854-11.7-10.293-13.63-.846-.235-1.645-.517-1.645-1.316a6.675,6.675,0,0,1,.8-3.008,1.811,1.811,0,0,0,.282-.846c0-.517-.564-.8-.987-.94A49.122,49.122,0,0,0,72.286,55.011ZM61.147,76.678c.423,0,.893.987,2.068,3.619a1.907,1.907,0,0,1,.235.8c0,.8-1.551,1.88-2.162,1.88-1.034,0-1.128-1.833-1.128-2.538C60.16,79.827,60.348,76.678,61.147,76.678Zm8.507-8.084a.543.543,0,0,1,.564.564,19.923,19.923,0,0,1-.752,2.82c-.423,1.316-.94,2.585-1.5,2.585-.329,0-.517-.235-.658-.517a20.127,20.127,0,0,1-1.128-3.2c0-.705.47-1.034.987-1.316A9,9,0,0,1,69.654,68.594Zm33.84.564a3.628,3.628,0,0,0,.7-.094c2.444-.7,5.64-1.41,8.131-1.88a21.868,21.868,0,0,1,2.538-.423c.517,0,.846.282.846.705a2.087,2.087,0,0,1-.47,1.034,19.7,19.7,0,0,0-3.854,11.656c0,10.152,7.285,12.408,16.027,12.408.987,0,1.551-.094,1.974-1.081a20.713,20.713,0,0,0,.8-5.5c0-.893-.329-1.034-1.175-1.034-.705,0-2.209.141-3.431.141-4.136,0-6.439-1.222-6.439-5.687a14.561,14.561,0,0,1,9.682-13.724,19.427,19.427,0,0,1,6.768-.846c1.927-.047,2.491-.047,2.491-.94a39.328,39.328,0,0,0-.564-5.217c-.141-.752-.376-1.551-1.222-1.551a1.3,1.3,0,0,0-.423.047c-3.384.611-7.144,1.081-10.528,1.5-6.909.846-13.771,1.5-20.68,1.88-2.491.141-3.149.141-3.149,1.6a31.738,31.738,0,0,0,.752,5.029C102.413,67.842,102.695,69.158,103.494,69.158ZM155.57,55.152c-.517,0-.658.658-.752,1.081-.329,1.551-.8,3.1-1.222,4.653a60.452,60.452,0,0,0-2.3,16.121c0,5.029.658,10.481,2.773,15.087.47,1.034.987,1.88,1.739,1.88a9.021,9.021,0,0,0,2.867-.8c1.175-.517,1.786-1.081,1.786-2.021,0-.752-.094-1.5-.094-2.256,0-2.867,1.363-6.345,2.444-8.93a2.579,2.579,0,0,0,.235-.8c0-.893-2.444-2.444-3.008-2.444-.376,0-.611.423-.752.752-.235.564-.517,1.175-.846,1.175-.423,0-.47-.517-.47-1.269v-.8a48.736,48.736,0,0,1,2.726-15.369,4.079,4.079,0,0,1,1.222-1.833c.235-.141.705-.376.705-.705s-.423-.611-.987-.893C160.693,57.314,156.181,55.152,155.57,55.152Zm27.5,1.363a6.024,6.024,0,0,0-1.269.235,42.236,42.236,0,0,1-12.126,1.457c-.94,0-2.538,0-3.431-.094-.235,0-.611-.047-.8-.047a.968.968,0,0,0-1.081,1.081c0,1.128.188,2.538.188,3.337,0,1.786,0,2.4,2.162,2.4,1.692,0,4.794-.329,5.17-.329.846,0,.846.846.846,2.256,0,1.645-.94,1.645-4.559,1.645-2.068,0-4.841-.188-5.4-.188-.8,0-1.128.329-1.128,1.128,0,.282.047.611.047.893.094.987.141,1.739.188,2.35.141,2.491.141,2.585,2.538,2.585,1.175,0,5.781-.282,6.909-.376a4.63,4.63,0,0,1,.8-.094c.987,0,1.175.705,1.175,3.76a1.049,1.049,0,0,1-1.128,1.081h-.611c-4.136,0-8.6,1.974-8.6,6.721s4.324,6.533,8.413,6.533c2.867,0,5.781-.705,7.52-3.149.282-.423.517-.8,1.034-.8.564,0,1.081.564,1.739,1.222,1.128,1.175,1.645,1.6,2.209,1.6,1.6,0,3.854-3.384,3.854-4.559,0-1.6-5.593-4.794-7.05-5.452a1.625,1.625,0,0,1-1.175-1.786c-.047-.893-.282-4.089-.282-4.7,0-1.034.846-1.41,1.645-1.551,1.551-.235,3.055-.47,4.559-.846,1.6-.376,1.974-.517,1.974-1.41a25.694,25.694,0,0,0-.564-3.666c-.282-1.175-.611-1.974-1.128-1.974a1.948,1.948,0,0,0-.752.141,51.5,51.5,0,0,1-5.264,1.5c-.658,0-.893-.517-.893-1.081,0-1.88,0-2.491,1.692-2.726,3.431-.47,4.136-.611,4.136-1.739a16,16,0,0,0-.423-3.008C183.864,57.361,183.676,56.515,183.065,56.515Zm-11.28,28.67c.611,0,1.739.047,1.739.893,0,1.222-1.269,1.316-2.209,1.316-.658,0-2.3-.235-2.3-1.128C169.012,85.326,171.127,85.185,171.785,85.185Zm35.25-29.328c-.8,0-.8.611-.8,1.645,0,1.081-.047,2.679-.141,3.666-.376,5.076-.846,10.857-.846,16.262,0,3.76.282,8.742,2.632,11.75,2.162,2.726,5.734,3.854,9.071,3.854,6.439,0,11.75-3.666,14.758-9.212.705-1.269,2.021-4.371,2.021-5.781,0-1.175-1.41-2.444-2.256-3.2-.752-.658-2.162-1.927-3.2-1.927-.8,0-.94.846-1.128,1.786a15.369,15.369,0,0,1-3.008,6.815,10.072,10.072,0,0,1-7.567,4c-3.76,0-3.76-3.807-3.76-7.52a88.238,88.238,0,0,1,1.5-17.578c.235-1.175.329-1.739,1.081-2.162a.455.455,0,0,0,.329-.376c0-.376-.658-.564-1.034-.658C213.192,56.891,208.116,55.857,207.035,55.857Zm42.582,4.935c-.517,0-.752.235-.8.752-.047.658-.235,6.345-.235,7.238,0,5.781.329,12.643,3.807,17.531,1.739,2.444,4.418,4.747,7.567,4.747,2.585,0,4.23-1.551,5.875-3.384.8-.893,2.961-3.384,2.961-4.512s-3.478-3.807-4.888-3.807c-.7,0-1.128.611-1.457,1.175-.423.752-1.5,2.679-2.585,2.679-1.034,0-1.88-1.5-2.256-2.3a21.871,21.871,0,0,1-1.692-9.024,34.639,34.639,0,0,1,.611-6.58,3.322,3.322,0,0,1,.893-2.068c.329-.235.47-.376.47-.564,0-.423-.517-.564-.987-.658C255.727,61.779,250.228,60.792,249.617,60.792Zm20.351,4.042a.969.969,0,0,0,.47.8c4.465,3.2,6.439,7.661,6.862,13.3.141,1.786.188,2.4,1.927,2.4a16.229,16.229,0,0,0,4.465-.8c.94-.282,1.175-.705,1.175-1.692,0-.564-.141-1.692-.235-2.444a25.578,25.578,0,0,0-3.478-9.635c-2.068-3.337-5.781-6.251-7.05-6.251C272.694,60.51,269.968,63.753,269.968,64.834Zm30.6,15.369a6.721,6.721,0,1,0,6.721,6.721A6.68,6.68,0,0,0,300.565,80.2Zm0,2.773a3.948,3.948,0,1,1-3.948,3.948A3.952,3.952,0,0,1,300.565,82.976Z" transform="translate(47 1665)"/>
    <path id="Path_377" data-name="Path 377" d="M26.79-31.3c-.47-.047-.893-.188-.893-.752a3.826,3.826,0,0,1,.752-1.6c.47-.846.658-1.222,1.41-1.5.423-.188.517-.282.517-.517,0-.141-.141-.235-.329-.329-.282-.141-.94-.47-1.786-.8a42.952,42.952,0,0,0-5.452-2.209c-.517,0-.752.752-.893,1.175-2.068,5.828-7.708,13.489-12.69,17.108-.329.235-.893.611-.893,1.081,0,.376.987,1.316,2.162,2.162a9.629,9.629,0,0,0,3.337,1.833c.8,0,1.833-1.081,2.4-1.645a72.777,72.777,0,0,0,5.546-6.533c.658-.893,1.034-.987,2.35-.987h6.392c.611,0,1.645.094,1.645.893a13.276,13.276,0,0,1-1.175,3.008c-.423.893-.8,1.645-1.6,1.645a2.253,2.253,0,0,1-.94-.329c-.8-.47-4.465-2.491-5.123-2.491-1.457,0-4.042,4.277-4.042,5.029,0,.517.987.94,1.41,1.128a32.747,32.747,0,0,1,3.854,1.927.974.974,0,0,1,.611.846c0,1.316-7.285,6.815-13.3,8.554-.282.094-.517.141-.752.235-1.081.282-1.645.47-1.645.987,0,.611,1.363,2.35,1.833,2.961.611.752,1.739,2.162,2.82,2.162,1.551,0,6.345-2.538,7.755-3.431A38.873,38.873,0,0,0,28.576-8.6a1.337,1.337,0,0,1,.987-.564c.611,0,2.068,1.457,2.538,1.927a1.035,1.035,0,0,0,.752.423c1.175,0,4.371-4.136,4.371-4.982,0-.611-1.927-2.021-2.444-2.4a1.57,1.57,0,0,1-.8-1.269,2.088,2.088,0,0,1,.423-1.128,79.476,79.476,0,0,0,4.089-8.272,17.276,17.276,0,0,1,1.081-2.3.821.821,0,0,0,.188-.564c0-.987-1.974-3.9-3.008-3.9a1.372,1.372,0,0,0-.423.094A12.744,12.744,0,0,1,33.7-31.3Z" transform="translate(144 1711)" fill="#f24387"/>
    <path id="Path_376" data-name="Path 376" d="M11.609-26.085c-1.41,0-2.773,0-4.183-.047-.7,0-1.457-.094-2.162-.094-1.222,0-1.269.7-1.269,2.444v1.88c0,2.021.094,3.008,1.457,3.008.423,0,1.034,0,1.457-.047.8-.047,1.551-.047,2.35-.047H19.693a1.075,1.075,0,0,1,1.081,1.128,11.807,11.807,0,0,1-.188,1.269A18.632,18.632,0,0,1,9.682-3.807c-.517.188-1.316.47-1.316.987,0,.987,4.23,4.888,5.405,4.888a4.255,4.255,0,0,0,1.081-.376A25.568,25.568,0,0,0,27.965-16.92c.188-1.222.47-2.068,1.6-2.068h5.452c2.162,0,4.324.047,6.486.047,1.128,0,1.5-.329,1.5-2.726v-2.068c0-2.115-.235-2.444-1.316-2.444-.611,0-1.269.047-1.88.047-1.6.047-3.2.047-4.794.047H30.127a1.511,1.511,0,0,1-1.41-1.034c-.047-.188-.047-1.645-.047-3.2V-33.84c0-1.034.047-1.316.47-1.739a.928.928,0,0,0,.282-.564c0-.517-.94-.611-1.316-.658-1.034-.141-5.546-.564-6.3-.564-.282,0-.47.094-.47.376,0,.329.094.658.094,1.5v.517c0,2.444.094,4.935.094,7.426a1.4,1.4,0,0,1-1.41,1.457Z" transform="translate(95 1711)" fill="#1349f1"/>
    <path id="Path_375" data-name="Path 375" d="M25.85-17.249c.141-.564.282-.846.846-.846a.794.794,0,0,1,.47.141c.8.658,2.867,2.4,3.619,2.4.564,0,1.457-.8,2.3-1.645l.423-.423c2.867-2.726,5.64-5.546,8.319-8.507a9.024,9.024,0,0,1,.658-.7c.47-.376.987-.8.987-1.316,0-1.128-1.833-2.914-2.632-3.713-.611-.611-1.175-1.222-2.021-1.222a4.63,4.63,0,0,0-.8.094,26.052,26.052,0,0,1-4.324.282H13.019c-2.444,0-4.841-.094-7.238-.094-1.175,0-1.363.611-1.363,1.645v2.4c0,2.632.047,3.149,1.5,3.149.658,0,1.316-.047,1.974-.047,1.692-.047,3.384-.047,5.123-.047H30.362c.517,0,.752.235.752.517,0,.611-2.961,3.2-3.337,3.525a.427.427,0,0,1-.329.141.384.384,0,0,1-.423-.376.356.356,0,0,1,.094-.188c.047-.141.188-.282.188-.423,0-.235-.141-.423-.94-.517-1.081-.141-5.687-.329-7.05-.329-.423,0-.47.141-.47.517,0,.094.047.141.047.235a26.508,26.508,0,0,1-.188,3.431A20.886,20.886,0,0,1,8.507-4.324c-.987.564-1.363.8-1.363,1.081,0,1.034,4.794,4.794,5.828,4.794.987,0,3.948-2.726,4.747-3.478C22.231-6.251,24.393-11.327,25.85-17.249Z" transform="translate(47 1711)" fill="#ff9606"/>
    <path id="Path_373" data-name="Path 373" d="M33.417-10.528a1.391,1.391,0,0,1,1.222.564c.235.423.188.564,1.692.564.8,0,1.363.188,1.363.846a10.552,10.552,0,0,1-.564,2.632c-.752,1.88-1.833,1.88-4.277,1.88H17.014c-2.867,0-3.29-.141-3.29-3.055V-9.212a1.314,1.314,0,0,1,1.316-1.316Zm0-10.575a1.345,1.345,0,0,1,1.316,1.316V-18a1.345,1.345,0,0,1-1.316,1.316H29.234A1.345,1.345,0,0,1,27.918-18v-1.786A1.258,1.258,0,0,1,29.234-21.1Zm-13.865,0a1.258,1.258,0,0,1,1.316,1.316V-18a1.314,1.314,0,0,1-1.316,1.316H15.04A1.314,1.314,0,0,1,13.724-18v-1.786A1.314,1.314,0,0,1,15.04-21.1Zm-3.29-6.063c-.282,0-.752-.047-.752-.376,0-.141.047-.282.329-.658A9.348,9.348,0,0,1,17.3-29.845a2.161,2.161,0,0,1,1.363-.329h6.768c.705,0,.893.094.893.376a4.873,4.873,0,0,1-.846,1.5c-.611.8-.94,1.128-1.974,1.128Zm5.922-8.272c-.235-.047-.705-.047-.705-.423,0-.611.705-.893,1.175-1.034.329-.094.7-.235.7-.658,0-.658-.8-.8-2.256-1.081-.846-.188-5.123-1.175-5.546-1.175-.705,0-.893.611-1.222,1.269A41.365,41.365,0,0,1,2.679-24.487c-.376.282-1.034.7-1.034,1.175,0,1.128,2.444,3.995,4.183,4.512.517.141.752.235.752.846V-7.52c0,1.41-.094,2.914-.094,4.371,0,5.17,4.277,5.546,8.366,5.546H36.237c2.538,0,4.559-.094,6.2-2.3a15.442,15.442,0,0,0,2.4-6.674c0-1.175-.893-1.692-1.786-2.162-1.081-.564-1.457-.846-1.457-4.324v-7.1c0-1.786.141-3.337.141-4.512,0-2.4-1.551-2.585-3.055-2.585-1.363,0-2.773.094-4.136.094-.517,0-.893-.047-.893-.47a2.355,2.355,0,0,1,.47-.893c.611-.8,2.3-3.008,2.3-3.948a4,4,0,0,0-3.854-3.1c-1.175,0-2.35.141-3.572.141ZM55.037-16.215c0,5.17.705,10.434,3.008,15.087.846,1.692,1.269,2.3,2.162,2.3,1.457,0,4.935-1.363,4.935-3.1A13.4,13.4,0,0,0,65-3.29C64.907-4,64.813-5.17,64.813-5.5c0-2.538,2.068-6.157,2.068-6.815,0-.7-1.88-2.3-2.444-2.3-.517,0-.8.517-1.081.987-.235.376-.47.752-.8.752-.611,0-.611-1.269-.611-3.854A37.849,37.849,0,0,1,64.813-30.08a2.846,2.846,0,0,1,1.739-1.927c.188-.094.329-.188.329-.376,0-.235-.282-.517-1.222-.94A60.721,60.721,0,0,0,58.7-35.861c-.611,0-.658.423-.8,1.316-.141.752-.376,1.645-.611,2.538A57.762,57.762,0,0,0,55.037-16.215Zm14.288-11.7c0,.517,0,1.927.376,2.256.893.752,7.379.987,8.789.987a55.766,55.766,0,0,0,7.9-.564c1.222-.188,1.363-.517,1.363-1.645a35.423,35.423,0,0,0-.282-3.854c-.094-.7-.376-1.692-1.269-1.692a4.133,4.133,0,0,0-.94.141,28.844,28.844,0,0,1-6.956.94,34.316,34.316,0,0,1-6.2-.658,9.525,9.525,0,0,0-1.457-.188C69.513-32.2,69.325-31.4,69.325-27.918Zm.846,15.7c-1.081,0-3.431,4.747-3.431,5.64,0,1.081,3.337,4.841,10.9,4.841,2.115,0,9.964-.7,11.609-1.5.611-.282.658-.611.658-1.222a46.324,46.324,0,0,0-.235-4.888c-.047-.423-.329-1.034-.94-1.034a4.718,4.718,0,0,0-1.128.188,38.126,38.126,0,0,1-10.293,1.5c-3.055,0-4.606-.8-6.58-3.149C70.594-11.985,70.406-12.22,70.171-12.22Z" transform="translate(192 1711)"/>
  </g>
</svg>
