<svg xmlns="http://www.w3.org/2000/svg" width="1594.98" height="265.52" viewBox="0 0 1594.98 265.52">
  <g id="Group_678" data-name="Group 678" transform="translate(-6.3 -2060.84)">
    <path id="Path_318" data-name="Path 318" d="M83.02-111.44a1.819,1.819,0,0,0,1.12-1.68c0-1.54-2.24-1.96-3.5-2.1-4.76-.28-13.86-1.12-18.2-1.12-2.24,0-3.36.56-3.36,2.94,0,6.16.42,12.18.42,18.2,0,10.92-.14,13.44-5.04,13.44H26.88c-5.6,0-11.2-.42-16.66-.42-3.64,0-3.92,1.68-3.92,6.44v8.54c0,4.62.28,6.16,3.78,6.16,5.6,0,11.2-.42,16.8-.42h24.5c1.54,0,3.64,0,3.64,2.24,0,1.4-2.66,8.26-3.36,9.8C43.96-32.2,28.14-19.46,10.92-12.46c-1.68.7-3.64,1.54-3.64,3.78C7.28-6.58,9.1-1.96,9.94,0c1.96,4.34,4.34,8.82,7.42,8.82,1.68,0,4.06-1.12,5.88-2.1.28-.14.7-.28.98-.42C41.58-2.24,57.26-16.38,66.64-33.6c.7-1.4,1.68-3.92,3.64-3.92,1.26,0,2.24,1.12,2.8,2.1A118.892,118.892,0,0,0,88.06-14.84,113.963,113.963,0,0,0,115.5,7.42a7.591,7.591,0,0,0,3.36,1.26c4.62,0,12.18-11.76,12.18-16.1,0-2.24-1.26-2.8-3.08-3.78-17.78-9.66-28.14-20.3-37.52-35.56-2.1-3.36-6.16-10.64-6.16-12.6,0-2.1,2.24-2.1,3.5-2.1h25.48c5.6,0,11.2.42,16.66.42,3.36,0,3.78-1.54,3.78-5.74v-9.66c0-4.34-.42-5.74-3.78-5.74-5.6,0-11.2.42-16.66.42H85.82c-2.8,0-4.76-1.12-4.76-4.2,0-7,.28-13.86.28-20.86C81.34-108.36,81.48-110.32,83.02-111.44Zm81.9,79.94c-.28,5.74-1.68,6.16-9.66,7.7-1.82.28-4.06.42-4.06,2.8a31.407,31.407,0,0,0,1.54,7c.7,2.1,1.26,4.2,1.68,6.02,1.26,4.9,2.24,8.26,3.64,8.26.84,0,1.12-.56,1.4-1.12,1.12-3.08.84-3.22,4.2-4.34,5.88-1.96,25.34-8.96,30.38-11.2,2.38-1.12,2.94-2.52,2.94-5.46v-4.62c0-5.46-.28-8.54-2.8-8.54a10.312,10.312,0,0,0-1.96.56,12.411,12.411,0,0,1-3.92.98c-1.82,0-2.94-1.82-2.94-3.5V-61.32a3.734,3.734,0,0,1,3.78-3.64c.98,0,1.96.14,3.08.14,2.8,0,3.08-1.4,3.08-6.58v-7.98c0-3.92-.28-5.6-2.94-5.6H189a3.7,3.7,0,0,1-3.64-3.64v-15.54c0-1.82.14-2.66,1.68-3.64,1.68-.98,2.8-1.4,2.8-2.8,0-1.54-1.82-1.82-3.08-1.96-1.96-.14-17.78-.98-19.6-.98-1.68,0-2.8.28-2.8,2.1,0,1.68.56,5.6.56,12.46v10.36q0,3.78-3.78,3.78c-1.82,0-3.64-.14-5.6-.14-2.8,0-3.08,1.26-3.08,5.6v8.54c0,4.34.28,6.02,2.94,6.02,1.82,0,3.92-.28,5.6-.28a3.886,3.886,0,0,1,3.92,3.78Zm79.66-27.58c.42-5.18,3.78-7.42,6.86-7.42,1.96,0,1.96,1.68,1.96,3.92,0,16.1-.84,16.1-2.8,16.1h-1.82c-1.68,0-1.68,2.24-1.68,3.5,0,3.64.7,10.22,2.1,13.44.98,2.38,3.78,2.52,6.02,2.52,8.12,0,16.1-2.1,17.22-11.48.56-5.46.7-32.2.7-39.2v-2.94c0-2.66-.14-5.74-.98-7a10.822,10.822,0,0,0-8.68-4.76c-2.52,0-5.04,1.12-7.56,2.24-1.4.7-8.12,3.78-9.1,3.78-1.96,0-2.24-1.96-2.24-3.78v-6.3c0-2.38,0-10.08.14-11.9.14-1.26.28-2.52,1.26-3.36.7-.7,1.26-.98,1.26-1.82,0-1.82-2.24-1.96-4.34-2.1-4.62-.14-10.22-.42-14.84-.42-1.26,0-2.52,0-2.52,1.68,0,1.4.42,5.6.42,12.46v19.88c0,3.5-2.1,6.72-4.48,6.72-2.1,0-2.1-2.52-2.1-4.06V-90.16a3.894,3.894,0,0,1,1.26-3.36c.84-.56,1.96-.98,1.96-2.1,0-1.82-2.66-1.82-4.62-1.96-4.48-.28-11.62-.7-15.96-.7-1.4,0-2.66.14-2.66,1.96a4.822,4.822,0,0,0,.14,1.26,84.389,84.389,0,0,1,.42,10.64v13.58c0,3.64-1.68,5.46-5.04,6.86-3.78,1.54-7,2.52-7,5.04,0,1.26,5.6,15.82,8.4,15.82,2.38,0,3.64.14,3.64,2.66v23.24c0,3.36-.14,6.72-.14,10.08,0,13.72,8.26,14.98,19.74,14.98h36.54c5.6,0,11.9-.98,15.4-5.74,3.08-4.34,6.44-12.6,6.44-17.92,0-3.78-2.38-5.04-5.88-6.16a37.924,37.924,0,0,0-11.06-2.24c-2.52,0-2.52.98-3.08,3.36-1.4,7.42-2.66,9.24-8.82,9.24H225.54c-6.02,0-6.16-1.54-6.16-6.86V-48.02c0-3.5,1.82-6.86,4.62-6.86a2.068,2.068,0,0,1,1.96,2.24v8.82c0,6.58-.42,13.16-.42,19.74,0,3.22,1.68,3.5,6.16,3.5h7.56c4.34,0,5.74-.28,5.74-3.64,0-6.58-.42-13.16-.42-19.6Zm105.7-59.08c-1.4,0-1.68.98-2.1,3.08a69.089,69.089,0,0,1-6.58,17.36c-1.12,1.96-2.38,2.52-9.24,2.52-4.62,0-9.66-.28-12.74-.28-4.48,0-5.04.14-5.04,8.82,0,10.5.42,10.92,5.18,10.92,1.82,0,3.78-.14,5.46-.14a2.034,2.034,0,0,1,2.1,1.96,3.1,3.1,0,0,1-.84,1.96C322-65.66,312.9-51.1,307.16-44.52c-1.68,1.82-2.52,2.66-2.52,3.78,0,3.36,14.28,11.2,17.36,11.2a2.275,2.275,0,0,0,2.1-1.54c4.06-7.28,8.26-14.7,14.84-19.88,4.2-3.22,13.86-8.12,19.18-8.12,2.52,0,4.34,1.68,4.34,3.64,0,1.54-1.12,2.24-2.38,2.8-2.52,1.26-5.32,2.8-7.7,4.2-10.22,6.02-20.16,13.58-20.16,26.74,0,10.22,5.32,17.64,14.28,21.7,8.26,3.78,14.7,4.48,24.5,4.48,6.86,0,20.86-.42,27.16-1.68,4.06-.84,4.34-2.24,4.34-7.56,0-8.96-.14-14-3.5-14a16.9,16.9,0,0,0-3.5.42c-8.82,1.96-17.08,3.5-26.04,3.5-4.9,0-16.8,0-16.8-7,0-4.9,7-9.38,8.4-9.38a1.772,1.772,0,0,1,1.68,1.96v.7a34.33,34.33,0,0,0-.28,3.78c0,4.34,2.94,4.76,12.6,4.76,7.84,0,7.98-.14,7.98-9.1,0-3.08-.14-6.44-.14-8.12,0-3.78.56-5.04,3.92-6.44,6.44-2.66,10.64-4.48,17.36-7,2.8-.98,4.2-1.4,4.2-3.22,0-3.22-4.9-19.32-8.4-19.32a4.892,4.892,0,0,0-1.82.7c-.56.28-1.54.84-2.8,1.54-4.2,2.38-11.62,6.58-13.02,6.58a2.513,2.513,0,0,1-2.38-1.68c-1.82-3.92-2.8-5.74-6.72-7.98-2.8-1.68-6.72-2.24-10.08-2.24a34.953,34.953,0,0,0-11.9,2.1,4.45,4.45,0,0,1-1.26.42c-.56,0-1.26-.28-1.26-.98,0-.14.28-3.22,4.76-3.78,8.68-.98,18.2-2.66,25.9-4.06s8.96-1.96,8.96-4.06A61.575,61.575,0,0,0,386.68-98c-.56-2.52-1.26-5.46-4.34-5.46a12.412,12.412,0,0,0-3.92.98c-2.94.98-9.24,3.08-11.34,3.08-.98,0-1.68-.42-1.68-1.54s2.1-4.62,3.78-5.32c.98-.28,2.52-.7,2.52-1.82,0-1.26-1.82-2.24-4.34-3.36C365.12-112.42,351.82-118.16,350.28-118.16ZM486.92-53.2c3.64,0,3.92,3.36,3.92,7.28v5.32c0,6.02-.14,6.86-5.32,6.86-2.38,0-4.34-.28-5.04-.28-3.22,0-3.22,2.52-3.22,5.6,0,3.64.98,9.94,3.08,12.88,1.26,1.68,3.08,1.68,4.9,1.82.7,0,1.54.14,1.54.98s-1.26.98-2.1,1.12a150.84,150.84,0,0,1-26.32,2.38c-3.5,0-6.86-.14-10.22-.14-1.68,0-2.66,0-2.66,2.52a41.823,41.823,0,0,0,1.26,9.8c1.4,5.46,2.66,7.14,6.16,7.14,2.38,0,5.04-.14,7.56-.28,15.12-.98,28-2.1,42.42-7.42,11.76-4.34,25.2-11.76,34.72-20.02.56-.56,1.82-1.68,2.66-1.68.14,0,.7.14.98.14a8.194,8.194,0,0,0,1.82.28c1.12,0,2.1-.42,2.1-1.54,0-1.68-2.52-2.94-6.3-5.88a16.086,16.086,0,0,0-1.4-1.12c-3.08-2.38-8.82-6.72-10.64-6.72-.98,0-1.4.56-1.96,1.26-1.4,1.54-9.24,9.38-11.06,9.38-.84,0-1.12-.56-1.12-1.4v-.42a36.905,36.905,0,0,0,.28-3.92c0-3.36-.42-6.72-.42-10.08V-44.1c0-3.64.14-4.06,2.24-5.46.98-.7,2.1-1.26,2.1-2.1v-.28c-.14-.28-.14-.28-.14-.42,0-.7.84-.84,1.4-.84h8.4c1.12,0,1.96,0,1.96,1.4,0,.56-.7,1.12-.98,1.4-1.12.84-5.04,4.2-5.04,5.46,0,1.12,1.82,2.38,2.52,2.94a154.618,154.618,0,0,1,23.1,20.72c.84,1.12,3.08,3.64,4.48,3.64,3.22,0,12.74-8.82,12.74-12.32,0-1.4-2.52-3.64-4.06-5.18a4.754,4.754,0,0,0-.84-.84c-3.64-3.5-9.38-9.1-13.3-12.04a7.768,7.768,0,0,0-1.12-.84c-1.54-1.12-3.08-2.24-3.08-3.08,0-1.26,1.68-1.26,2.52-1.26,5.18,0,10.5.28,15.68.28,3.22,0,3.5-1.68,3.5-5.6v-7.84c0-3.92-.28-5.6-3.5-5.6-6.16,0-12.32.42-18.48.42h-25.9a4.006,4.006,0,0,1-3.92-3.92v-5.46a3.913,3.913,0,0,1,3.92-3.92h14.98c7.56,0,12.18.42,15.12.42,4.62,0,4.76-.98,4.76-6.02v-8.12c0-3.92-.28-5.18-3.5-5.18-5.46,0-10.92.42-16.38.42h-14c-2.66,0-4.76-1.26-4.76-4.2a4.876,4.876,0,0,1,1.4-3.92c.98-.98,1.54-1.26,1.54-2.24,0-1.68-1.96-1.82-3.22-1.96-5.04-.56-10.22-.98-15.4-1.4a31.941,31.941,0,0,0-3.78-.28c-1.4,0-2.8.28-2.8,2.1a6.429,6.429,0,0,0,.14,1.4,85.558,85.558,0,0,1,.42,10.78v27.58a4.006,4.006,0,0,1-3.92,3.92h-8.12a4.006,4.006,0,0,1-3.92-3.92V-96.18c0-3.64.14-6.86,1.4-7.98.98-.84,1.54-1.26,1.54-2.1,0-1.82-1.68-1.96-4.2-2.24-2.38-.28-14.28-1.4-16.24-1.4-1.54,0-2.66.28-2.66,2.1s.56,6.02.56,15.68V-76.3c0,3.08-1.82,4.62-4.06,4.62-2.52,0-5.04-.28-7.56-.28-3.22,0-3.5,1.68-3.5,5.6v7.84c0,4.06.28,5.6,3.5,5.6,5.6,0,11.2-.28,16.8-.28,1.12,0,2.38.28,2.38,1.68,0,.98-2.66,4.34-3.92,6.02-.28.28-.42.56-.56.7a86.173,86.173,0,0,1-16.52,14.56c-.98.7-2.38,1.4-2.38,2.8,0,1.96,9.52,11.76,13.16,11.76,2.1,0,4.62-2.1,6.16-3.36a108.419,108.419,0,0,0,20.44-21.14c1.26-1.68,1.82-2.52,4.06-2.8,1.26-.28,2.66-.7,2.66-2.24s-3.08-3.08-8.54-6.02c-.42-.14-1.26-.56-1.26-1.12,0-.84.84-.84,1.82-.84Zm123.2-41.44c0,2.52,2.52,8.26,3.64,10.64,1.4,3.08,3.78,8.12,7.7,8.12,2.66,0,10.36-3.64,13.02-4.9a8.173,8.173,0,0,1,3.08-1.12,1.469,1.469,0,0,1,1.54,1.54c0,.98-4.48,9.94-5.32,11.62-.98,2.1-1.68,4.34-4.76,4.62a60.306,60.306,0,0,0-8.54,1.4c-14.28,3.5-28.28,14.84-28.28,30.66,0,11.2,7.7,21.28,19.46,21.28,15.54,0,22.82-17.36,28.56-29.26a4.355,4.355,0,0,1,3.92-2.8c1.68,0,6.58,1.68,8.4,2.38,2.8.98,5.32,1.82,5.32,4.34,0,3.08-10.64,17.22-23.66,24.08-1.12.56-3.36,1.82-3.36,3.22,0,3.5,13.44,12.46,16.1,12.46,1.54,0,7.28-4.48,8.68-5.6a97.072,97.072,0,0,0,19.6-22.54c.98-1.68,1.82-3.08,3.36-3.08,2.1,0,7,4.34,8.68,5.88a5.331,5.331,0,0,0,.84.7c1.12,1.12,3.08,2.94,4.06,2.94,3.36,0,13.72-15.54,13.72-19.04,0-1.82-1.68-2.94-3.08-3.64-4.06-2.24-7.98-4.48-12.04-6.58-1.96-.98-3.22-2.1-3.22-4.48a6.342,6.342,0,0,1,.42-2.24c.98-3.64,2.24-9.24,2.8-12.74.28-1.4.28-3.22.98-3.78,1.68-1.54,2.38-2.24,2.38-2.94,0-.98-1.68-1.82-3.36-2.1-7-1.4-18.76-3.78-19.88-3.78a2.554,2.554,0,0,0-2.38,2.8c0,1.12.14,2.1.14,3.22a108.018,108.018,0,0,1-1.26,11.34c-.42,1.96-1.12,3.08-3.22,3.08-.84,0-3.36-.98-6.44-1.82-3.78-1.12-5.46-1.54-5.46-3.92a5.4,5.4,0,0,1,.84-2.52c3.36-6.44,9.24-19.04,14.28-23.8.7-.7,1.68-1.54,1.68-2.52,0-3.92-11.34-14.7-15.26-14.7a12.055,12.055,0,0,0-5.74,1.82c-7.56,4.06-24.5,8.4-33.32,9.8C610.96-96.04,610.12-95.76,610.12-94.64ZM619.92-42c0,1.4-5.46,12.04-8.68,12.04-1.4,0-2.1-1.54-2.1-2.8,0-5.88,7.42-10.5,9.24-10.5C619.22-43.26,619.92-42.84,619.92-42Z" transform="translate(0 2179)"/>
    <g id="Group_677" data-name="Group 677">
      <path id="Path_320" data-name="Path 320" d="M19.88-68.04a10.806,10.806,0,0,0,2.1-.28c7.28-2.1,16.8-4.2,24.22-5.6a65.135,65.135,0,0,1,7.56-1.26c1.54,0,2.52.84,2.52,2.1A6.215,6.215,0,0,1,54.88-70C47.46-59.36,43.4-48.3,43.4-35.28,43.4-5.04,65.1,1.68,91.14,1.68c2.94,0,4.62-.28,5.88-3.22,1.4-3.36,2.38-12.32,2.38-16.38,0-2.66-.98-3.08-3.5-3.08-2.1,0-6.58.42-10.22.42-12.32,0-19.18-3.64-19.18-16.94A43.374,43.374,0,0,1,95.34-78.4c7.14-2.52,12.74-2.38,20.16-2.52,5.74-.14,7.42-.14,7.42-2.8a117.146,117.146,0,0,0-1.68-15.54c-.42-2.24-1.12-4.62-3.64-4.62a3.876,3.876,0,0,0-1.26.14c-10.08,1.82-21.28,3.22-31.36,4.48-20.58,2.52-41.02,4.48-61.6,5.6-7.42.42-9.38.42-9.38,4.76,0,3.64,1.4,11.2,2.24,14.98C16.66-71.96,17.5-68.04,19.88-68.04Zm148.96-41.72c-1.54,0-1.96,1.96-2.24,3.22-.98,4.62-2.38,9.24-3.64,13.86a180.072,180.072,0,0,0-6.86,48.02c0,14.98,1.96,31.22,8.26,44.94,1.4,3.08,2.94,5.6,5.18,5.6,2.52,0,6.16-1.4,8.54-2.38,3.5-1.54,5.32-3.22,5.32-6.02,0-2.24-.28-4.48-.28-6.72,0-8.54,4.06-18.9,7.28-26.6a7.683,7.683,0,0,0,.7-2.38c0-2.66-7.28-7.28-8.96-7.28-1.12,0-1.82,1.26-2.24,2.24-.7,1.68-1.54,3.5-2.52,3.5-1.26,0-1.4-1.54-1.4-3.78v-2.38c0-13.02,3.22-33.74,8.12-45.78a12.15,12.15,0,0,1,3.64-5.46c.7-.42,2.1-1.12,2.1-2.1s-1.26-1.82-2.94-2.66C184.1-103.32,170.66-109.76,168.84-109.76Zm81.9,4.06a17.943,17.943,0,0,0-3.78.7c-12.32,3.5-23.38,4.34-36.12,4.34-2.8,0-7.56,0-10.22-.28-.7,0-1.82-.14-2.38-.14a2.884,2.884,0,0,0-3.22,3.22c0,3.36.56,7.56.56,9.94,0,5.32,0,7.14,6.44,7.14,5.04,0,14.28-.98,15.4-.98,2.52,0,2.52,2.52,2.52,6.72,0,4.9-2.8,4.9-13.58,4.9-6.16,0-14.42-.56-16.1-.56-2.38,0-3.36.98-3.36,3.36,0,.84.14,1.82.14,2.66.28,2.94.42,5.18.56,7,.42,7.42.42,7.7,7.56,7.7,3.5,0,17.22-.84,20.58-1.12a13.793,13.793,0,0,1,2.38-.28c2.94,0,3.5,2.1,3.5,11.2a3.125,3.125,0,0,1-3.36,3.22h-1.82c-12.32,0-25.62,5.88-25.62,20.02S203.7,2.52,215.88,2.52c8.54,0,17.22-2.1,22.4-9.38.84-1.26,1.54-2.38,3.08-2.38,1.68,0,3.22,1.68,5.18,3.64,3.36,3.5,4.9,4.76,6.58,4.76,4.76,0,11.48-10.08,11.48-13.58,0-4.76-16.66-14.28-21-16.24-2.66-1.26-3.36-2.1-3.5-5.32-.14-2.66-.84-12.18-.84-14,0-3.08,2.52-4.2,4.9-4.62,4.62-.7,9.1-1.4,13.58-2.52,4.76-1.12,5.88-1.54,5.88-4.2a76.538,76.538,0,0,0-1.68-10.92c-.84-3.5-1.82-5.88-3.36-5.88a5.8,5.8,0,0,0-2.24.42c-2.52.84-14,4.48-15.68,4.48-1.96,0-2.66-1.54-2.66-3.22,0-5.6,0-7.42,5.04-8.12,10.22-1.4,12.32-1.82,12.32-5.18a47.646,47.646,0,0,0-1.26-8.96C253.12-103.18,252.56-105.7,250.74-105.7Zm-33.6,85.4c1.82,0,5.18.14,5.18,2.66,0,3.64-3.78,3.92-6.58,3.92-1.96,0-6.86-.7-6.86-3.36C208.88-19.88,215.18-20.3,217.14-20.3Zm98.84-87.36c-2.38,0-2.38,1.82-2.38,4.9,0,3.22-.14,7.98-.42,10.92-1.12,15.12-2.52,32.34-2.52,48.44,0,11.2.84,26.04,7.84,35,6.44,8.12,17.08,11.48,27.02,11.48,19.18,0,35-10.92,43.96-27.44,2.1-3.78,6.02-13.02,6.02-17.22,0-3.5-4.2-7.28-6.72-9.52-2.24-1.96-6.44-5.74-9.52-5.74-2.38,0-2.8,2.52-3.36,5.32a45.781,45.781,0,0,1-8.96,20.3c-5.32,6.72-13.72,11.9-22.54,11.9-11.2,0-11.2-11.34-11.2-22.4,0-17.5.98-35.14,4.48-52.36.7-3.5.98-5.18,3.22-6.44a1.356,1.356,0,0,0,.98-1.12c0-1.12-1.96-1.68-3.08-1.96C334.32-104.58,319.2-107.66,315.98-107.66Zm120.68,14.7c-1.54,0-2.24.7-2.38,2.24-.14,1.96-.7,18.9-.7,21.56,0,17.22.98,37.66,11.34,52.22C450.1-9.66,458.08-2.8,467.46-2.8c7.7,0,12.6-4.62,17.5-10.08,2.38-2.66,8.82-10.08,8.82-13.44s-10.36-11.34-14.56-11.34c-2.1,0-3.36,1.82-4.34,3.5-1.26,2.24-4.48,7.98-7.7,7.98-3.08,0-5.6-4.48-6.72-6.86-3.78-7.98-5.04-18.06-5.04-26.88a103.182,103.182,0,0,1,1.82-19.6c.42-2.1.84-4.76,2.66-6.16.98-.7,1.4-1.12,1.4-1.68,0-1.26-1.54-1.68-2.94-1.96C454.86-90.02,438.48-92.96,436.66-92.96Zm60.62,12.04a2.887,2.887,0,0,0,1.4,2.38c13.3,9.52,19.18,22.82,20.44,39.62.42,5.32.56,7.14,5.74,7.14a48.342,48.342,0,0,0,13.3-2.38c2.8-.84,3.5-2.1,3.5-5.04,0-1.68-.42-5.04-.7-7.28a76.189,76.189,0,0,0-10.36-28.7c-6.16-9.94-17.22-18.62-21-18.62C505.4-93.8,497.28-84.14,497.28-80.92Zm84.98,45.78a19.9,19.9,0,0,0-19.88,20.02A19.986,19.986,0,0,0,582.26,4.9a20.016,20.016,0,0,0,20.02-20.02A20.016,20.016,0,0,0,582.26-35.14Zm0,8.26a11.771,11.771,0,0,1,11.9,11.76,11.861,11.861,0,0,1-11.9,11.76A11.831,11.831,0,0,1,570.5-15.12,11.74,11.74,0,0,1,582.26-26.88Z" transform="translate(999 2316)"/>
      <path id="Path_371" data-name="Path 371" d="M79.8-93.24c-1.4-.14-2.66-.56-2.66-2.24,0-1.4,1.4-3.5,2.24-4.76,1.4-2.52,1.96-3.64,4.2-4.48,1.26-.56,1.54-.84,1.54-1.54,0-.42-.42-.7-.98-.98-.84-.42-2.8-1.4-5.32-2.38-6.02-2.8-15.12-6.58-16.24-6.58-1.54,0-2.24,2.24-2.66,3.5-6.16,17.36-22.96,40.18-37.8,50.96-.98.7-2.66,1.82-2.66,3.22,0,1.12,2.94,3.92,6.44,6.44,3.78,2.8,8.26,5.46,9.94,5.46,2.38,0,5.46-3.22,7.14-4.9A216.782,216.782,0,0,0,59.5-70.98c1.96-2.66,3.08-2.94,7-2.94H85.54c1.82,0,4.9.28,4.9,2.66,0,1.68-2.66,7.28-3.5,8.96-1.26,2.66-2.38,4.9-4.76,4.9a6.71,6.71,0,0,1-2.8-.98C77-59.78,66.08-65.8,64.12-65.8c-4.34,0-12.04,12.74-12.04,14.98,0,1.54,2.94,2.8,4.2,3.36a97.545,97.545,0,0,1,11.48,5.74,2.9,2.9,0,0,1,1.82,2.52c0,3.92-21.7,20.3-39.62,25.48-.84.28-1.54.42-2.24.7-3.22.84-4.9,1.4-4.9,2.94,0,1.82,4.06,7,5.46,8.82,1.82,2.24,5.18,6.44,8.4,6.44,4.62,0,18.9-7.56,23.1-10.22A115.792,115.792,0,0,0,85.12-25.62a3.983,3.983,0,0,1,2.94-1.68c1.82,0,6.16,4.34,7.56,5.74a3.084,3.084,0,0,0,2.24,1.26c3.5,0,13.02-12.32,13.02-14.84,0-1.82-5.74-6.02-7.28-7.14-1.26-.98-2.38-1.96-2.38-3.78a6.221,6.221,0,0,1,1.26-3.36,236.739,236.739,0,0,0,12.18-24.64,51.458,51.458,0,0,1,3.22-6.86,2.444,2.444,0,0,0,.56-1.68c0-2.94-5.88-11.62-8.96-11.62a4.088,4.088,0,0,0-1.26.28,37.961,37.961,0,0,1-7.84.7Z" transform="translate(285 2316)" fill="#f24387"/>
      <path id="Path_370" data-name="Path 370" d="M34.58-77.7c-4.2,0-8.26,0-12.46-.14-2.1,0-4.34-.28-6.44-.28-3.64,0-3.78,2.1-3.78,7.28v5.6c0,6.02.28,8.96,4.34,8.96,1.26,0,3.08,0,4.34-.14,2.38-.14,4.62-.14,7-.14H58.66a3.2,3.2,0,0,1,3.22,3.36,35.172,35.172,0,0,1-.56,3.78C57.4-32.06,44.94-18.48,28.84-11.34c-1.54.56-3.92,1.4-3.92,2.94,0,2.94,12.6,14.56,16.1,14.56a12.673,12.673,0,0,0,3.22-1.12C65.38-6.16,79.66-27.16,83.3-50.4c.56-3.64,1.4-6.16,4.76-6.16H104.3c6.44,0,12.88.14,19.32.14,3.36,0,4.48-.98,4.48-8.12V-70.7c0-6.3-.7-7.28-3.92-7.28-1.82,0-3.78.14-5.6.14-4.76.14-9.52.14-14.28.14H89.74a4.5,4.5,0,0,1-4.2-3.08c-.14-.56-.14-4.9-.14-9.52v-10.5c0-3.08.14-3.92,1.4-5.18a2.764,2.764,0,0,0,.84-1.68c0-1.54-2.8-1.82-3.92-1.96-3.08-.42-16.52-1.68-18.76-1.68-.84,0-1.4.28-1.4,1.12,0,.98.28,1.96.28,4.48v1.54c0,7.28.28,14.7.28,22.12a4.158,4.158,0,0,1-4.2,4.34Z" transform="translate(141 2316)" fill="#1349f1"/>
      <path id="Path_369" data-name="Path 369" d="M77-51.38c.42-1.68.84-2.52,2.52-2.52a2.365,2.365,0,0,1,1.4.42c2.38,1.96,8.54,7.14,10.78,7.14,1.68,0,4.34-2.38,6.86-4.9l1.26-1.26c8.54-8.12,16.8-16.52,24.78-25.34a26.878,26.878,0,0,1,1.96-2.1c1.4-1.12,2.94-2.38,2.94-3.92,0-3.36-5.46-8.68-7.84-11.06-1.82-1.82-3.5-3.64-6.02-3.64a13.794,13.794,0,0,0-2.38.28,77.6,77.6,0,0,1-12.88.84H38.78c-7.28,0-14.42-.28-21.56-.28-3.5,0-4.06,1.82-4.06,4.9v7.14c0,7.84.14,9.38,4.48,9.38,1.96,0,3.92-.14,5.88-.14,5.04-.14,10.08-.14,15.26-.14H90.44c1.54,0,2.24.7,2.24,1.54,0,1.82-8.82,9.52-9.94,10.5a1.271,1.271,0,0,1-.98.42,1.143,1.143,0,0,1-1.26-1.12,1.061,1.061,0,0,1,.28-.56c.14-.42.56-.84.56-1.26,0-.7-.42-1.26-2.8-1.54-3.22-.42-16.94-.98-21-.98-1.26,0-1.4.42-1.4,1.54,0,.28.14.42.14.7a78.96,78.96,0,0,1-.56,10.22C52.64-38.36,42.14-22.96,25.34-12.88c-2.94,1.68-4.06,2.38-4.06,3.22,0,3.08,14.28,14.28,17.36,14.28,2.94,0,11.76-8.12,14.14-10.36C66.22-18.62,72.66-33.74,77-51.38Z" transform="translate(-3 2316)" fill="#ff9606"/>
      <path id="Path_372" data-name="Path 372" d="M99.54-31.36c1.26,0,2.94.42,3.64,1.68s.56,1.68,5.04,1.68c2.38,0,4.06.56,4.06,2.52a31.431,31.431,0,0,1-1.68,7.84c-2.24,5.6-5.46,5.6-12.74,5.6H50.68c-8.54,0-9.8-.42-9.8-9.1v-6.3a3.913,3.913,0,0,1,3.92-3.92Zm0-31.5a4.006,4.006,0,0,1,3.92,3.92v5.32a4.006,4.006,0,0,1-3.92,3.92H87.08a4.006,4.006,0,0,1-3.92-3.92v-5.32a3.748,3.748,0,0,1,3.92-3.92Zm-41.3,0a3.748,3.748,0,0,1,3.92,3.92v5.32a3.913,3.913,0,0,1-3.92,3.92H44.8a3.913,3.913,0,0,1-3.92-3.92v-5.32a3.913,3.913,0,0,1,3.92-3.92Zm-9.8-18.06c-.84,0-2.24-.14-2.24-1.12,0-.42.14-.84.98-1.96a27.847,27.847,0,0,1,4.34-4.9,6.436,6.436,0,0,1,4.06-.98H75.74c2.1,0,2.66.28,2.66,1.12,0,.98-1.82,3.5-2.52,4.48-1.82,2.38-2.8,3.36-5.88,3.36Zm17.64-24.64c-.7-.14-2.1-.14-2.1-1.26,0-1.82,2.1-2.66,3.5-3.08.98-.28,2.1-.7,2.1-1.96,0-1.96-2.38-2.38-6.72-3.22-2.52-.56-15.26-3.5-16.52-3.5-2.1,0-2.66,1.82-3.64,3.78C34.44-97.86,22.12-84.28,7.98-72.94c-1.12.84-3.08,2.1-3.08,3.5,0,3.36,7.28,11.9,12.46,13.44,1.54.42,2.24.7,2.24,2.52V-22.4c0,4.2-.28,8.68-.28,13.02,0,15.4,12.74,16.52,24.92,16.52h63.7c7.56,0,13.58-.28,18.48-6.86,3.08-4.2,7.14-14.56,7.14-19.88,0-3.5-2.66-5.04-5.32-6.44-3.22-1.68-4.34-2.52-4.34-12.88V-60.06c0-5.32.42-9.94.42-13.44,0-7.14-4.62-7.7-9.1-7.7-4.06,0-8.26.28-12.32.28-1.54,0-2.66-.14-2.66-1.4a7.016,7.016,0,0,1,1.4-2.66c1.82-2.38,6.86-8.96,6.86-11.76,0-2.38-4.06-9.24-11.48-9.24-3.5,0-7,.42-10.64.42ZM163.94-48.3c0,15.4,2.1,31.08,8.96,44.94,2.52,5.04,3.78,6.86,6.44,6.86,4.34,0,14.7-4.06,14.7-9.24a39.9,39.9,0,0,0-.42-4.06c-.28-2.1-.56-5.6-.56-6.58,0-7.56,6.16-18.34,6.16-20.3,0-2.1-5.6-6.86-7.28-6.86-1.54,0-2.38,1.54-3.22,2.94-.7,1.12-1.4,2.24-2.38,2.24-1.82,0-1.82-3.78-1.82-11.48,0-12.74,3.92-28.98,8.54-39.76,1.26-3.08,1.96-4.2,5.18-5.74.56-.28.98-.56.98-1.12,0-.7-.84-1.54-3.64-2.8-6.02-2.66-19.46-7.56-20.72-7.56-1.82,0-1.96,1.26-2.38,3.92-.42,2.24-1.12,4.9-1.82,7.56C166.32-78.82,163.94-65.52,163.94-48.3ZM206.5-83.16c0,1.54,0,5.74,1.12,6.72,2.66,2.24,21.98,2.94,26.18,2.94a166.111,166.111,0,0,0,23.52-1.68c3.64-.56,4.06-1.54,4.06-4.9a105.512,105.512,0,0,0-.84-11.48c-.28-2.1-1.12-5.04-3.78-5.04a12.312,12.312,0,0,0-2.8.42,85.917,85.917,0,0,1-20.72,2.8,102.22,102.22,0,0,1-18.48-1.96,28.373,28.373,0,0,0-4.34-.56C207.06-95.9,206.5-93.52,206.5-83.16Zm2.52,46.76c-3.22,0-10.22,14.14-10.22,16.8,0,3.22,9.94,14.42,32.48,14.42,6.3,0,29.68-2.1,34.58-4.48,1.82-.84,1.96-1.82,1.96-3.64a137.984,137.984,0,0,0-.7-14.56c-.14-1.26-.98-3.08-2.8-3.08a14.054,14.054,0,0,0-3.36.56A113.566,113.566,0,0,1,230.3-25.9c-9.1,0-13.72-2.38-19.6-9.38C210.28-35.7,209.72-36.4,209.02-36.4Zm168.14-75.74c.7-.42,1.82-1.12,1.82-2.1,0-2.1-2.94-1.96-7-2.24-3.5-.28-11.06-.56-14.42-.56-1.4,0-1.82.42-1.82,1.82,0,.84.28,3.92.28,6.16v1.26c0,2.94-1.54,4.48-4.48,4.48-3.78,0-7.7-.28-11.62-.28-2.94,0-3.22,1.4-3.22,4.76v8.26c0,3.64.28,4.9,3.36,4.9,2.8,0,5.6-.28,8.26-.28,1.26,0,2.66.28,2.66,1.82,0,3.78-10.36,14.84-17.78,19.18-.84.42-1.96,1.12-1.96,2.1,0,2.66,9.1,12.6,13.3,12.6a2.729,2.729,0,0,0,1.12-.14,1.776,1.776,0,0,1,.84-.14c1.4,0,1.96,1.12,1.96,2.38a1.589,1.589,0,0,1-1.54,1.68H317.24c-5.74,0-11.48-.28-17.22-.28-2.94,0-3.78.56-3.78,6.02v6.44c0,4.34.28,5.74,3.92,5.74,5.6,0,11.34-.28,17.08-.28h8.26c2.52,0,3.64,0,3.64,1.54,0,1.12-1.82,1.96-3.36,2.94a97.876,97.876,0,0,1-26.6,12.32c-1.68.42-4.06.84-4.06,2.66,0,3.08,7.28,15.96,11.76,15.96,1.54,0,4.48-1.4,6.02-1.96a118.349,118.349,0,0,0,31.78-19.04,3.134,3.134,0,0,1,2.1-1.12c1.26,0,1.68,1.4,1.68,2.52v6.44c0,5.04-.42,9.8-.42,13.02,0,3.5,1.68,3.92,6.02,3.92h9.38c4.34,0,6.02-.42,6.02-3.92,0-3.78-.42-8.4-.42-13.02v-5.88c0-1.26.28-2.94,1.82-2.94a4.546,4.546,0,0,1,2.52,1.4,131.839,131.839,0,0,0,17.5,11.76c3.5,2.1,15.68,8.26,19.32,8.26,3.08,0,5.6-3.5,7.28-5.74,1.54-1.82,5.18-6.72,5.18-9.1,0-1.68-2.52-2.38-3.92-2.8A147.713,147.713,0,0,1,389.9-25.48c-1.12-.7-2.24-1.12-2.24-2.1s.56-1.26,1.96-1.26h11.06c5.6,0,11.34.28,16.94.28,3.64,0,3.92-.84,3.92-6.58v-6.02c0-4.34-.28-5.6-3.64-5.6-5.74,0-11.48.28-17.22.28H373.1a3.8,3.8,0,0,1-3.78-3.92,4.613,4.613,0,0,1,1.12-3.08c.84-.84,1.4-1.12,1.4-2.1,0-1.96-1.82-1.96-3.36-2.1-9.1-.28-9.8-.84-9.8-2.66a3.125,3.125,0,0,1,.84-1.82A59.556,59.556,0,0,0,371.28-82.6c.28-.84.84-3.36,3.36-3.36h1.26a2.658,2.658,0,0,1,2.66,2.66l-.28,10.78c-.14,3.08-.14,4.2-.14,6.3,0,12.74,6.02,13.02,16.8,13.02h7c5.88,0,11.9,0,15.26-5.88,2.38-3.92,5.04-14,5.04-18.76,0-2.52-1.68-3.64-3.92-4.48A28.842,28.842,0,0,0,407.4-84.7c-3.08,0-3.64.98-3.78,3.92-.42,6.3-.84,10.78-3.08,10.78h-1.82c-1.82,0-1.82-1.26-1.82-3.22v-3.64l.56-12.46c.14-2.66.28-5.32.28-7.98,0-5.74-2.94-6.3-7-6.3-3.64,0-7.42.28-11.06.28a3.935,3.935,0,0,1-4.06-3.92C375.62-110.18,375.62-111.3,377.16-112.14Zm-58.1-5.74c-2.8,0-9.94,8.68-9.94,10.36a1.858,1.858,0,0,0,1.12,1.54c3.08,2.24,10.22,7.98,12.88,10.5a2.273,2.273,0,0,0,1.26.7c2.24,0,9.94-8.54,9.94-10.22s-5.32-5.88-6.72-7C326.06-113.26,320.6-117.88,319.06-117.88Zm8.4,32.06c-.84,0-2.1,1.12-2.66,1.68-5.88,4.76-20.72,14.98-27.3,17.78-.98.28-2.38.84-2.38,1.96,0,.98,1.54,2.94,2.38,4.2.28.28.42.56.56.7,2.1,2.94,4.2,5.74,6.3,8.68.42.56.98,1.26,1.68,1.26,1.12,0,1.68-.98,1.96-1.82.28-1.54.28-1.82,1.4-2.38A171.164,171.164,0,0,0,332.92-70c1.12-.98,2.94-2.24,2.94-3.78C335.86-76.02,329.98-85.82,327.46-85.82Zm-31.64-6.16c0,1.12.98,1.82,1.82,2.52,2.94,2.1,5.74,4.34,7.98,6.3,2.66,2.24,4.76,3.92,5.46,3.92,1.82,0,9.66-8.54,9.66-10.36,0-2.66-13.3-13.3-15.54-13.3S295.82-93.8,295.82-91.98Zm207.9-18.2c-2.1,0-2.38,1.4-2.38,3.22,0,1.54.14,3.08.14,4.62,0,10.22-.14,11.76-5.04,12.6a68.428,68.428,0,0,0-12.88,3.92,5.092,5.092,0,0,1-2.66.84c-2.1,0-2.66-1.68-2.94-3.36-.42-2.38-.7-4.34-.98-6.02-.84-4.76-1.12-6.58-3.36-6.58-2.52,0-13.3,2.94-16.1,3.78-1.4.42-2.8,1.26-2.8,2.66a10.457,10.457,0,0,0,.42,2.8c1.82,5.6,3.5,11.2,5.32,16.8a17.265,17.265,0,0,1,1.12,3.64c0,1.54-.7,2.38-1.68,3.5A50.429,50.429,0,0,0,447.86-34.3c0,12.6,5.04,27.58,20.16,27.58,12.46,0,24.5-9.94,31.64-19.32,8.12-10.78,15.54-27.16,18.06-40.46.42-1.96,1.4-3.22,3.22-3.22,2.94,0,16.24,6.02,16.24,21.42,0,16.8-15.96,28.28-30.52,32.76-4.06,1.26-5.18,1.96-5.18,3.36,0,3.36,6.86,15.96,11.34,15.96,2.1,0,4.62-.84,8.68-2.8,20.3-9.8,36.12-24.64,36.12-48.58,0-20.3-11.48-34.86-30.66-40.6-2.52-.7-4.9-1.54-4.9-3.92a19.884,19.884,0,0,1,2.38-8.96,5.4,5.4,0,0,0,.84-2.52c0-1.54-1.68-2.38-2.94-2.8C519.54-107.24,506.52-110.18,503.72-110.18ZM470.54-45.64c1.26,0,2.66,2.94,6.16,10.78a5.68,5.68,0,0,1,.7,2.38c0,2.38-4.62,5.6-6.44,5.6-3.08,0-3.36-5.46-3.36-7.56C467.6-36.26,468.16-45.64,470.54-45.64Zm25.34-24.08a1.617,1.617,0,0,1,1.68,1.68,59.342,59.342,0,0,1-2.24,8.4c-1.26,3.92-2.8,7.7-4.48,7.7-.98,0-1.54-.7-1.96-1.54-.7-1.4-3.36-8.4-3.36-9.52,0-2.1,1.4-3.08,2.94-3.92C489.86-67.76,494.48-69.72,495.88-69.72Z" transform="translate(430 2316)"/>
    </g>
  </g>
</svg>
