<svg xmlns="http://www.w3.org/2000/svg" width="699.58" height="128.24" viewBox="0 0 699.58 128.24">
  <path id="Path_318" data-name="Path 318" d="M83.02-111.44a1.819,1.819,0,0,0,1.12-1.68c0-1.54-2.24-1.96-3.5-2.1-4.76-.28-13.86-1.12-18.2-1.12-2.24,0-3.36.56-3.36,2.94,0,6.16.42,12.18.42,18.2,0,10.92-.14,13.44-5.04,13.44H26.88c-5.6,0-11.2-.42-16.66-.42-3.64,0-3.92,1.68-3.92,6.44v8.54c0,4.62.28,6.16,3.78,6.16,5.6,0,11.2-.42,16.8-.42h24.5c1.54,0,3.64,0,3.64,2.24,0,1.4-2.66,8.26-3.36,9.8C43.96-32.2,28.14-19.46,10.92-12.46c-1.68.7-3.64,1.54-3.64,3.78C7.28-6.58,9.1-1.96,9.94,0c1.96,4.34,4.34,8.82,7.42,8.82,1.68,0,4.06-1.12,5.88-2.1.28-.14.7-.28.98-.42C41.58-2.24,57.26-16.38,66.64-33.6c.7-1.4,1.68-3.92,3.64-3.92,1.26,0,2.24,1.12,2.8,2.1A118.892,118.892,0,0,0,88.06-14.84,113.963,113.963,0,0,0,115.5,7.42a7.591,7.591,0,0,0,3.36,1.26c4.62,0,12.18-11.76,12.18-16.1,0-2.24-1.26-2.8-3.08-3.78-17.78-9.66-28.14-20.3-37.52-35.56-2.1-3.36-6.16-10.64-6.16-12.6,0-2.1,2.24-2.1,3.5-2.1h25.48c5.6,0,11.2.42,16.66.42,3.36,0,3.78-1.54,3.78-5.74v-9.66c0-4.34-.42-5.74-3.78-5.74-5.6,0-11.2.42-16.66.42H85.82c-2.8,0-4.76-1.12-4.76-4.2,0-7,.28-13.86.28-20.86C81.34-108.36,81.48-110.32,83.02-111.44Zm81.9,79.94c-.28,5.74-1.68,6.16-9.66,7.7-1.82.28-4.06.42-4.06,2.8a31.407,31.407,0,0,0,1.54,7c.7,2.1,1.26,4.2,1.68,6.02,1.26,4.9,2.24,8.26,3.64,8.26.84,0,1.12-.56,1.4-1.12,1.12-3.08.84-3.22,4.2-4.34,5.88-1.96,25.34-8.96,30.38-11.2,2.38-1.12,2.94-2.52,2.94-5.46v-4.62c0-5.46-.28-8.54-2.8-8.54a10.312,10.312,0,0,0-1.96.56,12.411,12.411,0,0,1-3.92.98c-1.82,0-2.94-1.82-2.94-3.5V-61.32a3.734,3.734,0,0,1,3.78-3.64c.98,0,1.96.14,3.08.14,2.8,0,3.08-1.4,3.08-6.58v-7.98c0-3.92-.28-5.6-2.94-5.6H189a3.7,3.7,0,0,1-3.64-3.64v-15.54c0-1.82.14-2.66,1.68-3.64,1.68-.98,2.8-1.4,2.8-2.8,0-1.54-1.82-1.82-3.08-1.96-1.96-.14-17.78-.98-19.6-.98-1.68,0-2.8.28-2.8,2.1,0,1.68.56,5.6.56,12.46v10.36q0,3.78-3.78,3.78c-1.82,0-3.64-.14-5.6-.14-2.8,0-3.08,1.26-3.08,5.6v8.54c0,4.34.28,6.02,2.94,6.02,1.82,0,3.92-.28,5.6-.28a3.886,3.886,0,0,1,3.92,3.78Zm79.66-27.58c.42-5.18,3.78-7.42,6.86-7.42,1.96,0,1.96,1.68,1.96,3.92,0,16.1-.84,16.1-2.8,16.1h-1.82c-1.68,0-1.68,2.24-1.68,3.5,0,3.64.7,10.22,2.1,13.44.98,2.38,3.78,2.52,6.02,2.52,8.12,0,16.1-2.1,17.22-11.48.56-5.46.7-32.2.7-39.2v-2.94c0-2.66-.14-5.74-.98-7a10.822,10.822,0,0,0-8.68-4.76c-2.52,0-5.04,1.12-7.56,2.24-1.4.7-8.12,3.78-9.1,3.78-1.96,0-2.24-1.96-2.24-3.78v-6.3c0-2.38,0-10.08.14-11.9.14-1.26.28-2.52,1.26-3.36.7-.7,1.26-.98,1.26-1.82,0-1.82-2.24-1.96-4.34-2.1-4.62-.14-10.22-.42-14.84-.42-1.26,0-2.52,0-2.52,1.68,0,1.4.42,5.6.42,12.46v19.88c0,3.5-2.1,6.72-4.48,6.72-2.1,0-2.1-2.52-2.1-4.06V-90.16a3.894,3.894,0,0,1,1.26-3.36c.84-.56,1.96-.98,1.96-2.1,0-1.82-2.66-1.82-4.62-1.96-4.48-.28-11.62-.7-15.96-.7-1.4,0-2.66.14-2.66,1.96a4.822,4.822,0,0,0,.14,1.26,84.389,84.389,0,0,1,.42,10.64v13.58c0,3.64-1.68,5.46-5.04,6.86-3.78,1.54-7,2.52-7,5.04,0,1.26,5.6,15.82,8.4,15.82,2.38,0,3.64.14,3.64,2.66v23.24c0,3.36-.14,6.72-.14,10.08,0,13.72,8.26,14.98,19.74,14.98h36.54c5.6,0,11.9-.98,15.4-5.74,3.08-4.34,6.44-12.6,6.44-17.92,0-3.78-2.38-5.04-5.88-6.16a37.924,37.924,0,0,0-11.06-2.24c-2.52,0-2.52.98-3.08,3.36-1.4,7.42-2.66,9.24-8.82,9.24H225.54c-6.02,0-6.16-1.54-6.16-6.86V-48.02c0-3.5,1.82-6.86,4.62-6.86a2.068,2.068,0,0,1,1.96,2.24v8.82c0,6.58-.42,13.16-.42,19.74,0,3.22,1.68,3.5,6.16,3.5h7.56c4.34,0,5.74-.28,5.74-3.64,0-6.58-.42-13.16-.42-19.6Zm105.7-59.08c-1.4,0-1.68.98-2.1,3.08a69.089,69.089,0,0,1-6.58,17.36c-1.12,1.96-2.38,2.52-9.24,2.52-4.62,0-9.66-.28-12.74-.28-4.48,0-5.04.14-5.04,8.82,0,10.5.42,10.92,5.18,10.92,1.82,0,3.78-.14,5.46-.14a2.034,2.034,0,0,1,2.1,1.96,3.1,3.1,0,0,1-.84,1.96C322-65.66,312.9-51.1,307.16-44.52c-1.68,1.82-2.52,2.66-2.52,3.78,0,3.36,14.28,11.2,17.36,11.2a2.275,2.275,0,0,0,2.1-1.54c4.06-7.28,8.26-14.7,14.84-19.88,4.2-3.22,13.86-8.12,19.18-8.12,2.52,0,4.34,1.68,4.34,3.64,0,1.54-1.12,2.24-2.38,2.8-2.52,1.26-5.32,2.8-7.7,4.2-10.22,6.02-20.16,13.58-20.16,26.74,0,10.22,5.32,17.64,14.28,21.7,8.26,3.78,14.7,4.48,24.5,4.48,6.86,0,20.86-.42,27.16-1.68,4.06-.84,4.34-2.24,4.34-7.56,0-8.96-.14-14-3.5-14a16.9,16.9,0,0,0-3.5.42c-8.82,1.96-17.08,3.5-26.04,3.5-4.9,0-16.8,0-16.8-7,0-4.9,7-9.38,8.4-9.38a1.772,1.772,0,0,1,1.68,1.96v.7a34.33,34.33,0,0,0-.28,3.78c0,4.34,2.94,4.76,12.6,4.76,7.84,0,7.98-.14,7.98-9.1,0-3.08-.14-6.44-.14-8.12,0-3.78.56-5.04,3.92-6.44,6.44-2.66,10.64-4.48,17.36-7,2.8-.98,4.2-1.4,4.2-3.22,0-3.22-4.9-19.32-8.4-19.32a4.892,4.892,0,0,0-1.82.7c-.56.28-1.54.84-2.8,1.54-4.2,2.38-11.62,6.58-13.02,6.58a2.513,2.513,0,0,1-2.38-1.68c-1.82-3.92-2.8-5.74-6.72-7.98-2.8-1.68-6.72-2.24-10.08-2.24a34.953,34.953,0,0,0-11.9,2.1,4.45,4.45,0,0,1-1.26.42c-.56,0-1.26-.28-1.26-.98,0-.14.28-3.22,4.76-3.78,8.68-.98,18.2-2.66,25.9-4.06s8.96-1.96,8.96-4.06A61.575,61.575,0,0,0,386.68-98c-.56-2.52-1.26-5.46-4.34-5.46a12.412,12.412,0,0,0-3.92.98c-2.94.98-9.24,3.08-11.34,3.08-.98,0-1.68-.42-1.68-1.54s2.1-4.62,3.78-5.32c.98-.28,2.52-.7,2.52-1.82,0-1.26-1.82-2.24-4.34-3.36C365.12-112.42,351.82-118.16,350.28-118.16ZM486.92-53.2c3.64,0,3.92,3.36,3.92,7.28v5.32c0,6.02-.14,6.86-5.32,6.86-2.38,0-4.34-.28-5.04-.28-3.22,0-3.22,2.52-3.22,5.6,0,3.64.98,9.94,3.08,12.88,1.26,1.68,3.08,1.68,4.9,1.82.7,0,1.54.14,1.54.98s-1.26.98-2.1,1.12a150.84,150.84,0,0,1-26.32,2.38c-3.5,0-6.86-.14-10.22-.14-1.68,0-2.66,0-2.66,2.52a41.823,41.823,0,0,0,1.26,9.8c1.4,5.46,2.66,7.14,6.16,7.14,2.38,0,5.04-.14,7.56-.28,15.12-.98,28-2.1,42.42-7.42,11.76-4.34,25.2-11.76,34.72-20.02.56-.56,1.82-1.68,2.66-1.68.14,0,.7.14.98.14a8.194,8.194,0,0,0,1.82.28c1.12,0,2.1-.42,2.1-1.54,0-1.68-2.52-2.94-6.3-5.88a16.086,16.086,0,0,0-1.4-1.12c-3.08-2.38-8.82-6.72-10.64-6.72-.98,0-1.4.56-1.96,1.26-1.4,1.54-9.24,9.38-11.06,9.38-.84,0-1.12-.56-1.12-1.4v-.42a36.905,36.905,0,0,0,.28-3.92c0-3.36-.42-6.72-.42-10.08V-44.1c0-3.64.14-4.06,2.24-5.46.98-.7,2.1-1.26,2.1-2.1v-.28c-.14-.28-.14-.28-.14-.42,0-.7.84-.84,1.4-.84h8.4c1.12,0,1.96,0,1.96,1.4,0,.56-.7,1.12-.98,1.4-1.12.84-5.04,4.2-5.04,5.46,0,1.12,1.82,2.38,2.52,2.94a154.618,154.618,0,0,1,23.1,20.72c.84,1.12,3.08,3.64,4.48,3.64,3.22,0,12.74-8.82,12.74-12.32,0-1.4-2.52-3.64-4.06-5.18a4.754,4.754,0,0,0-.84-.84c-3.64-3.5-9.38-9.1-13.3-12.04a7.768,7.768,0,0,0-1.12-.84c-1.54-1.12-3.08-2.24-3.08-3.08,0-1.26,1.68-1.26,2.52-1.26,5.18,0,10.5.28,15.68.28,3.22,0,3.5-1.68,3.5-5.6v-7.84c0-3.92-.28-5.6-3.5-5.6-6.16,0-12.32.42-18.48.42h-25.9a4.006,4.006,0,0,1-3.92-3.92v-5.46a3.913,3.913,0,0,1,3.92-3.92h14.98c7.56,0,12.18.42,15.12.42,4.62,0,4.76-.98,4.76-6.02v-8.12c0-3.92-.28-5.18-3.5-5.18-5.46,0-10.92.42-16.38.42h-14c-2.66,0-4.76-1.26-4.76-4.2a4.876,4.876,0,0,1,1.4-3.92c.98-.98,1.54-1.26,1.54-2.24,0-1.68-1.96-1.82-3.22-1.96-5.04-.56-10.22-.98-15.4-1.4a31.941,31.941,0,0,0-3.78-.28c-1.4,0-2.8.28-2.8,2.1a6.429,6.429,0,0,0,.14,1.4,85.558,85.558,0,0,1,.42,10.78v27.58a4.006,4.006,0,0,1-3.92,3.92h-8.12a4.006,4.006,0,0,1-3.92-3.92V-96.18c0-3.64.14-6.86,1.4-7.98.98-.84,1.54-1.26,1.54-2.1,0-1.82-1.68-1.96-4.2-2.24-2.38-.28-14.28-1.4-16.24-1.4-1.54,0-2.66.28-2.66,2.1s.56,6.02.56,15.68V-76.3c0,3.08-1.82,4.62-4.06,4.62-2.52,0-5.04-.28-7.56-.28-3.22,0-3.5,1.68-3.5,5.6v7.84c0,4.06.28,5.6,3.5,5.6,5.6,0,11.2-.28,16.8-.28,1.12,0,2.38.28,2.38,1.68,0,.98-2.66,4.34-3.92,6.02-.28.28-.42.56-.56.7a86.173,86.173,0,0,1-16.52,14.56c-.98.7-2.38,1.4-2.38,2.8,0,1.96,9.52,11.76,13.16,11.76,2.1,0,4.62-2.1,6.16-3.36a108.419,108.419,0,0,0,20.44-21.14c1.26-1.68,1.82-2.52,4.06-2.8,1.26-.28,2.66-.7,2.66-2.24s-3.08-3.08-8.54-6.02c-.42-.14-1.26-.56-1.26-1.12,0-.84.84-.84,1.82-.84Zm123.2-41.44c0,2.52,2.52,8.26,3.64,10.64,1.4,3.08,3.78,8.12,7.7,8.12,2.66,0,10.36-3.64,13.02-4.9a8.173,8.173,0,0,1,3.08-1.12,1.469,1.469,0,0,1,1.54,1.54c0,.98-4.48,9.94-5.32,11.62-.98,2.1-1.68,4.34-4.76,4.62a60.306,60.306,0,0,0-8.54,1.4c-14.28,3.5-28.28,14.84-28.28,30.66,0,11.2,7.7,21.28,19.46,21.28,15.54,0,22.82-17.36,28.56-29.26a4.355,4.355,0,0,1,3.92-2.8c1.68,0,6.58,1.68,8.4,2.38,2.8.98,5.32,1.82,5.32,4.34,0,3.08-10.64,17.22-23.66,24.08-1.12.56-3.36,1.82-3.36,3.22,0,3.5,13.44,12.46,16.1,12.46,1.54,0,7.28-4.48,8.68-5.6a97.072,97.072,0,0,0,19.6-22.54c.98-1.68,1.82-3.08,3.36-3.08,2.1,0,7,4.34,8.68,5.88a5.331,5.331,0,0,0,.84.7c1.12,1.12,3.08,2.94,4.06,2.94,3.36,0,13.72-15.54,13.72-19.04,0-1.82-1.68-2.94-3.08-3.64-4.06-2.24-7.98-4.48-12.04-6.58-1.96-.98-3.22-2.1-3.22-4.48a6.342,6.342,0,0,1,.42-2.24c.98-3.64,2.24-9.24,2.8-12.74.28-1.4.28-3.22.98-3.78,1.68-1.54,2.38-2.24,2.38-2.94,0-.98-1.68-1.82-3.36-2.1-7-1.4-18.76-3.78-19.88-3.78a2.554,2.554,0,0,0-2.38,2.8c0,1.12.14,2.1.14,3.22a108.018,108.018,0,0,1-1.26,11.34c-.42,1.96-1.12,3.08-3.22,3.08-.84,0-3.36-.98-6.44-1.82-3.78-1.12-5.46-1.54-5.46-3.92a5.4,5.4,0,0,1,.84-2.52c3.36-6.44,9.24-19.04,14.28-23.8.7-.7,1.68-1.54,1.68-2.52,0-3.92-11.34-14.7-15.26-14.7a12.055,12.055,0,0,0-5.74,1.82c-7.56,4.06-24.5,8.4-33.32,9.8C610.96-96.04,610.12-95.76,610.12-94.64ZM619.92-42c0,1.4-5.46,12.04-8.68,12.04-1.4,0-2.1-1.54-2.1-2.8,0-5.88,7.42-10.5,9.24-10.5C619.22-43.26,619.92-42.84,619.92-42Z" transform="translate(-6.3 118.16)"/>
</svg>
