<svg xmlns="http://www.w3.org/2000/svg" viewBox="0 0 1036.1 841.89"><defs><style>.cls-1{fill:#fdfdfd;}</style></defs><g id="Layer_2" data-name="Layer 2"><g id="Calque_1" data-name="Calque 1"><path id="white_background" data-name="white background" class="cls-1" d="M930.05,209.58c.62,9.11.62,18.27.62,27.47,0,280.91-213.85,604.84-604.84,604.84v-.17A601.72,601.72,0,0,1,0,746.4a432.2,432.2,0,0,0,50.6,3.07,426.57,426.57,0,0,0,264-91.18A212.83,212.83,0,0,1,116,510.67,212.41,212.41,0,0,0,212,507,212.66,212.66,0,0,1,41.44,298.64v-2.7a211,211,0,0,0,96.49,26.61A212.73,212.73,0,0,1,72.11,38.78a603.52,603.52,0,0,0,438.11,222.1,212.75,212.75,0,0,1,61.5-203.1C657.32-22.73,792-18.6,872.48,67a426.12,426.12,0,0,0,135-51.6A213.32,213.32,0,0,1,914,133,424.26,424.26,0,0,0,1036.1,99.54,432.73,432.73,0,0,1,930.05,209.58Z"/></g></g></svg>