<svg xmlns="http://www.w3.org/2000/svg" viewBox="0 0 473.44 482"><defs><style>.cls-1{fill:#b1a3a3;}</style></defs><g id="Layer_2" data-name="Layer 2"><g id="_10" data-name="10"><path class="cls-1" d="M129.7,482A129.84,129.84,0,0,1,0,352.3V129.69C0,58.18,58.18,0,129.7,0h214a129.71,129.71,0,0,1,129.7,129.69V352.3A129.84,129.84,0,0,1,343.74,482Zm0-460.63A108.45,108.45,0,0,0,21.37,129.69V352.3A108.45,108.45,0,0,0,129.7,460.63h214A108.45,108.45,0,0,0,452.07,352.3V129.69A108.45,108.45,0,0,0,343.74,21.37Z"/><path class="cls-1" d="M236.72,363.85A122.85,122.85,0,1,1,359.57,241,123,123,0,0,1,236.72,363.85Zm0-222.61A99.76,99.76,0,1,0,336.47,241,99.86,99.86,0,0,0,236.72,141.24Z"/><circle class="cls-1" cx="372.43" cy="105.3" r="20.54"/></g></g></svg>