<svg 
 xmlns="http://www.w3.org/2000/svg"
 xmlns:xlink="http://www.w3.org/1999/xlink"
 width="20px" height="14px">
<path fill-rule="evenodd"  fill="#1f1f1f"
 d="M3.981,13.998 L3.981,12.016 L19.905,12.016 L19.905,13.998 L3.981,13.998 ZM3.981,6.072 L19.905,6.072 L19.905,8.054 L3.981,8.054 L3.981,6.072 ZM3.981,0.128 L19.905,0.128 L19.905,2.109 L3.981,2.109 L3.981,0.128 ZM-0.000,12.031 L2.000,12.031 L2.000,14.000 L-0.000,14.000 L-0.000,12.031 ZM-0.000,6.062 L2.000,6.062 L2.000,8.062 L-0.000,8.062 L-0.000,6.062 ZM-0.000,0.125 L2.000,0.125 L2.000,2.125 L-0.000,2.125 L-0.000,0.125 Z"/>
</svg>