<svg data-name="レイヤー 1" xmlns="http://www.w3.org/2000/svg" viewBox="0 0 60 60"><circle cx="30" cy="30" r="30" fill="#888"/><path d="M39.42 30a29.25 29.25 0 007.48 4.8 20 20 0 00-3.11 3.72 30.4 30.4 0 01-4.37-2.83v10.92H35V31.54a40.58 40.58 0 01-4.37-5.76c-2.68 10.13-7.66 17-14 20.58a18.07 18.07 0 00-3.39-3.19 24.28 24.28 0 009.69-9.26 44.52 44.52 0 00-5.37-4.08 18.79 18.79 0 01-1.82 2.11 25.2 25.2 0 00-3.54-2.72c3.93-3.58 6.83-9.56 8.41-16l4.22.82c-.39 1.5-.82 2.94-1.33 4.37h5l.75-.15 2.79 1c-.18 1.07-.36 2.11-.54 3.11l1.33-.5A24.14 24.14 0 0035 25.32v-12h4.43zm-17.57-7.51a36 36 0 01-2.14 4.15 44.64 44.64 0 015.11 3.47 40.1 40.1 0 002.29-7.62z" fill="#fff"/></svg>