<svg data-name="レイヤー 1" xmlns="http://www.w3.org/2000/svg" viewBox="0 0 60 60"><circle cx="30" cy="30" r="30" fill="#888"/><path d="M28.63 22.92C27 32.62 23.05 39.88 18 43.6a16.58 16.58 0 00-3.54-3.36c4.15-2.79 7.3-7.69 8.91-14H15.6V22h9.34l.79-.14zm19-1.29a89.2 89.2 0 01-9.34 8.66 23.91 23.91 0 0010.31 9.84 18.26 18.26 0 00-3.3 4c-5.18-2.93-8.8-7.65-11.38-13.49v10.53c0 2.58-.57 3.86-2 4.58s-3.87 1-7.13 1A16.55 16.55 0 0023.08 42c2.36.1 4.62.07 5.37.07s1-.25 1-.86V13.29h4.5v6.3a46.07 46.07 0 002.55 7.2 59.87 59.87 0 007.19-7.95z" fill="#fff"/></svg>